<?xml version="1.0" encoding="utf-8"?>
<!-- Generator: Adobe Illustrator 21.0.0, SVG Export Plug-In . SVG Version: 6.00 Build 0)  -->
<svg version="1.1" id="レイヤー_1" xmlns="http://www.w3.org/2000/svg" xmlns:xlink="http://www.w3.org/1999/xlink" x="0px"
	 y="0px" viewBox="0 0 260 260" style="enable-background:new 0 0 260 260;" xml:space="preserve">
<path d="M130.1,259.7c-17.9,0-35.9,0-53.7,0.2v-36.7c3.1-0.8,6.1-1.6,9-2.6l0.8-0.3c11.6-3.9,20-14.6,20.8-27.2l0,0c0,0,0-0.8,0-1.8
	c0-1.1,0-2.6,0-4.3C107,117.7,62.3,58.9,0,37.9L0.2,0.1c43.2,0.8,86.5,1.3,129.9,1.3S216.7,0.9,260,0.1v37.8
	c-62.2,21-107,79.8-107,149.1c0,1.8,0,3.1,0,4.3c0,1,0,1.8,0,1.8l0,0c0.7,12.8,9.2,23.4,20.8,27.2l0.8,0.3c2.9,1,6.1,1.8,9,2.6v36.7
	C165.8,259.9,147.9,259.7,130.1,259.7L130.1,259.7z"/>
</svg>
