<svg xmlns="http://www.w3.org/2000/svg" viewBox="0 0 490 320.85"><title>sct5_img3</title><path d="M416.82,69.15,384.63,5.23A5.93,5.93,0,0,1,384,4l-.28-.28a5.09,5.09,0,0,1-1-.88h-1.51L75,81.61A2.91,2.91,0,0,0,73,84V238.69A2.33,2.33,0,0,0,74.71,241l306.76,78.13a6.31,6.31,0,0,1,1.33.26l.91-.44.14-.14.48-.48,33-40.9c1.16-1.2,1.16-1.79,1.16-2L417.23,70.71A9,9,0,0,0,416.82,69.15ZM379.75,313.88l-2.44-.63L78.24,236.76V86.36L379.75,9.26Zm33-38.16-28.14,33.88V16.33l27.31,55.84,1.28,203Z" fill="#b5b29d"/></svg>