<svg id="レイヤー_1" data-name="レイヤー 1" xmlns="http://www.w3.org/2000/svg" viewBox="0 0 306 486.01"><defs><style>.cls-1{fill:#fff;}</style></defs><title>movie1_3w</title><g id="v1sH4p.tif"><path class="cls-1" d="M306,96.43c-.51,2.3-.51,2.31-3,2.2a2.94,2.94,0,0,0-2.4.82c-1.24,1.23-2.59,2.31-3.23,4.08a10.8,10.8,0,0,1-2.47,3.23c-.39.44-.81.86-1.36,1.44,1.38-.25,1.89-1.44,3-1.94,0,1.1-.66,1.58-1.31,2q-2.19,1.58-4.43,3.11a2.11,2.11,0,0,0-1.06,2.22,2.66,2.66,0,0,1,0,.84c0,.27-.11.61-.48.56s-.28-.35-.3-.58,0-.54-.08-.9c-2.42,1.22-3.36,3.69-5.09,5.4-.62.61-1,1.45-1.74,2a1.38,1.38,0,0,0-.59.88,37.68,37.68,0,0,1-1.85,5.81c-1.72,4.71-2.18,9.78-4.19,14.39a42.89,42.89,0,0,1-3.76,6.66c-1.4,2.1-3,4.12-3.73,6.66a14,14,0,0,1-1.49,3.28,47.64,47.64,0,0,0-3.08,6.91c-.17.43-.29,1.1-.92.82s-.37-.82-.15-1.27c1.42-2.81,2.86-5.61,4.26-8.43a48.45,48.45,0,0,1,3.1-6.08,45.34,45.34,0,0,0,5.61-9.75,18.7,18.7,0,0,0,.91-2.86c1-5.12,2.93-10,4.19-15a9,9,0,0,1,3.09-5,20.79,20.79,0,0,0,3.53-4.23,3.91,3.91,0,0,1,.85-1c1.09-.74,1-1.64.4-2.6s-1.33-2-2-3a.72.72,0,0,0-.71-.37c-.43.12-.15.45-.13.7a.61.61,0,0,1,0,.35c-3.3,4.89-5,10.72-8.79,15.33a16.23,16.23,0,0,1-5.24,3.72c-.74.39-1.58,0-2.36-.12-.48-.06-.95-.13-1.43-.15-.74,0-1.11.27-1.11,1.06s-.21,1.28-.17,1.91c.2,3.24-.61,6.35-1,9.52a49.82,49.82,0,0,0-.48,6.21,48.58,48.58,0,0,1-.48,5.73,2.71,2.71,0,0,1-.32,1c-.21.36-.44.81-1,.56s-.39-.62-.26-1a6.31,6.31,0,0,0,.09-2.71,12.81,12.81,0,0,1,.62-5.67c.11-.33.64-.88-.33-.94-.24,0-.27-.46-.16-.74,1.07-2.68.69-5.54,1-8.31.19-1.74.17-3.51.53-5.24.08-.39,0-.51-.43-.59a13.34,13.34,0,0,1-4.7-2,6.89,6.89,0,0,0-5.42-.85,18,18,0,0,0-6.75,2.7c-1.23.88-2.77,1.5-3.67,2.63A8.1,8.1,0,0,0,241.5,135c0,2.45.44,4.87.29,7.33s.41,4.88-.15,7.3c1.25,2.84-.31,5.92.75,8.77-.73,1.71,0,3.37.18,5,.15,1.46.66,2.85.86,4.31.28,2,1.65,3.32,3.26,4.41a1.09,1.09,0,0,0,.91.13.93.93,0,0,1,1.12.51c.31,1,1.08.91,1.82.83a11.17,11.17,0,0,0,4.07-1,22.86,22.86,0,0,0,4.23-2.23,4.49,4.49,0,0,0,1.57-2.06c.28-.83.4-.79,1.23-.46.5.2.57-.39.86-.59s.21-.41.46-.26.19.4.11.64c0,0,0,.09-.05.11-1.87,1.29-2.18,3.89-3.88,5.12-2.32,1.67-5,2.78-8.09,2a7.11,7.11,0,0,0-3-.34l3.85,1.46c.26.1.76-.09.67.43s-.49.44-.79.32c-1.36-.56-2.74-1.07-4-1.75-2.44-1.28-3.85-3.49-5.08-5.84,0-.09-.17-.14-.32-.26-.83,2.16-.39,4.31,0,6.53-1-.23-.65-1-1.08-1.49-.27.8-.58,1.53-.77,2.28-.84,3.36-2.46,6.44-3.51,9.73-.51,1.6-3.66,3.46-5.32,3.29-.52-.05-1-.06-1.56-.08s-.87-.12-.82-.64.52-.49.86-.44c2.07.34,3.62-.74,5.18-1.82a2.47,2.47,0,0,0,1.08-1.51,10.36,10.36,0,0,1,.79-2.13c1.52-3,1.9-6.31,2.31-9.59.1-.79.18-1.59.27-2.38,0-.24.08-.52.39-.49s.34.3.32.55c-.06.72-.13,1.43-.21,2.28a4.29,4.29,0,0,0,.71-3.21c-.13-2.71.13-5.43-.11-8.21-.85.6-.31,1.59-.66,2.27-.32.11-.41-.07-.45-.27-.08-.4-.26-.58-.67-.38s-.75.28-.59.76c.81,2.43-.86,3.63-2.43,4.84a4.42,4.42,0,0,0-1.37,4.71c.28.8-.36.89-.85.94s-1,.19-1.12.83c-1.47,6.16-3.86,12-5.61,18.12-1.26,4.39-2.42,8.81-3.64,13.22a4.6,4.6,0,0,1-1.37,2.74,1.1,1.1,0,0,0-.29.52c-1.47,4.36-3,8.68-3.45,13.33-.34,3.87-1.89,7.44-3.13,11.08-.24.72-.48,1.44-.72,2.17s-.32,1.41-1.19,1.66c-.31.09-.37.5-.48.8a94.43,94.43,0,0,0-3.61,12.71c-.17.79,0,.94.75.77a2,2,0,0,1,1.6.34c1.12.74,2.21,3.68,1.9,5a26.22,26.22,0,0,1-3,7.44c-.51.86-.23,1.11.51,1.36.45.15.89.37,1.33.55,1.09.44,1.84,0,1.92-1.24a42.18,42.18,0,0,0-.23-5.28c0-.66-.15-1.33.55-1.84.25-.19.26-.73.32-1.12a7.13,7.13,0,0,1,.06-1.08c.27-.8-.15-2,1.12-2.26.89-.18,2.26,1.1,2.57,2.19a10.91,10.91,0,0,1-.11,4.64q-.42,2.79-.89,5.57a8.61,8.61,0,0,0,0,3.11,2.3,2.3,0,0,1-.55,2.34c-.58.52-.21,1.08.08,1.51a2.73,2.73,0,0,1-.12,3.61c-.86,1.11-1.68,2.32-1.32,3.93a1.8,1.8,0,0,1-.7,1.6,39.39,39.39,0,0,1-3,2.74,1,1,0,0,0-.46,1.19,1.47,1.47,0,0,1,.07.47c0,.63-2.9,3-3.52,3a7.86,7.86,0,0,0-3.92,1.11c-.66.45-.41,1.73-.1,2.48.38.92-.2,1.94.5,2.76a.26.26,0,0,1-.17.39c-1.9.31-1.59,2-1.67,3.13-.1,1.41-.12,2.64-1.35,3.63-.61.5-.61,1.45-.77,2.23-.2,1-.2,2.1-1.41,2.43a2.68,2.68,0,0,1-2.81-.94c-.64-.7-1-.4-1.05.34-.13.95-.19,1.91-.25,2.87,0,.5,0,1-.75.9-.31,0-.5.22-.71.4l-3.84,3.28c-.2.17-.41.55-.68.29s0-.6.26-.79c1.08-1,2.14-1.95,3.28-2.81s2-1.76,1.8-3.29a2.62,2.62,0,0,1,.15-.82c.15-.64,0-1.47.85-1.71s1,.55,1.41.94a2.11,2.11,0,0,0,2.08.63c.83-.22.74-1,.93-1.65.86-2.88,1.7-5.76,2.68-8.59a10.55,10.55,0,0,0,.56-3.63c0-6.33,0-12.66,0-19,0-.89.28-1.85-.5-2.62-.13-.13-.12-.46-.08-.69.75-4.22.77-8.6,2.12-12.65a91.85,91.85,0,0,1,3.51-9.81c1.11-2.39,1.78-5,2.71-7.45q2.6-6.92,5.1-13.87a20.92,20.92,0,0,0,1.13-3.88,2.1,2.1,0,0,0-.23-1.71c-.39-.55,0-1.24.15-1.85a133,133,0,0,1,4.25-12.89,72.82,72.82,0,0,0,3.16-12.08c.32-1.87,1.25-3.56,1.71-5.38,1.23-4.9,2.76-9.71,4.33-14.51.21-.65.11-.91-.59-.85h-.12c-4.34.63-8.17-1.11-12.06-2.58-.94-.35-1.81-.83-2.78-1.15s-.87-.07-1,.54c-.46,2.88-.92,5.77-1.38,8.65-.75,4.74-1.52,9.48-2.23,14.23-.36,2.45-.61,4.92-.91,7.39-.06.46,0,1-.61,1.19-.34.11-.3.44-.3.72,0,3.24-.61,6.43-.92,9.65a65.23,65.23,0,0,0,0,6.85c0,.3.21.74-.2.83s-.57-.41-.58-.73c0-1.28,0-2.56-.15-3.85-.25,1.55-1.32,2.74-1.75,4.16a23.75,23.75,0,0,0-.67,3.65,42.82,42.82,0,0,1-1,4.94c-.12.45-.14,1.19-.68,1.09-.74-.14-.31-.83-.25-1.3a2,2,0,0,0,0-.29c-.76.24-.83.92-.95,1.49-.24,1.22-.42,2.45-.59,3.68-.07.53-.25,1.09.33,1.54.3.23.15.67.07,1a40.63,40.63,0,0,1-1.22,5.22c-1.22,3.06-1.54,6.27-2.27,9.39a73.57,73.57,0,0,0-1.64,9.57,2.72,2.72,0,0,1-.41,1.23c-.19.3-.12,1-.7.73-.4-.17-.24-.71-.17-1.1a3.78,3.78,0,0,0,.22-2c-.7,2.33-1.32,4.68-2.11,7-.92,2.69-1.38,5.51-2.51,8.13-.91,2.11-1.18,2.34-3.48,2.35a9.86,9.86,0,0,0-1.2,0c-.63.08-1.42.1-.79,1.11.1.17.13.41-.12.5s-.39-.08-.5-.25c-1.09-1.66-2-1-3.31-.21-2,1.22-2.23,3.16-2.52,5.16-.26,1.82-.59,3.64-.94,5.45-.07.38-.08,1.06-.68.9s-.2-.69-.14-1.06c.39-2.29.89-4.56,1.17-6.86a6.23,6.23,0,0,1,3.84-5.09c.42-.21,1-.3.53-1a16.42,16.42,0,0,1-2.59-5.24c0,1.1,0,2.2,0,3.31,0,.27,0,.64-.35.65s-.42-.33-.45-.61a7.75,7.75,0,0,1,0-1c.2-6.34-.53-12.64-.87-19-.26-4.92-.48-9.84-.61-14.76-.1-3.88-.55-7.75-.82-11.63-.21-3.07-.46-6.15-.58-9.23a55,55,0,0,0-1.35-10.95c-.8-3.25-1.07-6.6-2.05-9.8-.34-1.1-1.16-2-1.46-3.13a15,15,0,0,0-1.12-2.79,3,3,0,0,0-2.48-1.91,21.47,21.47,0,0,1-4.15-1.51c-.85-.31-1.56-1-2.58-.86-.14,0-.33-.2-.48-.32-4.51-3.68-7.29-8.43-9.27-13.89-1.73-4.76-2.53-9.66-3.44-14.57a50.52,50.52,0,0,1-.68-10.53,7.23,7.23,0,0,1,1.69-4.91c2.11-2.19,3.73-4.82,6.09-6.78.58-.48,1.19-.94,1.78-1.42a2.77,2.77,0,0,0,.94-3.41c-.92-2.33-2.55-4.26-3.79-6.4a36.06,36.06,0,0,1-3-5.21,16.93,16.93,0,0,1-.79-7.93c.68-6.43,5.22-9.44,10.46-11.84a1.91,1.91,0,0,1,.92-.25c3.15.35,3.71-2.22,4.7-4.2,1.41-2.8,1-5.69.1-8.55-.1-.33-.36-.63-.17-1.08.73.1.9.71,1.09,1.24a11.56,11.56,0,0,1-1.33,10.76c-.18.28-.58.59-.3.94s.67.12,1,.07c.59-.09.92-1.13,1.76-.49a2,2,0,0,0,.39-.93,18,18,0,0,1,1.82-6.68,3.52,3.52,0,0,0-.29-3.63,44.2,44.2,0,0,1-2.71-5.48,16.27,16.27,0,0,0-3.29-4.7,2,2,0,0,0-1.21-.74c-3.28-.33-4.34-2.89-4.8-5.42-.9-5-1.41-10,.62-14.92.16-.39.19-1,.77-.85s.37.77.26,1.16a29.57,29.57,0,0,0-.73,7.87,22.91,22.91,0,0,0,.45,4.18,3.71,3.71,0,0,0,2.64,3.13c5.85,1.69,9.41,5.63,11.35,11.2a2.3,2.3,0,0,0-.17-3.1c-1.1-1.47-2.53-2.72-3.34-4.39-1.47-3-.86-5.93.82-8.67a12.33,12.33,0,0,1,1.8-2.25c.55-.55.46-.85-.06-1.34a21.89,21.89,0,0,0-2.61-2.12c-.4-.28-1.12-.52-.75-1.15a1.22,1.22,0,0,1,1.69-.41,36.93,36.93,0,0,1,3.3,1.94.81.81,0,0,0,1.3-.18c.67-.8,1.34-1.59,2-2.36a1,1,0,0,0-.09-1.66,4.11,4.11,0,0,0-2-1.24c-.37-.06-.91-.17-.71-.72s.57-.3.93-.15c1.35.54,2.86.29,4.21.83a.4.4,0,0,0,.53-.14c1.05-1.85,2.8-3.39,2.57-5.8a3,3,0,0,0-.14-.94,23.46,23.46,0,0,0-2.21-4.5c-1.18-1.56-2.19-3.32-4-4.4-1.42-.85-1.94-3.76-1-5.78a34.73,34.73,0,0,1,7.78-11c.28-.27.66-.63,1.05-.33s.07.77-.13,1.06a24.33,24.33,0,0,0-3.24,8.1,17.62,17.62,0,0,0-.68,6.42,7.11,7.11,0,0,0,2.57,5.09c2.95,2.16,4.53,4.92,3.59,8.69a1.52,1.52,0,0,0,.27,1.13,13.49,13.49,0,0,1,1.13,7.51,5.3,5.3,0,0,1-1.12,2.63c1.43-.82,4.27-4.73,4.38-6.06a4.67,4.67,0,0,0-.73-2.87,54.71,54.71,0,0,1-2.82-5.17,1.8,1.8,0,0,1-.34-1.18c.76.11,1,.65,1.31,1.16.85,1.54,1.65,3.12,2.54,4.64a4.92,4.92,0,0,1,0,5.34c-.5.86-.94,1.77-1.43,2.64-.32.56-.55,1.12-1.38,1.33A1.93,1.93,0,0,0,187,64.64a20.71,20.71,0,0,1-.33,4.07c.83-.18.88-.76,1-1.22a5.6,5.6,0,0,1,.78-1.62c.12-.15.29-.36.48-.19s0,.35.09.9A38.45,38.45,0,0,1,192,61.06a10.18,10.18,0,0,0,.19-9,3.56,3.56,0,0,0-1.14-1.53c-2-1.52-3.28-3.84-5.26-5.43-.3-.24-.61-.67-.26-1s.63.08.91.27a13.64,13.64,0,0,1,2.38,2.36,27.68,27.68,0,0,0,2.9,3c1.66,1.4,2.18,3.4,2.43,5.45.36,3-.76,5.61-2.42,8.09-1.09,1.63-2.46,3.27-2.14,5.46.3,2,.38,4.2,2.24,5.64.07.05.06.21.09.33-1.7-.37-1.91-.79-3.1-6.3-.64.16-.7.71-.78,1.21a11.25,11.25,0,0,0,.55,5.21c.23.73.68.86,1.39.72,2.47-.5,3.36,0,4.62,2.1,1.51,2.57,2.95,5.15,2.73,8.31a14.07,14.07,0,0,1-.36,2.49,10.7,10.7,0,0,0-.19,4.28,53.72,53.72,0,0,0,2.1,8c.09.29.14.71.49.78s.5-.36.65-.61a7.71,7.71,0,0,0,.87-5.68,16.56,16.56,0,0,1-.26-5.36c.24-2.51.29-5,.37-7.55.08-2.3,1.21-4.27,1.29-6.7.86.63.21,1.53.9,2a42.61,42.61,0,0,1,3.3-4.64,17.44,17.44,0,0,1,8.35-6c2.82-1,5.5-2.47,8.52-2.88,2.69-.36,5.41-.53,8.11-.88a44.4,44.4,0,0,1,6.59-.37,9.41,9.41,0,0,1,4.28,1,8.81,8.81,0,0,0,5.22.92,13.55,13.55,0,0,1,7.35,1.36,3.8,3.8,0,0,1,1.5,1.52A5.92,5.92,0,0,0,259.16,70a8.87,8.87,0,0,1,4.26,4.08,16.25,16.25,0,0,0,4.25,4.85,10.78,10.78,0,0,1,3.14,3.74c1.12,2.22,2.6,4.23,3.92,6.33.62,1,1.32,1.77,1.22,3-.05.71.41.46.8.29a7.27,7.27,0,0,1,4.46-.53A2.79,2.79,0,0,1,283,95.43a1.41,1.41,0,0,1-1.11.82,8.72,8.72,0,0,0-5.63,3.07c-1,1.19-.24,2.37-.48,3.53-.08.39.48.21.77.15,1.84-.35,3.13-1.73,4.7-2.58a10.66,10.66,0,0,1,3.73-1.57,1.91,1.91,0,0,0,1.42-1c1.6-2.76,4.43-3.25,7.15-3.81,2.1-.44,4.26-.59,6.39-.82a4.38,4.38,0,0,1,3.44.58,1.24,1.24,0,0,0,.79.19A1.78,1.78,0,0,1,306,95Zm-99.68,68.28c-1.2-1.85-2.4-3.69-3.59-5.54a.84.84,0,0,0-1.12-.39c-.22.07-.52.1-.61-.19s.18-.4.41-.48c2.14-.73,3-2.85,4.69-4.14a1.59,1.59,0,0,0,.33-.63c.06-.14.17-.41,0-.4-1.32.05-.48-.81-.4-1.11a19.51,19.51,0,0,0-1.74-15.56c-.15-.27-.36-.55-.09-.94.54.19.72.7,1,1.13a19.7,19.7,0,0,1,2.27,12.88c-.31,1.83-.26,1.82,1.55,2.36.64.19.9.09,1.07-.62a22,22,0,0,0-1-13.45c-1.43-3.57-3-7.1-4.42-10.66a46.8,46.8,0,0,1-2.39-7.3c-1-4.25-1.9-8.52-3-12.74-.11-.44-.07-1.18-.9-1s-.56.77-.48,1.28a109,109,0,0,0,1.83,11.62c1.33,5.23,2.07,10.71,5.73,15.07-.46.38-.8-.1-1.28-.18-.05.29.35.78-.22.86s-.61-.29-.79-.62c-1-1.86-1.9-3.79-2.79-5.72A101.58,101.58,0,0,1,196,116.09c-1-3.24-.95-6.73-2.12-10a7,7,0,0,1-.22-1.29c.82.12.52,1,.84,1.31.31-3.05-.34-6.11-.48-9.2.08,1.43-.22,2.83-.27,4.26,0,1.21.5,2.45-.09,3.63a3.34,3.34,0,0,0-.12,1.66c.12,2.48.39,5,.34,7.44-.09,5,1.41,9.65,2.85,14.3a42.75,42.75,0,0,0,2.74,6.14,15.82,15.82,0,0,1,1.95,8.08c-.07,1.2,0,2.41,0,3.61-.14,2.36-.34,4.71-.54,7.07,0,.4,0,1-.67.9s-.33-.62-.28-1c.22-1.83.54-3.66.6-5.49a42.49,42.49,0,0,0-.17-9.11,21.82,21.82,0,0,0-1.77-4.32,67,67,0,0,1-3.08-7.3,66.18,66.18,0,0,1-2.5-13.9A129.52,129.52,0,0,1,193.38,94c.22-2.81.45-5.62-.35-8.34-.65-2.22-1.64-4.23-4.38-4.7-1.85-.32-2.45-.21-3.47,1.37a2.54,2.54,0,0,0-.15,2c.13.7.75.18,1.11.33s.58.27.88.38c1.18.41,1.42,1.69,2.21,2.4a8,8,0,0,1,2.32,5c.32,1.8-.17,3.59,0,5.39.34,4.17-.75,8.21-1.33,12.28a34.9,34.9,0,0,0-.23,9.43,52.87,52.87,0,0,0,5.41,17,25.28,25.28,0,0,1,2.23,8.17,48.83,48.83,0,0,1,0,8.63,19.49,19.49,0,0,1-2.25,8.76c-.13.23-.18.65-.54.5s-.21-.54-.08-.82a17.2,17.2,0,0,0,1.31-3.08,43.61,43.61,0,0,0,.89-14,16.37,16.37,0,0,0-1.54-6.51,61.89,61.89,0,0,1-4.55-11.48,30.51,30.51,0,0,1-1.8-9.52c.08-4.58-.17-9.18,1.13-13.7,1-3.46.48-7.09.55-10.65a5.08,5.08,0,0,0-1.12-3.21c0,1.56,0,3,0,4.35a11.46,11.46,0,0,1-.32,3.22,21.53,21.53,0,0,0-.72,9.37,1.44,1.44,0,0,1,0,.7,13.41,13.41,0,0,0-.53,6.13c.15,2,.42,4,.6,6a73.46,73.46,0,0,0,1.7,10.78c1.06,4.31,2.51,8.55,3.37,12.9a51.82,51.82,0,0,1,.82,14,10.72,10.72,0,0,1-.28,3.1c-.11.29-.18.74-.56.67s-.16-.51-.14-.78a66.44,66.44,0,0,0,.23-8.62,6.77,6.77,0,0,0-.76,2.35,35.08,35.08,0,0,0-.46,7.42c0,.32.12.71-.31.79s-.35-.27-.34-.5c.1-3.65-.57-7.41,1.52-10.78a1.33,1.33,0,0,0,.16-.81c-.3-2.38-.13-4.78-.71-7.15-1.3-5.29-3.12-10.44-4-15.83a101.71,101.71,0,0,1-1.57-12.61,26.71,26.71,0,0,0-2.3-10.6c-1.78-3.74-2.31-7.82-2.67-11.89-.34-3.9-.54-7.81-.8-11.72a9.55,9.55,0,0,0-.13,1c-.83,5.43-.31,10.86.05,16.29a19.49,19.49,0,0,0,2.6,9.17,12.18,12.18,0,0,1,1.18,3.51c1.43,5.91,1.64,12,2.83,18,.91,4.54,1.7,9.11,2.65,13.65.64,3.06,1.15,6.14,1.69,9.22.07.41.22.95-.21,1.23s-.4-.59-.88-.52a32.93,32.93,0,0,0-.75,8.72c0,.59.66,1.64-.29,1.7-.77.05-.68-1.1-.71-1.79a32.73,32.73,0,0,1,1.32-11,3.65,3.65,0,0,0,0-1.78c-.45-2.32-.85-4.64-1.36-6.95-.88-4-1.37-8.13-2.2-12.15-.89-4.32-1.15-8.71-1.88-13-.68-4-1.3-8.05-3.7-11.44a34.27,34.27,0,0,1-4.48-9.36,8,8,0,0,1-.22-4.49c.16-.66.32-1.32.44-2a6,6,0,0,0,.34-2c-1.71,2.27-2.93,4.53-2.59,7.29.12,1,.14,1.91.23,2.87.34,3.68,1.38,7,4.47,9.44a9,9,0,0,1,2,2.24c1.77,2.74,1.74,5.85,1.91,8.92a12.22,12.22,0,0,0,.12,2.87c1.38,4.65,1.79,9.51,3,14.21a67.76,67.76,0,0,1,1.68,11.51,33.89,33.89,0,0,1,.06,7.08,1.73,1.73,0,0,1-.85,1.54c.73-5.68,0-11.09-1-16.48s-2.1-10.74-3.16-16.11a46,46,0,0,0,.31,15c.93,4.91,1.81,9.83,3.9,14.68a3.14,3.14,0,0,1-1.92-2.21,48.83,48.83,0,0,1-1.45-5.21c-1.53-6.21-2.61-12.47-2.2-18.91,0-.45,0-.91,0-1.37a39.24,39.24,0,0,1-2.3,5.17,2.44,2.44,0,0,0-.27,1.52c.35,2.33.31,4.71.83,7a99.2,99.2,0,0,0,3,12.36,32.86,32.86,0,0,1,1.9,13.09,1.63,1.63,0,0,1-.81,1.57c-.25-.2-.2-.39-.16-.59a24.4,24.4,0,0,0-.12-8.12c-.58-3.53-2.1-6.81-2.81-10.31-.79-3.88-2.07-7.66-2.27-11.66,0-.84-.2-1.66-.3-2.5-.59,1.09-1.66,2-1.26,3.3,1.29,4.3,2,8.73,3,13.1a2.68,2.68,0,0,1,.07,2.1c-1.44-4.78-2.3-9.68-3.76-14.52-.49.45-.76.83-.62,1.42a83,83,0,0,0,4.3,14.18c.15-.12,0-.54.35-.51s.25.35.3.58c.44,2.4.5,4.86,1.13,7.23a30.74,30.74,0,0,1,1,4.95c0,.43.21.94-.38,1.27-.71-3.3-1.3-6.57-2.13-9.77-1.38-5.28-3.65-10.25-5.46-15.39-.11-.3-.11-.88-.56-.75s-.28.68-.2,1.06c.28,1.29.58,2.58.86,3.86a149.91,149.91,0,0,0,4.58,16.92c.3.88.86,1.7.6,2.73-3.21-7.34-5-15.12-6.85-23.07a3.65,3.65,0,0,0-1,2.51,26.68,26.68,0,0,0,1.48,7.16c1.56,5,3,9.95,5.68,14.48,0,.07-.05.2-.1.38a4.2,4.2,0,0,1-2-2.5c-.89-2.62-2.11-5.11-3-7.73a79.74,79.74,0,0,1-3.33-10.89c-1.35,3.79.49,7.28,1.13,10.86a29.07,29.07,0,0,0,4.39,10.58,2.3,2.3,0,0,1-1.75-1.43,34.82,34.82,0,0,1-3.81-10.33,8.74,8.74,0,0,0-.8-2.77,21,21,0,0,0,0,2.67,49.89,49.89,0,0,0,3.54,13.68c.22.49,1.06,1.26.31,1.61-.57.27-.81-.81-1.07-1.35a47.45,47.45,0,0,1-3.72-13.75,51.08,51.08,0,0,1-.23-6.29,2,2,0,0,0-.62,1.85A66.09,66.09,0,0,0,171,160.6a36.16,36.16,0,0,0,3.07,8.83c.14.27.68.59.22.88s-.59-.28-.8-.55a3.11,3.11,0,0,1-.36-.62,39.55,39.55,0,0,1-2.9-8.26,81.43,81.43,0,0,1-2.06-12.46c-1.84,1.58-2.05,3.7-1.84,5.69a37.93,37.93,0,0,0,5.8,16.38c.25.4.75.73.43,1.37-4.34-5.45-6.41-11.82-7.28-18.9a16,16,0,0,0-1,4.12c-.49,3.81.82,7.09,2.52,10.29.56,1.06,1.66,1.91,1.94,3,.49,1.87,1.86,2.54,3.31,3.26.17.08.42.05.45.31s-.19.44-.41.52c-.47.18-1.08.26-1.34-.18-.88-1.51-2.5-2.37-3.29-3.94-1-2.08-2.2-4.09-3.09-6.23a15.4,15.4,0,0,1-.55-8.85c.43-2.32,1.76-4.27,3-6.24.68-1.07,1.61-2,1.61-3.42,0-.22.08-.58.34-.58,1.4,0,1.15-1,1.17-1.82,0-.3-.07-.88.3-.72,1,.41,1-.39,1.24-.82.88-1.31,1.68-2.69,2.63-4,2-2.62,3-5.71,4.59-8.54a2,2,0,0,0,.14-1.17c0-.28,0-.66.37-.6.62.09.62-.4.79-.71a28.27,28.27,0,0,0,2.09-6,18.8,18.8,0,0,0,.31-10.09,9.92,9.92,0,0,0-3.31-5.05c-.3.4.06,1-.71,1.29a7.71,7.71,0,0,0-1.26-3.31c-2.46-3.74-2.68-8-2.61-12.26a47.05,47.05,0,0,1,.78-8.11c.07-.38.17-.94-.32-1s-.44.48-.51.81a41.85,41.85,0,0,0-.88,4.67c-.36,3.38-1,6.7-.59,10.13a16.56,16.56,0,0,0,1.43,4.89c.93,2.15,2.67,3.77,3.67,5.86a12.27,12.27,0,0,1,1.18,2.87,23.4,23.4,0,0,1-.47,11.26,30.11,30.11,0,0,1-2.38,6.49c-1.38,2.48-2.68,5-4,7.52-1.4,2.68-3.61,4.56-5.55,6.73-.18.2-.48.42-.74.23s0-.53.1-.74a10.6,10.6,0,0,1,1.23-1.63,28.36,28.36,0,0,0,6.09-8.68c.73-1.63,1.42-3.28,2.14-4.92a63.47,63.47,0,0,0,2.74-8.56,12.17,12.17,0,0,0,.15-4.52.91.91,0,0,0-.49.78c-1.25,6.13-4,11.66-7.06,17-1.22,2.11-2.72,4.05-3.82,6.25-.79,1.57-1.8,3-2.58,4.61a18,18,0,0,0-1.88,5,15.21,15.21,0,0,1,2-3.15,1.82,1.82,0,0,1-.35,1.45c-.84,1.69-1.63,3.39-2.36,5.13-.29.7.09,1.57-.43,2.07a2.75,2.75,0,0,0-.66,2.2,20.67,20.67,0,0,0,.23,2.75,26.44,26.44,0,0,0,7.15,15.51,3.7,3.7,0,0,1,.93,1.24c.08.25.32.55,0,.76s-.52,0-.76-.19a7.36,7.36,0,0,1-1.76-2.26c-2-3-4-6.07-5.14-9.6-.52-1.68-.93-3.39-1.5-5.06a14.9,14.9,0,0,1-.95-2.57,21.07,21.07,0,0,1,0-4.9,24.4,24.4,0,0,1,2.78-9.14c2-3.89,4.43-7.52,6.51-11.36,2.43-4.49,4.74-9,5.93-14a17.89,17.89,0,0,0,0-9.27c-.75-2.5-1.09-5.07-1.82-7.56a21.29,21.29,0,0,1-.58-8.44,38.71,38.71,0,0,1,1-4.23,37,37,0,0,0-3.19,8.71,4.34,4.34,0,0,0,0,1.91,56.69,56.69,0,0,0,2.53,9.45c1.26,3.45.84,6.74-.14,10.21-1.57,5.54-5.48,9.63-8.31,14.39-1.27,2.13-2.95,4.08-3.72,6.43-2.15,6.6-3.45,13.3-2.34,20.32a44.41,44.41,0,0,0,3.57,10.92,24.48,24.48,0,0,0,2.29,3.5c.28-.41-.41-1,.35-1.18.47,1.11.94,2.21,1.4,3.31.26.63-.06.83-.63.75a4.77,4.77,0,0,1-.89-.34,34.15,34.15,0,0,0,1.58,6.67c.58,1.95,1.28,4.2,3.56,5.15a.55.55,0,0,1,.26.38c.13.92.8,1,1.43.78s.87.05,1,.59a3.08,3.08,0,0,0,2.26,2.27c.58.16,1.1.5,1.67.68,2.94.93,5.57,2.9,8.87,2.65a1,1,0,0,1,.75.3c1,1.61,2.79,2.37,4.11,3.66.66.65.72,2.5,2.45,1.77,0,0,.19.23.27.37a1.16,1.16,0,0,0,.63.52,9.12,9.12,0,0,0,6.53-.28,27.06,27.06,0,0,0,5.73-2.69,3.33,3.33,0,0,0,1.63-2.32c.56-3,1-6,1.34-9,.38-3.31,1.29-6.6,1.7-9.93.3-2.51,1.34-5,.72-7.55a.74.74,0,0,1,.29-.76,2.75,2.75,0,0,0,1.05-2.17,10.23,10.23,0,0,1,.76-2.23c.82-2.12,2-4.33-.24-6.37-.32.15-.33.93-.83.6s-.07-.75.14-1.06a1,1,0,0,0-.06-1.32c-.87-1.3-1.73-2.61-2.58-3.91a1.76,1.76,0,0,0-1-.67c-.46-.16-.7,0-.69.48,0,1-.54,2.13.49,3,.25.22.44.68,0,.93s-.54-.21-.74-.44-.19-.26-.29-.38-.47-.48-.82-.22-.64.38-.66.8a5.14,5.14,0,0,0,2,2.75,1.93,1.93,0,0,1,1.63,1.83,2.3,2.3,0,0,0,.91,1.63c.19.15.39.34.64.23s.28-.47.24-.73c-.08-.51-.21-1-.31-1.53,0-.2-.09-.42.12-.53s.4.06.49.23a3.63,3.63,0,0,1,.47,2.77,1,1,0,0,1-1.53.63,3.2,3.2,0,0,1-1.85-2.63c0-.43-.26-1.16-.68-.84-1.1.83-1.1-.2-1.38-.68-.39-.65-.69-1.36-1-2-.1-.21-.17-.48-.48-.46-.64,0-1.44,1.63-1.06,2.18,1.41,2,2.56,4.17,4.16,6,.17.2.47.36.26.76-.56.05-.74-.49-1.1-.75ZM265,125c-.14-.54.87-.76.55-1-.88-.67-.17-1.24,0-1.77.66-2.23,1.79-4.25,2.1-6.67a14.79,14.79,0,0,1,1.42-4.94c1.33-2.54,2.15-5.35,3.62-7.84.17-.29.33-.8.76-.53s0,.58-.17.84c-.29.57-.63,1.12-.92,1.69s-.53,1.15-.79,1.73l.3.14c.84-1.52,2.27-2.86,2.35-4.62.07-1.44.3-2.84.46-4.25s0-2.68.23-3.89c.32-1.67.49-2.86-.7-4.43a43.36,43.36,0,0,1-4-6.43,9.38,9.38,0,0,0-2.79-3.41,18.69,18.69,0,0,1-5.07-5.87,7,7,0,0,0-3.32-3A6.68,6.68,0,0,1,256,68.12a5.18,5.18,0,0,0-3.29-2.21,21.22,21.22,0,0,0-6.2-.49,8.35,8.35,0,0,1-4.29-1,11.12,11.12,0,0,0-5.6-1,85.94,85.94,0,0,0-9,.89,35,35,0,0,0-5.59.67,73.8,73.8,0,0,0-9.85,3.82,10.46,10.46,0,0,0-3.72,2.8c-1,1.13-1.95,2.24-2.82,3.43a14.77,14.77,0,0,0-3.25,6.88c-.13,1,.24,2.07,0,3.11-.45,2.25.12,4.46.2,6.69.13,3.74.84,7.58-1.55,10.94-1,1.39-.6,2.61.16,3.88,2.55,4.29,6.28,7.47,10.26,10.26a24.73,24.73,0,0,1,6.59,6.88c2.62,4,4.32,8.31,4,13.23-.09,1.32-.12,2.64-.27,4-.45,4.12-1,8.19-3.67,11.64-1,1.31-2.26,2.38-3.31,3.64a3.26,3.26,0,0,0,.47,4.36,1.46,1.46,0,0,1,.62,1.76c-.39,1.43-.71,2.88-1.06,4.32s-.26,1.44,1.11,1.5c.91,0,1.89-.11,2.56.72a7.94,7.94,0,0,0,4.67,2.45,23.57,23.57,0,0,0,8.1.5c.55-.06,1-.3.87-.88s.45-1.91-.78-2.13a37.18,37.18,0,0,1-6.84-2.24,4.56,4.56,0,0,0-3.13-.46c-.39.12-1.06.1-1.07-.45s.65-.62,1.12-.56a13.57,13.57,0,0,1,3.95,1,31.21,31.21,0,0,0,5.91,2,2.54,2.54,0,0,0,3.06-1c.37-.56.49-1-.4-1.2a13,13,0,0,1-3.44-1c-.26-.14-.75-.21-.6-.6s.61-.21.94-.08a18.48,18.48,0,0,0,4.15,1.18c.61.1,1.39.65,1.81.18s-.21-1.24-.44-1.85c-.45-1.19-.16-1.86,1-2a1.66,1.66,0,0,0,1.6-1.49,11.12,11.12,0,0,0,.12-4.19,4.66,4.66,0,0,0-1.62-3c-3.11-2.47-4.92-5.87-6.66-9.31-.16-.32-.58-.82-.11-1.05s.62.38.77.72a31.38,31.38,0,0,0,3.23,5.62,7.92,7.92,0,0,0,2.64,2.77c-.35-1.27-.59-2.31-.92-3.32-.46-1.41-1-2.79-1.47-4.2-.09-.28-.4-.86.13-.86.74,0,.5-.44.39-.68-.67-1.47-.28-3-.27-4.49,0-1.77.31-3.57-.36-5.31a20,20,0,0,1-1-4.19c-.09-.62-.63-1.64.09-1.79s.65,1,.83,1.59a13.1,13.1,0,0,0,1.14,3.68c.55-1.14,1-2.15,1.52-3.15.72-1.53.83-3-.47-4.31a16,16,0,0,0-3-2.72c-1.63-1-1.59-1.06-1.86.83,0,.26,0,.66-.34.66s-.45-.4-.38-.64a5,5,0,0,0-1.17-4.5.64.64,0,0,1-.08-.23,91.64,91.64,0,0,1-2.72-15.09c0-.19,0-.55.21-.43.63.45.56-.27.82-.41.92-.52,1.24-1.69,2.27-2.09.31-.12.6-.27.89,0a.73.73,0,0,1,.06.89,9.18,9.18,0,0,1-1.35,2,3.76,3.76,0,0,0-.81,2.81c.15,1.35.31,2.7.44,4.06.25,2.54,1.36,4.81,2.12,7.53.19-.5.28-.67.32-.84.7-3,1.39-6.09,2.1-9.13.09-.38-.06-1.1.55-1s.12.66.07,1c-.33,2.71-1.22,5.3-1.75,8s-.5,3.09,2,4.54a12.07,12.07,0,0,1,4.36,4.52,3.82,3.82,0,0,1,.21,3.76c-.65,1.47-1.15,3-1.71,4.52,1.51-1.53,3.1-2.86,4.66-4.22.74-.64,1.25-1.92,2.64-1.18.08,0,.29-.11.42-.2a18.05,18.05,0,0,1,7-3c2.28-.39,4.55-.69,6.66.86a14.88,14.88,0,0,0,3.56,1.71A1.38,1.38,0,0,0,265,126c.14-.26.47-.41.7-.63.07-.07.08-.19.12-.28C265.56,124.85,265.28,125.28,265,125Zm-74.9,77.51c.1-.5-.27-.72-.53-1-1.13-1.36-2.72-2.22-3.82-3.63a3.46,3.46,0,0,0-2.25-1.18c-1.05-.19-2.24.26-3.14-.45a15,15,0,0,0-2.87-1.48c-.43-.21-3.23,1.6-3.24,2.07,0,.16.08.31.09.47a57.42,57.42,0,0,0,1.47,7.53,87.34,87.34,0,0,1,1.69,13.5c.2,4.08.19,8.17.54,12.24.6,7.15.85,14.31,1.27,21.47a97.54,97.54,0,0,0,1.7,15.36c.49,2.22,1.44,4.22,2.12,6.33s2,2.4,3.84,2.17c.73-.09,1.59.28,2.11-.51.69-1,1.46-2.2,1.31-3.41A4.42,4.42,0,0,1,191,269c.55-.93.1-1.17-.69-1.2a3.49,3.49,0,0,0-3.25,1.44c-.16.23-.32.51-.66.35a.46.46,0,0,1-.22-.38c.39-1.88-.75-3.28-1.49-4.8-.16-.33-.49-.67-.1-1.06,1.4.76,1.28,2.41,2.11,3.48.21.27.28.8.74.61s1-.16,1.09-.86c-.44,0-.64.73-1.07.22a6.48,6.48,0,0,1-1.62-3.15c.78.21.61,1.09,1.45,1.2-.41-.75-.76-1.37-1.07-2-.09-.19-.35-.43-.08-.63a.63.63,0,0,1,.77.12c.35.29.45.85,1,1,.2-.41-.48-.69-.13-1.11.53,0,.59.47.79.78.48.74.91,1.51,1.39,2.24.12.18.33.42.59.2s.08-.38,0-.54-.36-.53-.54-.79a12.75,12.75,0,0,1-1.56-2.82c.95.5,1.14,1.31,1.81,2,.53-2.15.11-4.1,0-6.31-.12.47-.22.74-.51.66s-.38-.48-.39-.8a47.18,47.18,0,0,0-.2-5.51c0-.06.14-.14.3-.29l.55,1.42c.2-2.74-.2-5.42-.21-8.1,0-.33-.25-.81.23-.94s.26.6.72.9a31.49,31.49,0,0,1,.54-6,15.91,15.91,0,0,0-.65-9,5.19,5.19,0,0,1-.13-3.87,6.52,6.52,0,0,0,.23-3.45,25.37,25.37,0,0,1-.18-4.43c0-.75.11-1.48,0-2.25-.1-1.24-.74-2.36-.85-3.46-.3-3.16-1.07-6.23-1.51-9.36a1.58,1.58,0,0,1,.25-1.53c.59,1,.37,2.17.8,3.14a4.92,4.92,0,0,0,0-1.21c0-.35-.28-.76.14-1S189.79,202.42,190.15,202.52Zm1.77,64c.23-.52.35-.72.42-.94.72-2.33,1.43-4.67,2.16-7,.11-.34.22-.89.43-.94.92-.22.86-1,1-1.59,1-6.21,2.5-12.31,3.35-18.54.43-3.17,1.19-6.28,1.64-9.45s.77-6.46,2.79-9.2a2.89,2.89,0,0,0,.3-.9c1.69-5.76,1.38-11.73,1.87-17.61.06-.7-.16-.87-.82-.56-1.7.79-3.55,1.23-5.21,2.16a5.53,5.53,0,0,1-2.31.59c-1.12.08-2.23.16-3.34.31a5.27,5.27,0,0,0-1.77.54c-.1.05.27.85.3,1.31a16,16,0,0,1,0,2.28c-.29,4.31-.32,8.64-1,12.92-.28,1.83,0,3.69-.48,5.5a7.45,7.45,0,0,0,.21,4.49,13.78,13.78,0,0,1,.63,6.52,110.47,110.47,0,0,0-1.14,17.44C191.09,258,191.34,262.1,191.91,266.56Zm9.35-157.91c.52,2.67,1.15,5.07,2.66,7a54.18,54.18,0,0,1,5.26,7.74c.67,1.23,1.07,2.63,2.11,3.62A19.53,19.53,0,0,1,214,131a9.52,9.52,0,0,1,1.11,3.36,50,50,0,0,1,.37,10.28,15.17,15.17,0,0,1-.33,2.14c0,.19-.12.42-.37.4s-.21-.25-.22-.44a17.66,17.66,0,0,1,0-1.88c.1-3.18.57-6.39-.38-9.54a35.84,35.84,0,0,0-5.67-10.79,60,60,0,0,1-4.5-6.82,40.36,40.36,0,0,1-2.72-6.2,50,50,0,0,0,5.24,14.69c-.83-.08-1-.78-1.52-1,1.26,2.7,2.4,5.31,3.68,7.84,2.41,4.73,3.88,9.63,3.32,15-.13,1.25-.5,2.43-.71,3.65a2.48,2.48,0,0,0,.72,2.64,20.76,20.76,0,0,1,3.47-6.84c1.53-2.12,2-4.61,2.59-7,.13-.51-.06-1.45.56-1.35s.33,1,.2,1.57a20.88,20.88,0,0,1-3.69,8.65,13.82,13.82,0,0,0-2.43,5.33c-.1.38-.23.87.16,1.11s.62-.26.83-.5c3.37-3.8,6.28-7.83,6.1-13.27a7.46,7.46,0,0,1,.11-1c.25-2.58.91-5.11.38-7.76a21.67,21.67,0,0,0-2.34-6.14c-1.93-3.54-3.94-7-7.63-9.06a20.41,20.41,0,0,1-4.2-3.76C204.48,112.6,203.37,110.41,201.26,108.65Zm-39.82,20.93a4.23,4.23,0,0,0-1.42,1.52c-.8,1-1.25,2.27-2.06,3.31s-1.62,1.57-2.26,2.47a24.49,24.49,0,0,0-3.42,8c-.34,1.28-.61,2.57-.91,3.86a16.23,16.23,0,0,0-.1,6.3c.88,5.49,3.27,10.53,4.83,15.81.2.67,0,1.79,1.21,1.87a.65.65,0,0,1,.07.44c-.65,1.77.25,3.38.52,5.05.79,5,5.17,6.41,8.49,8.91a3.3,3.3,0,0,0-.79-1.33,10.16,10.16,0,0,1-3.3-5.84c-.36-2.19-1.12-4.36-.34-6.61.17-.48-.16-.84-.4-1.2a32.26,32.26,0,0,1-5-15.61,37.45,37.45,0,0,1,.7-10.64c.67-3.09,1.17-6.24,2.68-9.07a53.38,53.38,0,0,1,3.36-5.41,14.92,14.92,0,0,0,2.3-4.33c.62-2.15.95-4.38,1.72-6.5a12.65,12.65,0,0,0,.46-5.46,37.29,37.29,0,0,1,.29-11c.08-.38.33-.82-.1-1.16-.1.06-.15.07-.17.09a20.59,20.59,0,0,0-1.45,15.35,1.48,1.48,0,0,1,0,.94c-.82,2.17-1,4.54-2.23,6.58-1.42,2.37-2.69,4.83-4.12,7.19a86.35,86.35,0,0,0-5.45,10.66c-1.62,3.77-1.6,7.62-1.31,11.55,0,.35.46.87-.15,1-.36.07-.41-.5-.5-.84-.71-2.72-.26-5.46.21-8.1.8-4.46,3.1-8.37,5.32-12.27C159.22,133.26,160.35,131.43,161.44,129.58ZM284,99.93a2.59,2.59,0,0,0-1.49.54c-2.11,1.25-4,2.77-6,4.15-1.32.91-2.08,1.94-1.74,3.58,0,0-.1.1-.17.16-.26-.07-.33-.3-.46-.49-.28-.38-1.67-.55-1.88-.23a13.74,13.74,0,0,0-.91,1.68c-.25.55-.08.69.54.55,2.43-.51,4.69-1.27,6.34-3.29a2.75,2.75,0,0,1,1.32-1c.94-.21,1.32-.91,1.87-1.52s.8-1.38,1.7-1.6c.2.43-.05.67-.23.92a18.52,18.52,0,0,1-2.11,2.76c-2.66,2.45-5.23,5.14-9.29,5.07-.66,0-1.12.27-1,1,.43,2.2-1.1,4.14-.75,6.39.14.88-.66,1.93-1.08,2.88-.16.37-.29,1-.84.82s-.25-.75-.14-1.16l1.62-6.21c-1.06,2.26-1.91,4.58-2.83,6.88-.38.94-.5,1.67.85,1.8-.82,1-1,2.17-.38,2.22,1.46.11,3,.9,4.37.23a11.65,11.65,0,0,0,4.69-3.44,43.6,43.6,0,0,0,7.39-15c.28-1.09.37-2.33,1.64-2.88,0,0,0-.08,0-.21-1.11.32-1.09-.22-.83-1a16.47,16.47,0,0,0,1-3.2c-.63.25-.79,1.3-1.45.92S284.08,100.5,284,99.93Zm-72.3,181.32a70.58,70.58,0,0,0-5.23-6.44c-.26,1-.18,2.09-1.77,1.9,1.39,1.89,2.05,4,3.37,5.63.16.21.49.43.2.71s-.64,0-.82-.21c-.43-.62-.82-1.28-1.2-1.93a19.73,19.73,0,0,0-2-3.27,41.31,41.31,0,0,1,.22,6.88,1.3,1.3,0,0,0,.39,1.09.67.67,0,0,1,0,1c-1.25,1.1-.12,2.24-.19,3.41a2,2,0,0,1,2.07-.63c.74.1,1.65.4,2.29-.28,1.2-1.27,2.28-2.62,1.81-4.59a5,5,0,0,1,0-1.68c.05-.44,0-1,.63-1.19.38.72,0,1.37,0,2,0,.22-.11.54.22.6a.76.76,0,0,0,.53-.2c.68-.56,1.32-1.17,2-1.72a2,2,0,0,0,.52-2.85c-.35-.58-.57-1.24-.87-1.85-.93-1.85-1.73-3.78-3.45-5.12a15.81,15.81,0,0,1-4.64-5.7c-.09-.18-.2-.37-.45-.33s-.31.33-.35.56a38.34,38.34,0,0,0-.72,7,2.67,2.67,0,0,0,.17.94c.14.36.35.88.82.64s.37-.74.06-1.13c-.19-.23-.63-.57-.14-.71.94-.27.43-.69.26-1.13-.1-.24-.33-.55,0-.73s.53.1.67.35a10.49,10.49,0,0,0,2.66,3.55c1.13.87,1.82,2.31,2.7,3.5A1.53,1.53,0,0,1,211.72,281.25ZM305,96c0-.37,0-.73-.42-.91a2.3,2.3,0,0,0-2.2.85c-.08.2-.18.47-.34.35-.63-.48-1.39-.12-2.12-.51-1.65-.89-3.64-.55-5.46-.88,0,0-.08,0-.11,0-1.62.59-3.29,1.06-4.83,1.81-2,1-3.4,2.4-3.18,4.88a6.92,6.92,0,0,1-.31,2.73,1.38,1.38,0,0,0,.17,1.36c.82,1.13,1.59,2.31,2.37,3.47s1,1.2,2,.1c3.13-3.52,5.91-7.37,9.59-10.4a4.42,4.42,0,0,1,3-1.13C304.72,97.81,304.92,97.6,305,96ZM197.79,104.8c.3-1,1.21-1.68.89-2.42-.6-1.38-.82-2.84-1.34-4.22-1.29-3.42-2.13-6.87-1-10.52a8.78,8.78,0,0,0-.27-5.64,23.6,23.6,0,0,0-2.53-4.77,2.2,2.2,0,0,0-1.87-1.14,8,8,0,0,0-4.26,1A9,9,0,0,0,185,79.87c-.21.3-.36.76-.07,1s.61-.19.82-.41c.41-.42.86-.9,1.43-.75,2,.51,4.07.72,5.32,2.8,1.84,3,2.11,6.32,1.82,9.73a5.66,5.66,0,0,0,0,2.36c.42,1.23,1.16,2.4,1,3.74-.47,4.71,1,9.3.84,14a2.3,2.3,0,0,0,.17.69c.9,3,1.78,6.07,2.71,9.09.54,1.77,1.15,3.52,1.78,5.43a.93.93,0,0,0,.05-1c-.86-3-1.72-6.09-2.29-9.2-.86-4.69-1.4-9.42-2.07-14.13-.23-1.58-.37-3.18-.53-4.77,0-.29-.11-.75.3-.8s.44.45.48.78a25.45,25.45,0,0,0,.35,2.86C197.36,102.34,197.08,103.5,197.79,104.8Zm-10.53,2.37a74.07,74.07,0,0,0-1.85-15.44c-.92-3.71-1.31-7.55-2-11.32a8.9,8.9,0,0,1-.07-2.49,21.34,21.34,0,0,1,1.46-5.56c.15-.4.43-.82.26-1.27a9.56,9.56,0,0,1-.39-3.76c.16-2.9-1.3-5.19-2.43-7.68-1.12,1.17-1.24,1.77-.36,3.24,1,1.65.73,3.5,1,5.26.31,2.32-.46,4.6-.51,6.92-.09,4.65.09,9.28.45,13.92a79.28,79.28,0,0,0,1.36,10C184.77,101.85,186.46,104.33,187.26,107.17ZM153,139.79a20.21,20.21,0,0,0-2.63,4,13.78,13.78,0,0,0-1.82,9.22c.22,1.66.56,3.31.8,5,.91,6.33,2.1,12.56,5.66,18.06a15.54,15.54,0,0,1,.64,1.42,7.21,7.21,0,0,0,1.87,2.84,4.64,4.64,0,0,0-.36-2.08A90.63,90.63,0,0,0,154,166.58a88.24,88.24,0,0,1-3.4-10.73,12.85,12.85,0,0,1-.48-4.39A38.63,38.63,0,0,1,153,139.79Zm7.31,17.86c0-1.15-.33-2.15,0-3.12a35.39,35.39,0,0,0,1.12-5c1-5.28,4.2-9.58,6.77-14.12,1.89-3.34,4.11-6.48,5.64-10a52.62,52.62,0,0,0,3.7-12.27,6.19,6.19,0,0,0-.43-4,29.32,29.32,0,0,0-3.18-5c0,1.34.88,2.36,1.13,3.56a19.82,19.82,0,0,1,.26,7.75,39.71,39.71,0,0,1-2.36,8.28c-1.59,3.72-3.74,7.15-5.62,10.73-.49.92-1,1.83-1.55,2.71a39.76,39.76,0,0,0-5.32,11.63C159.83,151.61,159.28,154.54,160.36,157.65Zm7.41-56.73c-1,.61-1.81,1.07-2.58,1.63-2.5,1.8-5.25,3.26-7.43,5.47-2.89,2.95-3.25,6.06-1.7,9.94,1.46,3.67,3.21,7.22,4.83,10.81,1.34-.93,1.58-1.68.87-3.34a47.76,47.76,0,0,0-3.77-6.8,7.44,7.44,0,0,1,.39-8.1c1.08-1.52,2.74-2.33,4-3.62a18.32,18.32,0,0,1,3.6-3.32A4.06,4.06,0,0,0,167.76,100.92Zm1.07-2.35a3.19,3.19,0,0,1-1.71.65,6.65,6.65,0,0,0-2.77.65c-1.49,1-3,2-4.47,3a26.67,26.67,0,0,0-5.79,6.49c-2.34,3.28-1.62,6.77-.22,10.19a6.14,6.14,0,0,0,1.57,2.65,8.71,8.71,0,0,1,2.64,4.86c.21.85,0,2.12.49,2.51.94.73.34,1.3.26,2,.29-.61,1.08-.94.89-1.75a24.67,24.67,0,0,0-2.09-6.25,28.75,28.75,0,0,1-3.19-9.12,7.35,7.35,0,0,1,2.46-7.1c2.51-2.33,5.48-4,8.26-6a6.46,6.46,0,0,1,2.45-1.45C168.45,99.84,168.62,99.52,168.83,98.57Zm-11.5,30.21a8.63,8.63,0,0,0-2.27-6,6.49,6.49,0,0,1-1.19-1.49,23.1,23.1,0,0,1-2-6.37,4.56,4.56,0,0,1,.06-2c.92-3.71,3.2-6.56,5.86-9.14,1.22-1.19,2.61-2.2,4-3.31a1.87,1.87,0,0,0-1.29.11,12.7,12.7,0,0,0-4.09,2.24,13.69,13.69,0,0,0-4.26,4.49c-1.73,3.19-1.72,6.63-1,10C151.92,121.75,155.15,125,157.33,128.78Zm1.72-59c.33,2.35,1.38,4.29,3.64,5.07a9.33,9.33,0,0,1,5.3,4.57A23.13,23.13,0,0,1,170.94,87a1.41,1.41,0,0,0,.65,1c.45-1.5,1.59-2.66,1.19-4.36a15.46,15.46,0,0,0-9.45-11C161.69,71.91,160,71.46,159.06,69.77ZM207.2,266.15a2.51,2.51,0,0,0,.64,2.2q2.16,2.41,4.34,4.79a2.54,2.54,0,0,1,.76,1c.32,1.26,1.28,2.21,1.67,3.44.16.5.43.57.7.06a9.78,9.78,0,0,1,1.48-2.18.79.79,0,0,0,0-1.1c-1.28-1.54-1.08-3.72-2.74-5.26a9.68,9.68,0,0,0-4.46-2.08c-.75-.2-1.15-.27-1.38-1-.13-.39-.41-.81-.84-.68S207.22,266,207.2,266.15ZM175.89,86.92a9.91,9.91,0,0,0,1.56-2.12,34,34,0,0,0,4.7-14.86c0-.37.33-.89-.1-1.09s-.68.34-.93.62a11.46,11.46,0,0,0-2.18,4.7c-.62,2.38-1.47,4.71-2.2,7.07A22.67,22.67,0,0,0,175.89,86.92ZM206,265.38c.34-1.71,1.25-1.7,2.46-.8.51.38.68-.14.84-.5.61-1.31,1.13-2.66,1.84-3.91a6.42,6.42,0,0,0,.72-3.34,2.22,2.22,0,0,0-1.65-2.23c-1-.16-2.7.51-3,1.19-.65,1.76-.32,3.74-1.85,5.38A2.85,2.85,0,0,0,206,265.38ZM180.5,80.57A24,24,0,0,1,179.16,85c-.88,2.47-1.86,5-1.45,7.69a32.75,32.75,0,0,0,2.76,7.86s.14,0,.46.14C180.37,94,179.59,87.26,180.5,80.57Zm35.88,190.16c.16-.2.25-.26.25-.32-.22-4.08.79-8,1.4-12a2.91,2.91,0,0,0-.92-2.95c-.68-.52-1.18-.36-1.23.47-.22,3.38-1.17,6.68-1.05,10.12A10.29,10.29,0,0,0,216.38,270.72ZM164.06,106.41c-1.35,1.26-2.84,2.35-4.21,3.56-2.87,2.55-2.61,8.19.47,10.65C159.47,115.3,162,110.95,164.06,106.41Zm2-1.72c-.33.5-.66,1-1,1.49-1.66,2.58-2.51,5.51-3.61,8.33-.93,2.39-.41,4.9-.46,7.36a2.53,2.53,0,0,0,.66,1.38,1.82,1.82,0,0,0,.4-1.15,80.61,80.61,0,0,1,1.36-8.24c.24-1.08,1.26-1.7,1.34-2.73A40.77,40.77,0,0,1,166.06,104.68Zm21.53-4.58c.79-3.42,1.63-6.83,1.1-10.35-.22-1.47-.43-3.05-1.92-3.94-.37-.22-.77-.52-1.22-.23s-.28.77-.2,1.2C186.21,91.19,187.61,95.52,187.59,100.11ZM178.91,71.3c.92-1.09,1.29-2.18,2.21-2.79a2,2,0,0,0,.88-2.18A12.79,12.79,0,0,0,180.89,62c-.31-.62-.57-.8-1-.19-.73,1-1.42,2.13-2.13,3.2a.85.85,0,0,0-.12.8A15.59,15.59,0,0,1,178.91,71.3Zm.3-30.35a12.35,12.35,0,0,1,0-10.17,3,3,0,0,1,.73-1.09,5,5,0,0,0,1.61-3.92c-1.9,2.75-3.9,5.21-5.25,8.08-.86,1.82-.4,4.56.87,5.31A7.35,7.35,0,0,1,179.2,40.94Zm-8.54,64.77a12.13,12.13,0,0,0-.4,4.24,21.83,21.83,0,0,1-1.36,12.36c-.16.37-.28.76-.41,1.14a2,2,0,0,0,.72-.84,41.22,41.22,0,0,0,2.88-8.14C172.88,111.39,171.94,108.51,170.66,105.71Zm-6.15,7.66c-.28.16-.3.45-.38.7a54,54,0,0,0-1.72,9.62,4,4,0,0,0,.64,2.49C165.8,121.24,165.32,118.91,164.51,113.37ZM275.32,98.43a18.48,18.48,0,0,1,3.46-2.67,2,2,0,0,1,1.74-.35,1.28,1.28,0,0,0,1.72-.81,1.69,1.69,0,0,0-1.59-1.74,8.92,8.92,0,0,0-3,.17,2.37,2.37,0,0,0-2,2.24C275.65,96.21,275.48,97.14,275.32,98.43Zm-101.67-34c-4.31,3-4.74,10-1.15,12C172.16,72.3,171.46,68.22,173.66,64.42Zm2.9,7.77a8,8,0,0,1-.52,3.67,3,3,0,0,0-.15,1.06.69.69,0,0,0,.6.78c.42.07.54-.32.62-.61.32-1.19.65-2.39.9-3.6.65-3.11-.3-5.91-1.68-8.63-.13-.26-.29-.58-.59-.2-.16.21-.74.49-.07.81.31.15.66.43.37.72-.59.58-.22,1.12-.06,1.66A10.87,10.87,0,0,1,176.55,72.19Zm10-9.67a12.76,12.76,0,0,0-.23-8.31c-.18-.5-.46-.47-.74,0-.58,1-1.2,1.88-1.78,2.84-.2.33-.47.7-.19,1.11C184.49,59.52,185.42,60.89,186.52,62.52Zm-2.33,15.81c0,.21-.16.49.15.61s.52-.15.68-.37a7.52,7.52,0,0,1,2.8-2.55c.37-.18.36-.47.22-.8a10.25,10.25,0,0,1-.76-4.68c0-.25.13-.64-.22-.73s-.5.23-.58.5C185.59,72.94,184.28,75.46,184.19,78.33Zm-16.89,44.8c2-3.37,2.11-7,2-10.81-.06-2.9-.47-5.85.56-8.7a1.23,1.23,0,0,0-.36-1.33,1.28,1.28,0,0,0-.2.3,27.21,27.21,0,0,0-1,10.55,22.49,22.49,0,0,1,.23,4.17A26.63,26.63,0,0,1,167.29,123.14ZM175,67.7a11.07,11.07,0,0,0-.79,8,.67.67,0,0,0,.57.56c.31,0,.33-.3.38-.52A12.39,12.39,0,0,0,175,67.7Zm7-23.18a5.63,5.63,0,0,0,.75,2.26,5.7,5.7,0,0,1-.28,6.63c-.42.63-.8,1.3-1.27,1.89s0,.9.42,1.2c.58.43.68-.12.83-.44.69-1.45,1-3,1.54-4.53C184.92,48.77,183.81,46.75,181.94,44.52Zm.82,14.21c0,.11-.06.24,0,.33,1,2.66,2.85,5.07,2.52,8.15a.4.4,0,0,0,.46.43c.31,0,.36-.27.36-.52a19.89,19.89,0,0,0-.19-3.56C185.59,61.71,184.19,60.14,182.77,58.73Zm56.36,80.85c.33,2.79-.76,5.51.13,8.14.13-.42-.24-1.27.33-1.43,1.07-.29.83-1,.83-1.7C240.45,142.87,240.68,141.07,239.13,139.58ZM179.56,59.73a1.92,1.92,0,0,0-.72-1c-.35-.29-.59.09-.78.3-.8.88-1.58,1.78-2.37,2.67a.65.65,0,0,0,.05,1c.29.35.55.11.83-.05a10,10,0,0,0,2.47-2A1.61,1.61,0,0,0,179.56,59.73Zm-2.74-4.15a20.45,20.45,0,0,1,2.69,2.93c.21.23.43.79.81.49a4.17,4.17,0,0,0,1.06-1.41c.19-.4-.26-.61-.54-.81A9.1,9.1,0,0,0,176.82,55.58Z" transform="translate(0 0)"/><path class="cls-1" d="M12.17,470.77c-.84-.53-.76-.91.1-1.2a7.13,7.13,0,0,1,2.27-.2c7.12,0,14.24,0,21.37-.18-2.12-.17-4.26,0-6.3-.79-.38-.14-1.07-.13-1-.68s.79-.58,1.29-.51c1.82.26,3.63.57,5.65.89a11.74,11.74,0,0,0-2.24-1.72l-3.55-2.48c-.48-.33-1-.79-.73-1.36.49-.91-.05-1.3-.61-1.77a5.51,5.51,0,0,1-.53-.49c-.43-.47-.72-1-.33-1.63a1.28,1.28,0,0,1,1.71-.43A25.45,25.45,0,0,1,33,460.3a8,8,0,0,0,4.85,1.49c-2.11-1.56-3.93-3.16-6-4.46-1.72-1.09-1.73-1.09-1.31-3.11.07-.36-.14-.61-.23-.91-.46-1.49.32-2.39,1.85-2.12a24,24,0,0,1,4.11,1.35,5,5,0,0,0,1.13.3A6,6,0,0,1,35.66,450a2.24,2.24,0,0,1,.79-2.47,2.31,2.31,0,0,0,.62-.72,1.94,1.94,0,0,1,3.2-.63,21.47,21.47,0,0,1,1.83,1.73c.4.38.74.59.83-.22q.65-6,1.32-12.07c0-.12.05-.27,0-.35-1.58-2.48-.5-5.17-.42-7.72.14-4.72.53-9.44,1-14.15.68-6.86,1.48-13.71,2.56-20.52a243.83,243.83,0,0,0,3.08-26.73,183.39,183.39,0,0,1,4.07-28.54c.82-4,1-8,1.61-12,.89-5.9,1.81-11.81,2.54-17.73a186,186,0,0,1,3.52-19.5c.33-1.4.7-2.8,1.14-4.17.85-2.68.78-5.46,1-8.21.56-8,1.09-16.07,1.92-24.08.61-5.9,1.19-11.8,1.78-17.7a1.51,1.51,0,0,0-.28-1.19c-.63-.86-.08-1.88.07-2.78a106.44,106.44,0,0,0,1.13-14.36c.2-6.77.6-13.52,1.34-20.26.6-5.46,1.14-10.91,2.27-16.29,0-.24.09-.47.16-.7s.24-.55.56-.55.49.36.55.68a5,5,0,0,1,0,.72c.1,5.1-.49,10.16-.87,15.24-.33,4.35-1,8.72-.89,13.06.1,2.93.32,5.88.25,8.82,0,1.44-.14,2.88-.26,4.32a3,3,0,0,0,.35,2.41c.24.3.07.69,0,1.05-.7,7.05-1.58,14.09-2.27,21.15a189.25,189.25,0,0,0-1,21.6,7.23,7.23,0,0,0,.08,1.67c.12-1.24.25-2.47.37-3.71.7-7.42,1.44-14.83,2.08-22.25.49-5.75.82-11.5,1.51-17.23.25-2.07.54-4.13.82-6.19,0-.35.11-.83.6-.72s.37.55.32.92c-.21,1.5-.42,3-.59,4.52a25.67,25.67,0,0,0,1.05-6.28c.7-6.29,1.34-12.58,2-18.87.42-4.06.69-8.14,1.23-12.18.93-6.94.7-13.91.93-20.88.25-7.65.65-15.29,1.06-22.93.36-6.76.87-13.51,1.29-20.27.39-6.23.94-12.46,1.36-18.69.35-5.23.74-10.46,1.49-15.66.22-1.5.38-3,.6-4.52.05-.36,0-1,.54-.91s.37.63.32,1c-.35,2.7-.74,5.4-1.05,8.1q-.44,3.82-.74,7.65-.61,7.6-1.14,15.22c-.21,2.87-.38,5.75-.57,8.63-.38,5.71-.82,11.43-1.14,17.14-.33,5.92-.57,11.85-.81,17.77-.18,4.24-.3,8.48-.35,12.73q1.27-10.3,2.55-20.6c.08-.63,0-1.5.39-1.85,1.39-1.3.82-3.08,1.34-4.58,1.78-5.16,1.24-10.6,1.76-15.91.86-8.73,1.61-17.46,2.8-26.15,1.16-8.49,2.45-17,3.82-25.42.82-5.1,1.66-10.2,3-15.2.12-.47.08-1.39.77-1.18s.21,1,.07,1.5A146,146,0,0,0,94,77c-1.19,7.47-2.39,14.95-3.43,22.44Q89,110.17,88.08,121c-.76,8.7-1.38,17.4-1.74,26.13-.28,6.81-.63,13.61-.76,20.42a3.69,3.69,0,0,0,.13,1.2c.17-2.15.36-4.3.5-6.45.36-5.64.73-11.27,1.4-16.88.2-1.71.38-3.42.58-5.13.05-.46,0-1.13.7-1s.4.72.33,1.13c-1.08,6.94-1.42,13.94-1.94,20.93-.55,7.39-.86,14.8-1.48,22.18a117,117,0,0,0-.36,17.41q.3,4.58.48,9.17c1-18.24,4.17-36.26,5.31-54.5a2.64,2.64,0,0,0-.55,1.34c-.06.29-.13.74-.55.64s-.27-.54-.2-.82q.52-2.16,1.1-4.31a20.77,20.77,0,0,0,.5-4.89c.18-6.69.54-13.38,1-20,.63-8.3,1.44-16.6,2.51-24.86,1.4-10.84,2.78-21.69,4.34-32.51.42-2.93.63-5.9,1.26-8.8a8.13,8.13,0,0,1,.45-1.36c.11-.26.32-.52.65-.39s.39.44.27.8c-1.32,4-1.36,8.2-2,12.31-.83,5.55-1.52,11.11-2.25,16.67-1,7.66-2.07,15.32-2.79,23-.57,6.14-1.15,12.28-1.62,18.43-.31,4.07-.41,8.16-.6,12.24,0,.84-.09,1.68-.15,2.52a1.87,1.87,0,0,0,.42,1.53c.65.76.37,1.81.2,2.66-1.12,5.82-1.09,11.72-1.23,17.61-.23,9.74-.54,19.47-1.3,29.18-.06.72-.06,1.44-.16,2.15-.05.37-.12.87-.65.87s-.54-.49-.61-.88a29.27,29.27,0,0,0-1-4.42c-.17,1.41-.42,2.82-.5,4.23-.47,7.64-1,15.27-1.13,22.92-.06,4.37,0,8.74-.08,13.11a7.39,7.39,0,0,0,.44,3.19c.13.28.18.56-.14.73s-.6,0-.77-.33a4.26,4.26,0,0,1-.38-2c0-2.6,0-5.21-.07-7.81-.67,6.45-1.08,12.91-1.39,19.4.16-.83.28-1.67.5-2.47.17-.6.38-1.35,1.23-1.2s.75.85.74,1.46q-.12,6.85-.26,13.71a7.13,7.13,0,0,0,0,1c.63-3.34.39-6.73.61-10.1.43-6.72.53-13.45,1-20.16.66-8.86,1.35-17.73,2.26-26.57.57-5.5,1-11,1.51-16.51a2,2,0,0,1,.05-.48c.12-.36.12-1,.59-.92.67.09.3.68.26,1.08q-.63,6.94-1.27,13.87c-.37,3.95-.78,7.89-1.11,11.84-.45,5.43-.84,10.86-1.26,16.29-.07.88-.2,1.75-.23,2.63s-.24,1.82.68,2.51c.4.3.25.91.2,1.38a104,104,0,0,0-.44,13c0,5.49.13,11,.2,16.46a1.46,1.46,0,0,0,.11.58,16.51,16.51,0,0,0,.75-4.81c0-5.13.11-10.26-.08-15.39a102.91,102.91,0,0,1,1.62-21.67,31.78,31.78,0,0,0,.39-4.9c.17-9.1,1-18.16,1-27.27a168.5,168.5,0,0,1,1.25-17c.65-6.17,1.22-12.35,1.84-18.53.53-5.3,1.09-10.6,1.62-15.9.52-5.14,1-10.29,1.54-15.43.71-6.77,1.47-13.54,2.22-20.31.6-5.45,1.17-10.91,1.86-16.34.78-6.11,1.73-12.2,2.5-18.31.75-6,1.67-11.89,2.63-17.81,1.05-6.47,1.66-13,3.5-19.36a10.67,10.67,0,0,1,.43-1.25c.1-.24.24-.6.59-.47s.15.49.07.72a45.78,45.78,0,0,0-1.48,5.69c-.83,4.49-1.48,9-2.16,13.52-1.09,7.24-2.24,14.48-3.23,21.73-.7,5.15-1.27,10.32-1.57,15.53-.15,2.66-.87,5.28-1.06,8,0,.19,0,.38,0,.6.52-.07.6-.87,1.12-.63s.36.88.29,1.3c-.44,2.81-.94,5.6-1.41,8.41-.67,4-1,8-1.47,12-.87,7.64-1.17,15.33-1.65,23-.19,3-.09,5.94-.35,8.88a8.85,8.85,0,0,0,.86,4.73c.35-2.05.69-3.82,1-5.6,1.07-6.93,1.8-13.9,2.59-20.86.6-5.25,1-10.53,1.53-15.78.51-5.1,1.08-10.19,1.62-15.29.51-4.9,1-9.8,1.52-14.7q.68-6.21,1.49-12.4c.7-5.36,1.4-10.72,2.19-16.07,1.25-8.44,2-16.93,3.21-25.38.14-1,.23-2.07.3-3.11,0-.5.37-1.08-.42-1.41-.26-.11-.09-.59,0-.9a37.14,37.14,0,0,0,1.89-11.93c0-.35,0-.84.42-.87s.45.49.47.81a11.14,11.14,0,0,0,.18,2c.51-1.71,1-3.42,1.51-5.14.14-.5.21-1,.37-1.52.1-.33.15-.82.61-.77s.39.54.39.88a16.88,16.88,0,0,1-.61,3.79c-2.12,10-3.75,20-5.09,30.08-1.07,8.06-2,16.13-2.89,24.21-.69,6.69-1.38,13.38-1.82,20.1s-1,13.66-1.44,20.5-1,13.5-1.43,20.25c-.3,5.16-.77,10.31-1.17,15.46a3.9,3.9,0,0,1-.18.82c-.1.33-.28.62-.69.49a.62.62,0,0,1-.43-.77c1-4.69.87-9.47,1.3-14.21.38-4.19.58-8.39.88-12.58.36-5.07.75-10.15,1.11-15.22.34-4.79.66-9.59,1-14.39.2-2.75.46-5.5.69-8.25a3,3,0,0,0-.08-1.2c-.32,2.76-.65,5.52-.95,8.28-.46,4.22-.89,8.44-1.33,12.66a86.42,86.42,0,0,0-1,9.8c.06,5.63-1,11.11-1.49,16.67-.53,6.22-1.18,12.44-1.75,18.66-.49,5.26-1,10.53-1.39,15.8-.42,5.63-.74,11.27-1.07,16.91-.34,5.8-.55,11.61-.74,17.41-.24,7.45-.37,14.91-.52,22.36C101,220,101,226.54,101,233.12c0,1.87.31,3.71.47,5.58-1.59-1.15-1.28-2.92-1.6-4.51q-.2,3.53-.44,7.06c-.31,4.67-.37,9.37-.59,14-.13,2.72.19,5.54-.38,8.15-1.14,5.24-.47,10.49-.84,15.72.64-5.72.53-11.52,1.92-17.31a1.31,1.31,0,0,1,.41,1.55c-.89,4.45-1,9-1.41,13.47-.64,6.58-.91,13.17-1.33,19.76-.15,2.36-.17,4.73-.25,7.09-.35,10.46-.42,20.93-.3,31.4.07,5.49.34,11,.52,16.48a2.08,2.08,0,0,0,.84,2c.33.2.33.62.31,1-.41,7.29-.36,14.59-.43,21.88-.06,6.74,0,13.48-.26,20.21a111.82,111.82,0,0,0,2.79,26.72c.21,1,.38,2,.57,3,0,.06.08.11.22.29l-.83-10.9c-.38-5-.74-10.07-1.14-15.1a186.89,186.89,0,0,1-.67-22.47c.23-5.88.41-11.77,1.09-17.63.07-.61.12-1.17.83-1.46s.32-.91.4-1.39c.11-.7-.25-1.9.68-1.88.77,0,.4,1.21.4,1.87,0,6.7-.09,13.39.29,20.08a191.92,191.92,0,0,0,3.5,28.47c1.84,8.74,3.38,17.54,5.12,26.3,1.11,5.58,2.39,11.12,3.91,16.61.08.3.19.59.39,1.19a7.31,7.31,0,0,0-.22-2.69c-.62-4.12-1.28-8.23-1.93-12.34a1.49,1.49,0,0,1,0-.36c0-.3-.08-.74.36-.76s.35.37.4.65c.14.83.27,1.66.4,2.49l1.71,10.8c0,.15.07.29.15.6.55-.86,1-1.58,1.47-2.33a3.42,3.42,0,0,1,2.81-2.11c1.27-.1,1.26-.28,1.84,1.18a1.2,1.2,0,0,0,.43.6c-.27-2.25-.51-4.5-.81-6.74-1-7.7-2-15.4-3-23.11-.63-4.84-1.29-9.68-1.84-14.53-.42-3.74-.7-7.49-1-11.24-.45-5.1-1-10.2-1.33-15.31s-1.07-10.19-1.58-15.29c-.45-4.5-1.07-9-1.55-13.48-.66-6.13-1.83-12.2-1.85-18.4a13.09,13.09,0,0,1,.5-3.56c.12-.43.29-.86.81-.95a.74.74,0,0,1,.77.46c.3.53-.08.78-.44,1.07s-.28.73-.34,1.12a30.23,30.23,0,0,0,.25,8.15q1.24,10.68,2.44,21.35c.76,6.72,1.58,13.43,2.27,20.16.52,5.06.87,10.13,1.27,15.2.41,5.23.91,10.45,1.61,15.65.78,5.83,1.52,11.67,2.29,17.51.65,4.92,1.36,9.84,2,14.76.49,3.81.89,7.63,1.32,11.45a8.7,8.7,0,0,1,0,1.2c0,.43.08,1-.55,1s-.61-.43-.72-.82c-.28-1-.54-2-.85-3-.1-.33-.1-.72-.42-1a28.31,28.31,0,0,0-.59,8.34c0,1.16.2,2.54,1.37,3s1.92-.7,2.73-1.39,1.59-1.51.59-2.79a3.73,3.73,0,0,1-.41-2.45,28.73,28.73,0,0,1,2.12-10.18,9.09,9.09,0,0,0,.33-7,5.89,5.89,0,0,1-.39-3c.89.88.79,2,1.54,3-.43-3-.87-5.72-1.2-8.45-.86-7-1.9-13.88-2.74-20.84-.55-4.57-1.46-9.09-2.2-13.64-.21-1.26-.39-2.53-.57-3.8a1.5,1.5,0,0,1,0-.83c.76-1.44.31-2.9.13-4.35-.7-5.59-1.38-11.18-2.16-16.76-.34-2.46-.82-4.91-1-7.4s-.88-4.79-.27-7.23a.55.55,0,0,0-.22-.64c-.45-.29-.44-.74-.42-1.18s-.15-.85.28-.95c.62-.14.37.57.71.93.52-4,0-7.91-.19-11.81,0,1.64,0,3.28,0,4.92a3.9,3.9,0,0,1-.15,1.06.62.62,0,0,1-.66.42c-.37,0-.41-.3-.41-.61,0-2.51-.61-5-.12-7.54.28-1.47-.25-3,0-4.43,0,0,0-.1,0-.12-1.53-.93-.33-2.18-.33-3.26-.06-7-.42-14-.76-21-.16-3.24-.21-6.49-.32-9.74-.32-9.42.07-18.85-.31-28.27s-.64-19.06-.76-28.61c-.15,2.84-.38,5.67-.43,8.51-.12,6.61-.56,13.21-.63,19.83,0,2.72.21,5.52-.29,8.16-1.15,6.09-.47,12.19-.49,18.27,0,7.29.49,14.58,1,21.85.34,4.43.51,8.87.74,13.31q.14,2.76.23,5.52c0,.41.16.89-.36,1.29a13.43,13.43,0,0,1-.8-5.06c-.38-7.72-.88-15.44-1.45-23.15-.16-2.2-.22-4.4-.31-6.6-.38-9.54-.24-19.08-.27-28.63a12.4,12.4,0,0,0-.39-3.57c.21,4.95-.19,9.53-.25,14.12,0,.8-.11,1.6-.19,2.39,0,.36-.09.78-.57.78s-.62-.43-.68-.84a5,5,0,0,0-.24-1.53c-1-1.94-1.13-4.26-2.45-6.1a7.52,7.52,0,0,1-1.05-2.55c-.07-.29-.15-.75-.52-.72s-.32.49-.31.78c.05,2.72-.64,5.52.87,8.1.32.55-.32,1-.6,1.29a2.1,2.1,0,0,0-.51,1.53,76.17,76.17,0,0,0,.48,9c.13,1.1-.57,2-.54,3.13.11,4.77.15,9.55,0,14.32-.2,6.29-.75,12.56-.63,18.86,0,.32,0,.72-.27.88-.9.47-.7,1.27-.65,2,.2,3.1.56,6.2.61,9.3a40.43,40.43,0,0,0,0,5.38c.06.4.09,1-.53,1s-.44-.56-.48-.93a26.58,26.58,0,0,0-.92-4.35c-.09-.36-.42-.72-.09-1.13.59,0,.46.71.94.89,0-2.59-.94-5-1.37-7.56.67.09.61.67,1.06,1.11-.17-1.42,0-2.69-.12-3.91-.29-4.17-.06-8.34-.15-12.51-.09-4-.18-8-.3-12a13,13,0,0,0-.25-1.66,22.35,22.35,0,0,1-.06-4.15c.19-7.33,0-14.68.13-22,.09-4.61.12-9.21.17-13.82-.23,3.74-.43,7.48-.63,11.22-.88,16.26-.78,32.54-.71,48.82,0,7,.33,13.94.48,20.91,0,.52.35,1.5-.42,1.49s-.38-1-.39-1.53a61.64,61.64,0,0,0-1.06-9.3c-.06-.35-.22-.7.06-1.08.57.07.39.7.43.73,0-3.68,0-7.59,0-11.5,0-1.12,0-2.24,0-3.36,0-9.26,0-18.52.13-27.78q.16-10.94.69-21.87c.27-5.63.81-11.25,1.31-16.87.29-3.19.1-6.41.32-9.61.34-5,.69-10,.86-15,.08-2.44.22-4.88.32-7.31.09-2.25.54-4.51.74-6.77.29-3.31.46-6.63.73-9.94.41-5,.08-10,.3-15s.58-9.91,1.06-14.86c.58-6,1.37-12,2.11-18,.54-4.37,1-8.75,1.69-13.1.47-2.84.7-5.72,1.1-8.57.61-4.32,1.28-8.63,1.91-12.94.65-4.47,1.27-9,1.9-13.43.73-5.15,1.4-10.31,2.19-15.46q1.3-8.55,2.78-17.06c.91-5.21,2.09-10.35,3.39-15.48,1.08-4.3,1.51-8.75,2.31-13.12,1.64-9,3.71-17.87,6-26.72q1.58-6.23,3.27-12.43c.1-.39-.1-1.25.56-1.08s.22.9.1,1.35c-.64,2.52-1.32,5-2,7.56a2.12,2.12,0,0,0-.08.58c1.13-2.64,1.52-5.55,3-8.07-1.55,6.15-3.47,12.2-4.92,18.37s-2.75,12.6-3.71,19-1.66,12.68-2.23,19.06c.3-1.93.58-3.87.89-5.8.83-5.3,2.07-10.53,3.09-15.8.5-2.59,1-5.18,1.56-7.77a4.78,4.78,0,0,1,.2-.81c.11-.27.3-.53.63-.42s.24.42.19.7c-1,4.67-1.89,9.33-2.84,14q-2.08,10.18-3.4,20.49c-1,7.43-1.69,14.88-2.52,22.32-.59,5.29-1,10.61-1.53,15.9-.25,2.29-.06,4.65-.93,6.87a4.37,4.37,0,0,0-.08,1.43q-.25,11.84-.49,23.69a8.3,8.3,0,0,0,0,2.66c.41.19.71-.73,1.1-.17.28.4-.13.74-.29,1.09a8.72,8.72,0,0,0-.72,3.26c-.11,3.32-.32,6.65-.38,10-.11,6.29-.48,12.57-.22,18.87,1.64-10.69,1.77-21.49,2.48-32.23-.54-.08-.32.51-.77.45.46-4.72.21-9.49,1-14.21.47,2.21-.29,4.44.14,6.79l1.33-19.62c-.85,4-.71,8-1.26,12.11-.78-1,1.78-32,2.78-33.92a10.24,10.24,0,0,1-.15,3.77c-.27,3.51-.71,7-1.06,10.5,0,.27-.07.68.07.81.92.76.6,1.77.56,2.69-.21,4.84-.41,9.68-.7,14.52-.33,5.56-.75,11.11-1.12,16.66-.12,1.76-.06,3.52-.21,5.28-.25,3-.28,6-.4,9a2.38,2.38,0,0,0,.93-2.14c.33-5.76.72-11.51,1.07-17.27q.31-5.1.57-10.2.4-7.74.76-15.49c0-1,0-2,0-3,0-.38-.24-.92.25-1.06s.46.52.8.89c-.14-4.59,0-9.07.24-13.54.26-5.88.45-11.75,1.71-17.55.62-2.88.75-5.87,1.15-8.8.57-4.24,1.12-8.49,1.78-12.72,1-6.56,2.24-13.1,3.15-19.67,1-7.06,2-14.1,3.65-21,.66-2.76.8-5.64,1.87-8.31.09-.22.15-.46.26-.67a.39.39,0,0,1,.49-.25c.24.08.26.28.24.49a2.7,2.7,0,0,1-.08.47,222.62,222.62,0,0,0-4.65,22.56c-.93,6.13-1.79,12.28-2.89,18.38-1.25,6.94-2.25,13.91-3.09,20.9-.64,5.29-1.77,10.5-2.26,15.79-.4,4.31-.63,8.64-.73,13-.13,5.09-.26,10.2,0,15.28.23,4.27-.85,8.38-1,12.6-.08,3.56-.18,7.13-.36,10.69-.35,6.68-.57,13.37-1,20q-.8,12-1.2,24c-.16,4.89-.09,9.77.13,14.58,1.4-3.91.91-8.07,1-12.13.12-7.5.52-15,.81-22.47.17-4.36.37-8.72.49-13.09.11-3.8.34-7.6.52-11.41a1.3,1.3,0,0,1,.32-.95c.56.39.38.93.36,1.4q-.17,5-.38,10.09-.51,12.49-1.09,25c-.3,6.28-.46,12.58-.36,18.87a60.09,60.09,0,0,1-.27,9.49c-.56,4-.09,7.9-.25,11.85a1.5,1.5,0,0,0,.47,1.42,1.3,1.3,0,0,1,.38,1.21c-.29,5.45.34,10.89.26,16.34,0,2-.19,3.91,0,5.87.63-11.5-.23-23,1.35-34.52.37,1.69.09,3.43.41,5.15,0-.35,0-.71,0-1.06,0-4.37,0-8.74.05-13.11.24-12.51.77-25,.67-37.52,0-.8,0-1.6,0-2.41,0-.25.06-.53.35-.55s.37.26.4.5,0,.72,0,1.08c0,5.86.1,11.72-.08,17.57-.4,12.74-.34,25.5-.8,38.24-.23,6.25-.19,12.48-.26,18.72a80.87,80.87,0,0,0,.49,8.63c.19-2.27.47-4.54.56-6.81.17-4.61.2-9.22.16-13.83,0-5.12.1-10.27-.4-15.38,0-.34-.34-.92.27-1s.44.56.67,1c.21-5.86.67-11.63.84-17.42.14-4.89.44-9.78.32-14.66-.19-7.62-.06-15.24-.16-22.85,0-.31-.14-.72.29-.8s.59.34.63.7a11.33,11.33,0,0,1,.09,1.44c0,6.7,0,13.4.09,20.09.1,8.38,0,16.75-.54,25.11-.32,4.84-.52,9.68-.43,14.53a16.07,16.07,0,0,1,.48-4.64c1.81,2,.31,4.55,1.3,6.8s.53,4.73.53,7.14,0,4.79.12,7.24c.4-.58.29-1.71,1.48-1.17a3.55,3.55,0,0,0,.18-.68c.06-1,.08-1.92.14-2.88,0-.47,0-1.09.68-1.07s.5.6.6,1c1.17,4.94.24,9.92.27,14.87,0,7.66.26,15.31.84,22.95.16,2.12.09,4.25.12,6.37a1.34,1.34,0,0,1-.3,1,1.79,1.79,0,0,0-.34,1.69,38.28,38.28,0,0,1,.16,5.29c0,.48,0,1.09-.61,1.13s-.68-.56-.75-1c-.19-1.31-.38-2.62-.57-3.92-.07-.47-.1-1-.65-1.16,0,1.31-.08,2.61,0,3.91.18,2.41.14,4.81.1,7.21,0,.61.17,1.72-1.15,1-.29-.15-.3.16-.36.32-.13.32-.29.59-.69.53s-.56-.44-.65-.78a23.43,23.43,0,0,1-.57-4,8.54,8.54,0,0,1,0-1.32,21.47,21.47,0,0,0-1.16-8.45,37.15,37.15,0,0,1-1.1-6.61c-.17,13.54-.27,27.08,2.87,40.61a1.67,1.67,0,0,1-1.11-1.24,39.68,39.68,0,0,1-1.88-9.16,191.38,191.38,0,0,1-1.18-24.6c0-.28,0-.55,0-.87-1.42.91-1.79.52-1.81-2.06,0,3.06-.1,6.13,0,9.19.12,2.77.55,5.64,0,8.27-.83,3.89.1,7.71-.34,11.53-1.09,9.26-.13,18.56-.6,27.83,0,.8.06,1.6.05,2.4,0,.36-.09.79-.55.79s-.35-.44-.45-.73c-.36-1.07,0-2.13,0-3.19,0-8.66,0-17.33.06-26,0-4.1-.54-8.16-.75-12.24,0-.28,0-.64-.31-.73-1-.27-1-1.09-1-1.83-.45-6-1.15-12-1.85-18.05a10.89,10.89,0,0,0-.75-3.94l-1,69.5c.38-.47.74-.93,1.29-.55s.2.79.12,1.21c-.58,2.95-.2,5.92-.22,8.88a23.91,23.91,0,0,0,.29,6.1c.52,2,.06,3.81.14,5.71.23,5.12.35,10.25.76,15.36q.79,9.81,2.15,19.58c1.51,10.75,3.29,21.46,5,32.18.63,4.07,1.17,8.16,2,12.29l1.36-4.24a.84.84,0,0,1,0-.12c1.58-3.15.42-6.27-.14-9.39-1.09-6-2.24-12-3.37-17.94a.92.92,0,0,1,.3-1c.87,3.07,1.48,6.07,2.25,9-.45-3-.92-6-1.33-9-.74-5.44-2.11-10.79-2.52-16.26a92.13,92.13,0,0,0-2.15-14.59c-.93-3.87-.73-7.76-1.38-11.61A97.82,97.82,0,0,1,123,345.29c-.25-5.24-.82-10.47-.91-15.72a17.15,17.15,0,0,1,.64-5c.13-.48.41-.92,1-.88s.8.49,1,1c.1.28.1.67-.25.69-.91,0-.82.72-.91,1.28a27.88,27.88,0,0,0-.11,6.6c.49,6.35.65,12.73,1.43,19.06.19,1.51.86,3,.92,4.53,0,.25.13.51.44.45s.37-.37.33-.67c-.12-.83-.21-1.67-.37-2.5a11.83,11.83,0,0,1-.21-4.9c1-4.17.29-8.42.87-12.6.06-.44,0-1.14.68-1,.56.11.38.69.31,1.13-.55,3.64-.2,7.29,0,10.92.19,4.08.64,8.14,1,12.21.48,5,.94,10,1.55,14.93.69,5.56,1.39,11.13,2.13,16.68.87,6.47,1.69,12.95,2.71,19.39,1.24,7.84,2.93,15.59,4.8,23.3.08.33.21.65.33,1a15.18,15.18,0,0,0,.88-11.1c-1.78-7-3.2-14.14-4.4-21.3-1-5.81-1.56-11.67-2.24-17.52a45,45,0,0,1-.51-7.07,14.2,14.2,0,0,1,.66-3.78c.14-.43.34-1.07.94-.86s.21.75.08,1.12a16,16,0,0,0-.5,7c.79,7.33,1.56,14.66,2.82,21.93,1,5.8,2.24,11.56,3.55,17.31.41,1.83.81,3.66,1.28,5.8,1.23-3.26,2-6.12,1.22-9.44-2-8.7-3.78-17.47-5.56-26.23a82.69,82.69,0,0,1-1.68-9.71,3.47,3.47,0,0,1,.22-1.76.56.56,0,0,1,.69-.35.53.53,0,0,1,.36.56c0,5.22,1.52,10.2,2.54,15.25,1.5,7.42,3.08,14.83,4.63,22.25a4,4,0,0,0,.23.56,3,3,0,0,0,.22-2.48c-1.59-7.37-3-14.77-4.35-22.18a67.13,67.13,0,0,1-1.34-11.81,7.12,7.12,0,0,1,0-1,.51.51,0,0,1,.47-.47.48.48,0,0,1,.54.38,3.74,3.74,0,0,1,.18.94c.16,8,2.07,15.71,3.56,23.5.58,3,1.2,6,1.84,9.24,1.11-1.83.88-3.57.55-5.36q-2-10.75-3.91-21.52c-.34-1.93-.52-3.89-.77-5.83a2.19,2.19,0,0,0-.72-1.59,1,1,0,0,1-.17-1.33.78.78,0,0,1,.79-.45c.57,0,.84.4,1,.87.44,1.1.25,2.3.51,3.44s.33,2.22.5,3.33a1.68,1.68,0,0,0,.2.81c2.19,2.51,2,5.77,2.63,8.72.81,3.55,1.36,7.16,2.07,11,.71-2.63,1.32-5,2-7.31.74-2.62,1.51-5.24,2.26-7.86a3.7,3.7,0,0,1,.16-.45c.23-.53.51-1.1,1.22-.84s.59.8.44,1.33-.38,1.31-.57,2q-2.3,8.1-4.59,16.2c-.48,1.71.4,3.29.58,5,2.44-5.36,2.88-11.31,4.92-16.8.56.22.39.55.33.85a124.91,124.91,0,0,1-4.6,17.41,2.39,2.39,0,0,0-.17,1.29,228.29,228.29,0,0,0,6.32,26.24c.35-.58.43-1.31,1.2-1.18s.88.76,1.11,1.3.47,1.19.7,1.79c.13.33.29.56.71.47a.61.61,0,0,0,.56-.66c0-.64-.12-1.27-.17-1.91s0-1.19.62-1.41a1.15,1.15,0,0,1,1.39.69c.49.87.9,1.78,1.4,2.66-.23-1.82-.84-3.57-1-5.41,0-.61-.25-1.27.48-1.56s1.22.23,1.55.8a21.2,21.2,0,0,0,1.17,2.08c-.14-.61-.31-1.22-.41-1.85s-.12-1.28.46-1.5c.95-.35.61-.91.5-1.53s-.69-1.77.45-2,1.05.88,1.23,1.57c.69,2.56,1.75,5,2.59,7.5.11-.06.22-.09.22-.13.08-.57-.11-1.37.65-1.52s.92.63,1.18,1.15c.4.82.77,1.65,1.26,2.71a2.94,2.94,0,0,0-.34-1.72,39.08,39.08,0,0,1-1.52-4.94,2.06,2.06,0,0,1,0-1.53,1.52,1.52,0,0,0-.11-1.48,65.23,65.23,0,0,1-4.2-11.63c-.17-.75-.41-1.49.4-2.06.38-.26.17-.65.07-1-1.88-6.38-3.73-12.77-5.66-19.14-.61-2-1.44-4-2.14-6-.13-.38-.44-.76-.22-1.21.63,0,.46.75,1,.92-.53-2.68-1-5.3-1.55-7.92-.47-2.44-.92-4.88-1.38-7.32-.1-.54-.13-1.1-.9-1.24-.61-.11-.67-.71-.77-1.23-.37-2-.76-3.92-1.13-5.85-.44-.06-.5.24-.66.4-.38.37-.81.57-1.28.22a.84.84,0,0,1-.06-1.37c1.48-1.54,1.15-3.27.85-5.16a79.52,79.52,0,0,0-2.82-13.27c-1.6-4.68-1.68-9.58-2.75-14.32a19.36,19.36,0,0,1-.92-5.24,38.19,38.19,0,0,0-.56-6.89c-.67-6.09-1.18-12.19-1.63-18.3-.28-3.79-.39-7.6-.57-11.4-.16-3.56-.29-7.13-.47-10.69a8.94,8.94,0,0,0-.42-2c0,7.62-.2,15.23.32,22.82.46,6.79,1.08,13.57,1.71,20.35a121.77,121.77,0,0,0,2.55,15.16,5.81,5.81,0,0,1,.18,1.06.79.79,0,0,1-.71.84c-.47.09-.67-.24-.74-.61-.25-1.21-.52-2.43-.68-3.66a24.33,24.33,0,0,0-1.46-4.71c-.28.16-.12.36-.14.53,0,.46.19,1.14-.42,1.23-.78.11-.6-.67-.7-1.13a228.69,228.69,0,0,1-3.83-27.84c-.71-8.39-1.38-16.78-1.38-25.2a83.8,83.8,0,0,1,.42-8.52,1.75,1.75,0,0,0,0-.7,24.38,24.38,0,0,1-.89-7.85,35.28,35.28,0,0,0-.53-5.6,70.77,70.77,0,0,1-.43-7.55c0-.48,0-1-.06-1.44-.35,1,.11,2-.42,3.18a3.07,3.07,0,0,1-.53-1.81c0-1.84-.08-3.69,0-5.53a18.44,18.44,0,0,1,.56-3.52c.1-.42.49-1.19,1.11-.26.21.32.6.61.77,0s.81-1.09,1-1.76a.94.94,0,0,1,1-.73,1.07,1.07,0,0,1,1,.78,9.59,9.59,0,0,1,.26,1c.07.27.07.73.21.78,1.18.4,1.39,1.6,2.09,2.37a3.88,3.88,0,0,1,.93,1.88,71,71,0,0,1,1,9.8c.31,3.8,1,7.55,1.39,11.33.33,3.14.74,6.27.85,9.44.15,4.52.51,9,.78,13.56,0,.16,0,.39.07.47,1.23,1,.56,2.28.46,3.45a42,42,0,0,0,.21,6.84c.47,6,.88,12,1.64,18,.08.6.22,1.19.25,1.78.12,2.65-.18,5.35.54,7.92a41.81,41.81,0,0,1,1,7c0,.22.11.55.27.63.32.16.46-.22.65-.39a3.28,3.28,0,0,0,1.12-3.89,61.94,61.94,0,0,1-1.57-6.29c-.1-.41-.41-1,.13-1.17s.68.44.81.82c.5,1.47,2.14,2.27,2.29,3.94a1.44,1.44,0,0,0,.22.56c.25.43.15,1.42.78,1.18a1.75,1.75,0,0,0,1.07-1.84c-.33-2.14-.67-4.27-1-6.4a2.57,2.57,0,0,1-.1-.47c0-.37-.28-1,.24-1s.5.52.57.91c.28,1.7.51,3.4.85,5.09.07.37,0,1.16.67,1s.56-.77.47-1.33c-.41-2.45-1.2-4.82-1.4-7.31,0-.28-.35-.72.09-.83s.58.38.65.71c.32,1.65.59,3.31.89,5a28.41,28.41,0,0,0,.86,3.57c-.3-3.43-1.08-6.79-1.48-10.22a12.45,12.45,0,0,1,1.24,4.13c.32,1.53.57,3.07.81,4.61.08.51.21.87.81.76s.73-.46.63-1.06c-.3-1.89-.53-3.79-.78-5.69a1,1,0,0,1,.35-1.12c.6,2.65.72,5.28,1.17,8,1.17-1,.66-2.24.47-3.2-.89-4.51-1.63-9-2.81-13.5a169,169,0,0,0-6.4-20.65,24.84,24.84,0,0,1-.83-2.63c-.08-.29-.17-.71.3-.76s.42.3.5.58c1.72,5.79,4.17,11.35,5.53,17.26a3.16,3.16,0,0,0,.31.38c-.38-1.68-.64-3-1-4.37-.84-3.22-1.47-6.48-2.08-9.75-.06-.31-.24-.71.17-.83s.52.39.58.7c.64,3,1.23,6,1.9,8.92.83,3.67,1.8,7.31,2.55,11a17.81,17.81,0,0,0,1.52,3.47,44,44,0,0,1,2.09,7.87c0,.15.08.3.11.43.35.16.48-.07.61-.26,1.36-2,2.88-4,3.46-6.41a8.58,8.58,0,0,1,.9-1.83c.34-.66,1-1.21.16-2.06-.36-.35.14-1,.38-1.43a42.44,42.44,0,0,0,2.38-4.8c-1.54-.34-2.38,1-3.64,1.43a1.94,1.94,0,0,1-1.64,0c-1.42-1.07-3.67-.2-4.72-2.2-.56-1.08-.57-1.88.31-2.67a1.83,1.83,0,0,0,.63-2.22c-.22-.62-.83-1.72.14-2,.82-.21.41,1.1.84,1.58a.31.31,0,0,0,.41-.14,24,24,0,0,0,4.68-9.38c.22-1.08,1.31-1.57,1.4-2.68a29.69,29.69,0,0,1,.53-3.07,2.3,2.3,0,0,1,.54-1.38,1.4,1.4,0,0,1,.22,1.44c-.45,2.24-.91,4.47-1.42,6.7-.11.47-.08,1.22-1,1.08-.08,0-.26.28-.3.45-.7,2.89-2.52,5.17-4.15,7.54a1.47,1.47,0,0,0,0,1.94,5.4,5.4,0,0,0,1.56,1.47c1,.63,1.86.8,2.77-.18a8.26,8.26,0,0,1,2.45-1.71c1.41-.69,1.78-2.1,2.17-3.45.51-1.77.94-3.56,1.37-5.35.18-.75.49-1.27,1.36-1.21.65,0,.9-.38,1.13-.88,1-2.19,2.46-4.18,2.89-6.63a.61.61,0,0,1,.74-.61c-.37,2.06-1.34,3.94-1.41,6.05.25-.7.49-1.41.77-2.11.11-.27.2-.71.63-.58s.22.52.14.81c-.17.66-.82,1.43.47,1.72.24.05.22.39.2.64,0,.49-.79,1.06.29,1.44.35.12-.25.84-.15,1.33.08,0,.2,0,.2-.05a2.65,2.65,0,0,1,1.43-1.8c1.24-.83,1.18-2.35,1.91-3.44a3.5,3.5,0,0,0,.2-.56c.1-.22.21-.46.52-.38s.2.3.27.48a5.63,5.63,0,0,1-.07,3.52,2.17,2.17,0,0,0,.22,2,3.6,3.6,0,0,1,.44,2.51c-.4,1.76-.11,3.58-.7,5.3-1.28,3.71-2.58,7.42-3.78,11.16a35,35,0,0,1-2,3.83,6.83,6.83,0,0,0-.22.73,11.37,11.37,0,0,0,4.19-2c.93-.69,1.81-1.46,2.72-2.18.26-.21.59-.66.9-.29s-.19.65-.44.85c-1.67,1.36-3.17,3.08-5.31,3.62-2.54.65-3.31,2.65-4.2,4.66-.1.22-.13.46-.22.69a.53.53,0,0,1-.55.39c-.3,0-.3-.32-.35-.56-.24-1.21.52-2.16.93-3.16.77-1.87,1.58-3.73,2.47-5.55a3.22,3.22,0,0,0,.13-3.22c-.26-.39-.05-.78.08-1.15,1-2.82,1.74-5.74,2.82-8.47.78-2,.34-2.52-1-3.49a18.21,18.21,0,0,1-2.08-1.38c-.41-.38-.76.06-1,.4-1.9,3.2-4.15,6.2-5.41,9.76-.16.47-.5.92.07,1.41.35.3.19.75-.1,1.08a20.27,20.27,0,0,0-3.35,5.51c-.53,1.21-1.1,2.41-1.62,3.63a28.87,28.87,0,0,1-2.43,4.4c-.7,1.07-.31,3.52.61,4.51.33.35.51.1.66-.12.41-.59.8-1.2,1.18-1.81s.69-.74.82.27a38.71,38.71,0,0,0,3.83-7.49c.28-.72.58-1.43,1.4-1.7.14,0,.34-.1.43,0s.06.34,0,.52a122.7,122.7,0,0,1-6.84,12.88,1.79,1.79,0,0,0-.2,1.49,19.71,19.71,0,0,0,1,3.56c.13,0,.24,0,.27-.09a38.77,38.77,0,0,0,2.75-5c.5-1.31.67-2.77,1.24-4.09a3.71,3.71,0,0,1,1.25-2c.42.73-.32,1.16-.27,1.75.36-.06.44-.43.68-.61a1.57,1.57,0,0,1,1.49-.13c.5.18.12.69.14,1.06a4.26,4.26,0,0,1-1,2.64c-.89,1.33-1.73,2.7-2.57,4.07-.39.63-.89,1.25-.41,2.09.09.15,0,.46-.12.68a3.7,3.7,0,0,1-.43,1,8.11,8.11,0,0,0-1.2,8c.12.33.22.79-.29.88s-.58-.35-.65-.71c-.11-.54.08-1.13-.4-1.73-1,1.13-2,2.1-1.56,3.84a39.3,39.3,0,0,1,.52,4.65c0,.32.09.7-.33.78s-.53-.21-.62-.48c-.44-1.43-1.3-2.83-.4-4.41a2.18,2.18,0,0,0-1.13,2.23c.3,2,.5,4,.75,6,0,.27.2.6-.15.73s-.57-.2-.7-.49a23.34,23.34,0,0,1-.91-4c-.08-.34,0-.72-.29-1.08a2.17,2.17,0,0,0-.56,2.39,85.23,85.23,0,0,1,1.77,8.95c.05.4.4,1-.19,1.14s-.67-.59-.76-1c-.52-2.47-1-4.94-1.5-7.41a2,2,0,0,0-.3-1.07,2.92,2.92,0,0,0-.51,3c.74,2.8.9,5.68,1.39,8.52.22,1.26.31,2.53.51,3.79.05.34.23.82-.27.89s-.41-.41-.45-.72c-.22-1.91-.39-3.82-.67-5.72a41.06,41.06,0,0,0-1.19-6.81c-.89,1.62-1.73,2.86-1.21,4.76,1.22,4.44,1.74,9,2.89,13.5.09.34.28.86-.11,1-.54.15-.54-.45-.64-.81-1-3.68-1.51-7.45-2.33-11.17-.27-1.2-.56-2.39-.89-3.79a3.9,3.9,0,0,0-1.14,3.42c.7,3.37,1.32,6.76,2,10.14a2.32,2.32,0,0,1,.07.59c0,.39,0,1-.51.94s-.23-.57-.29-.89c-.65-3.54-1.28-7.08-1.94-10.62,0-.25,0-.63-.39-.67s-.42.32-.59.53l-.07.1c-2.37,3.12-2.3,3.11-1.65,7.32,1.25,8.11,3.07,16.11,4.59,24.17.52,2.75,1.28,5.45,2,8.17.63,2.5,1,5.08,1.77,7.56.58,1.76,1.31,3.45,2,5.15a19.86,19.86,0,0,1,1.25,5,23.51,23.51,0,0,0,2.25,6.82c1.48,3.11,3.18,6.12,4.1,9.47a2.32,2.32,0,0,1,0,2.08c-.21.32,0,.62.11.91l1.85,4.18c0,.07,0,.19.1.21,1.48.76.66,1.9.41,2.89a1.75,1.75,0,0,0,.07,1.26c1.19,2.59,2.39,5.17,3.51,7.78.36.84.7.77,1.3.28,1-.81,2-1.59,3-2.35a9.84,9.84,0,0,1,1.54-.93,1.34,1.34,0,0,1,1.67.24,1.41,1.41,0,0,1,.18,1.68,14.55,14.55,0,0,1-2.22,2.83,2.13,2.13,0,0,0-.57,1l2.72-1.84a5,5,0,0,1,2.41-1c.61,0,.81.14.6.76a4.75,4.75,0,0,1-1.55,2.23,28.51,28.51,0,0,1-10,5.07,9.23,9.23,0,0,0-2.9,1.4,35.57,35.57,0,0,1-8.6,4.51,5.2,5.2,0,0,1-2,.37,1.64,1.64,0,0,1-1.6-.87,1.49,1.49,0,0,1,.36-1.77c.92-.95,1.9-1.84,2.85-2.75.2-.19.48-.3.53-.72-.55-.15-1,.19-1.4.39a111.06,111.06,0,0,1-12.18,4.83,13.29,13.29,0,0,1-2.46.53,1.67,1.67,0,0,1-1.81-.93,1.59,1.59,0,0,1,.49-2c.63-.61,1.32-1.17,2-1.73.37-.3.57-.56.12-1a.89.89,0,0,1-.32-.49c-.22-2.25-2.57-2.07-3.72-3.25-.23-.23-.61,0-.9.18l-3.49,1.63a5.35,5.35,0,0,1-1.94.6,1.77,1.77,0,0,1-2-2.41c.05-.23.18-.45.21-.69a1.49,1.49,0,0,0-.45-1.53c-.49-.34-1,.16-1.44.35s-.32.76-.24,1.16c.4,2.09.82,4.17,1.23,6.25a3.31,3.31,0,0,1,.11.59c0,.53.3,1.27-.48,1.4s-.7-.63-.8-1.1c-.55-2.47-1.29-4.88-2.06-7.29a1.59,1.59,0,0,0-1.17-1.22c-.76-.19-1,.42-1.27.86-.72,1.07-2,1.72-2.24,3.18a.56.56,0,0,1-.88.34,3.92,3.92,0,0,0-2-.42,4,4,0,0,1-3.59-3.88,13.08,13.08,0,0,0-.22-2.5,28.3,28.3,0,0,1-1.56,2.5,15.24,15.24,0,0,1-2,2.09c-3.19,2.83-6.29,2-7.73-2a9.67,9.67,0,0,1-.53-3.43c0-.75,0-1.5,0-2.54a3.54,3.54,0,0,0-1.05,3.16c.41,1.84.77,3.68,1.14,5.53.09.44.37,1.08-.29,1.2s-.57-.55-.68-1c-.35-1.32-.68-2.64-1-4-.07-.26,0-.63-.4-.65s-.42.33-.55.57a24.22,24.22,0,0,1-4,5.71c-.45.42-.3,1.06-.43,1.59s-.2.83-.7.85-.62-.36-.71-.7a2.56,2.56,0,0,0-1.44-1.65c-.74-.38-1.06-1.17-1.5-1.81-.26,0-.27.16-.33.29-.17.38-.36.77-.86.68s-.58-.52-.64-.92c-.26-1.87-.51-3.73-.74-5.6-.28-2.23-.51-4.46-.82-6.68-.05-.36.17-1.16-.66-1-.68.16-1.39.31-1.23,1.4.33,2.26.55,4.53.76,6.81a16.54,16.54,0,0,1-.1,4.56c-.1.52-.22,1.1-.86,1.15s-.92-.57-1-1.11c-.52-2.6-.81-5.23-1.09-7.86-.11-1-.18-2.08-.3-3.11a2.17,2.17,0,0,0-.27-.91,1,1,0,0,0-1.17-.39c-.48.14-.33.57-.29.92a39.29,39.29,0,0,1,.44,5.75c0,.54.1,1.28-.7,1.3s-.74-.69-.75-1.18c0-2.31-1.46-4.39-1.15-6.76.07-.55-.43-.82-.88-1-2.83-1.31-3.09-3.63-1.38-5.94a4.79,4.79,0,0,0,.53-5.25c-1.48-3.45-1.84-7.08-2.1-10.79-.36-5.32-.25-10.65-.64-16-.21-3-.5-5.9-.72-8.86,0-.43-.23-1.21.32-1.24s.43.74.44,1.18c.07,2.45.55,4.86.72,7.29s.45,5,.45,7.43a115.51,115.51,0,0,0,1,13.89,2.76,2.76,0,0,0,.33,1c-.25-2.71,0-5.42-.2-8.11-.32-4.24-.76-8.46-1.1-12.7a241.3,241.3,0,0,1-1-26.9c.21-6.57.58-13.13,1.35-19.66.07-.6.07-1.22.91-1.32.48-.06.41-.53.44-.87.22-2.11.42-4.23.64-6.34.05-.52.09-1.17.78-1.14s.75.75.7,1.29c-.21,2.24-.11,4.49-.15,6.73a3.25,3.25,0,0,0,.78,2.25c0-1.67.06-3.11,0-4.54-.2-4.24-.37-8.49-.68-12.72-1-13.69-.93-27.4-.84-41.11q.07-9.62.59-19.23a5.55,5.55,0,0,0-.42-2.81,6.48,6.48,0,0,1-.46-2.71c0-1.32,0-2.65,0-4s.2-2.84-2.16-2.79c.06,0,.11.2.11.39Q92,280.7,91.9,287c-.18,8.26-.28,16.51-.59,24.76-.27,7.29-.45,14.58-.68,21.88-.13,4-.25,8-.47,12-.05.94.22,2.2-1.24,2.54-.1,0-.18.34-.2.53a17.35,17.35,0,0,0-.16,1.79c-.12,6.86-.22,13.71-.34,20.57a26.84,26.84,0,0,1-.28,3.51,7.83,7.83,0,0,1-.9-3.91c0-9.42.26-18.84.69-28.25a99.14,99.14,0,0,1,1.74-12.61,28.23,28.23,0,0,0,.41-4.18q.38-15.57.79-31.14c.14-5.53.32-11.06.41-16.59a46.25,46.25,0,0,0,.13-6.72c-.06.73-.1,1.46-.18,2.19,0,.37-.21.79-.64.74-.58-.06-.28-.54-.26-.86.07-1.24.15-2.48.2-3.72,0-.38.12-.88-.46-1s-.6.41-.67.8a89.62,89.62,0,0,0-1.38,12.05c-.24,7.29-.66,14.56-1,21.85-.13,3.12-.18,6.25-.27,9.37-.19,6.41-.47,12.81-.45,19.23,0,.2,0,.4,0,.9.44-.83.73-1.41,1.06-2a.61.61,0,0,1,.81-.32c.43.2.36.56.22.93a34.57,34.57,0,0,0-2.12,13.2c.07,3.65,0,7.3,0,10.95,0,.36.19,1-.37,1s-.4-.59-.45-1a68.44,68.44,0,0,1-.23-7.85,37.93,37.93,0,0,0-.44,14.39c-.95-.63-.79-1.68-1.19-2.65A11.56,11.56,0,0,0,82.8,363c-.84,6.39-1.39,12.82-2,19.25-.08.86-.22,1.67.87,2.22.74.37.57,1.35.48,2.1-.31,2.55-.67,5.09-1,7.63-.94,8.09-1.74,16.18-1.27,24.42a9.57,9.57,0,0,1,1.85-4.37c.21-.28.38-.71.82-.56s.36.59.35.94a74.83,74.83,0,0,0,.48,9,90.21,90.21,0,0,0,2,11.59c.63,2.64,1.05,5.32,1.89,8,0-2.9.12-5.69,0-8.46-.3-5.84-.79-11.67-1.09-17.51a99.83,99.83,0,0,0-1.86-14.65,67.58,67.58,0,0,1-1-10.52c0-.26-.12-.62.23-.73s.6.19.73.47a2.59,2.59,0,0,1,.29,1c0,5.54,1.37,10.88,2.2,16.3.64,4.17.65,8.39,1,12.58.71,9.16,1.17,18.32,1,27.51a27.94,27.94,0,0,0,.62,4.76,37.64,37.64,0,0,1,.29,6.72c0,.52,0,1.16-.74,1.17s-.73-.62-.76-1.15c-.25-3.82-.84-7.61-.86-11.47,0-3.11-1.22-6.11-1.87-9.17a60.82,60.82,0,0,0-1.53-6q.19,3.87.39,7.75c0,.64.09,1.28.1,1.92,0,.31,0,.71-.47.69s-.33-.4-.35-.66c-.16-2.52-.35-5-.47-7.56a84.26,84.26,0,0,0-.64-8.5,15.36,15.36,0,0,0-2.34-5.32,30.16,30.16,0,0,0,0,4c.31,2.35.2,4.72.36,7.08.37,5.75.79,11.5,1.44,17.23a35.82,35.82,0,0,1,.25,3.6,20.05,20.05,0,0,0,1.46,7.39c.21.53.51,1.3-.3,1.53s-.7-.61-.85-1.06c-.43-1.25-.81-2.52-1.21-3.78,0-.11,0-.28-.1-.34-1.94-1.62-1.07-3.93-1.42-5.93s-.45-3.82-.67-5.73a1.09,1.09,0,0,0-.54-1c-.76-.39-1.22-.18-1.22.68a59.83,59.83,0,0,0,1.93,15.22c1,3.84,2,7.68,2.76,11.57.17.86.16,2.16,1.15,2.31s1.19-1.12,1.67-1.82A5.2,5.2,0,0,1,86,471.79c.23-.16.49-.34.76-.1a.5.5,0,0,1,0,.75,32.25,32.25,0,0,0-2,2.88c-1.12,1.49-2.45,1.34-3.2-.35a25.21,25.21,0,0,1-1.32-5.36c-.79-3.85-2.09-7.57-2.87-11.43A71.46,71.46,0,0,1,76.13,446c0-1.73.25-2,2-2.06.57,0,.69-.25.68-.72s0-.64,0-1a12.4,12.4,0,0,1,.21-4.51c.38-1.26-.12-2.62-.15-3.94-.09-3.44-.35-6.87-.32-10.32-.7,4.7-.14,9.59-2.13,14.22-1-2.46-.56-4.84-.37-7.21.3-3.75.57-7.51.9-11.26.29-3.39.59-6.78,1-10.16s.28-6.89.4-10.33c.33-9.58,1.09-19.12,2.21-28.64.79-6.72,1.9-13.41,2.45-20.15a121.25,121.25,0,0,0-.11-14.44c-.34,2-.7,3.94-1,5.92-1.42,8.78-2.89,17.55-4.23,26.34-.65,4.23-1.15,8.5-1.52,12.76a35.29,35.29,0,0,0,.37,5.14,65.93,65.93,0,0,1-.52,11.15c-.8,7.41-2,14.77-2.36,22.23-.26,4.93-.26,9.86-.19,14.79a71.86,71.86,0,0,0,1.27,11.22,9.05,9.05,0,0,1,.14,1.67c0,.54-.19,1.09-.82,1.17s-.88-.47-1-1c-.23-1.22-.47-2.44-.62-3.67a132.18,132.18,0,0,1-1-19.91c.14-4.17.74-8.3,1-12.46.34-4.88.69-9.75,1.1-14.63.44-5.14.84-10.29,1.35-15.43.61-6.1,1.45-12.17,2.35-18.22.55-3.72,1.27-7.42,1.88-11.14,1-6,1.62-12,3.15-17.86,1.37-5.26.93-10.55,1.18-15.84.28-6,.49-12,.76-18,.08-1.88.26-3.76.38-5.64,0-.49.1-.94-.68-1s-1-.72-1.15-1.35a22.15,22.15,0,0,1-.61-5,42,42,0,0,0,.43,9.54c.07-.05.14-.08.16-.13.19-.4,0-1.18.64-1.1s.39.8.43,1.27a6.53,6.53,0,0,1,0,2.15c-.13.53-.28,1.06-.93,1.09s-.84-.43-1-.9a19.44,19.44,0,0,1-.89-5.32c-.22-4.6-.2-9.21-.22-14a10.08,10.08,0,0,0-1.16,3.52c-.17,1.35-.4,2.7-.67,4a2.61,2.61,0,0,0,.42,2.38,1.65,1.65,0,0,1,.29.52c.23.67.42,1.51-.4,1.75s-.82-.66-.94-1.22-.14-.95-.21-1.42c0-.23,0-.58-.15-.67-2.06-1.34-1.95-3.62-2.14-5.58-.69-6.92-.11-13.85.27-20.78,0-.64.34-1.35-.44-1.84-.24-.15-.15-.52-.09-.8.9-4,1-8.16,2.19-12,.66-2.1.68-4.39,1.82-6.38.35-.61.06-1.64,0-2.46-.37-2.83-.16-5.69-.4-8.52,0-.5.1-1-.65-1.21-.43-.09-.39-.57-.38-.92.26-6.6.05-13.22.85-19.81a69.19,69.19,0,0,0,.31-7.44c0-3.69,0-7.38,0-11.07-1.17,12.05-2.32,24.11-3.8,36.27.58-.49.21-1.73,1.15-1.39.74.27.4,1.18.21,1.83a38.22,38.22,0,0,0-1,8.1q-.82,11.39-1.42,22.79c-.27,5-.37,10-.61,15-.17,3.41.13,6.81,0,10.22,0,.62.24,1.68-.66,1.66s-.57-1.08-.58-1.69c-.14-9,.32-18,.89-27,.44-7,.82-14,1.25-21,.12-2,.34-3.9.47-5.85-.64,2.58-.47,5.24-.84,7.84-.06.4.09,1.05-.56,1-.5-.07-.32-.64-.32-1,0-1,0-2,0-3.29-.61,7.46-1.18,14.61-1.79,21.74-.35,4.11-1,8.21-1.11,12.32-.05,3.06.06,6.14-.06,9.21-.06,1.52-.14,3-.29,4.56a3.19,3.19,0,0,1-.76,1.84c-.74.87-.49,2.06-.59,3.1-.13,1.31,0,2.64-.06,4a6.35,6.35,0,0,1-.75,3.12c-.6,1-.47,2.26-.63,3.4-1,7.3-1.95,14.61-2.9,21.91-1.44,11-3.22,22-5.22,33-.89,4.88-1.85,9.76-2.49,14.68-.18,1.39-.23,2.8-.36,4.19,0,.34,0,.83-.52.79s-.46-.49-.46-.85c0-.88,0-1.76-.06-2.64-.9,6.75-1.92,13.47-3,20.19-.86,5.46-1.49,11-2.06,16.45-.24,2.29-1,4.64-1.38,7q-1.81,12.49-3.28,25c-.48,4.14-.91,8.28-1.38,12.43a2.42,2.42,0,0,0,.91,2.63,3.62,3.62,0,0,1,1.21,2.42,12.17,12.17,0,0,0,.82,2.79c.09-1.8.21-3.6.25-5.4.1-4.17.1-8.34.44-12.49a1.93,1.93,0,0,1,1-1.77c.54-.26.47-.78.51-1.25.34-4.08.08-8.18.63-12.24.13-1,.24-1.91.41-2.85.11-.6.08-1.51.92-1.46s.64,1,.64,1.55q0,5.89-.15,11.79c-.08,4.05-.12,8.1.17,12.14a8.24,8.24,0,0,1,0,1.44c0,.37.05,1-.48,1s-.42-.58-.43-.95c0-1.08,0-2.17-.06-3.25a19.51,19.51,0,0,0-.38-3.19q0,8.36,0,16.72a1.72,1.72,0,0,0,.83,1.6A17.94,17.94,0,0,1,53.31,459c.06-.05.15-.1.15-.15,0-.72-.13-1.61.79-1.79s1.16.78,1.45,1.45.64,1.61,1,2.52c.33-.57,0-.95-.08-1.36a1.38,1.38,0,0,1,.64-1.55,1.33,1.33,0,0,1,1.63.39,17.06,17.06,0,0,1,1.67,2.5,2.21,2.21,0,0,0,.4-1.57,3.4,3.4,0,0,1,.49-1.94,1.75,1.75,0,0,0-.77-2.57,2.38,2.38,0,0,1-1.12-2.13,99,99,0,0,1-.53-10.2c-.12-8.58.16-17.16.38-25.74.25-9.73.6-19.47,1.39-29.18,1.33-16.3,3.86-32.4,8.91-48,1.1-3.39,2.29-6.75,3.44-10.13.24-.71.66-1.22,1.49-1.1s.94.92.85,1.58c-.4,2.73-.84,5.46-1.3,8.18q-1.71,10.31-3.44,20.62a2.51,2.51,0,0,0,.32,1.82c.73,1.24.44,2.68.26,4-1,7.78-2.19,15.55-3.24,23.33-.39,2.87.12,5.76-.05,8.64-.64,10.48-.72,21-1.11,31.47-.24,6.37-.55,12.73-1,19.08-.2,2.6-.45,5.19-.89,7.76-.13.79-.18,1.36.81,1.65a2.57,2.57,0,0,1,1.59,2,6.39,6.39,0,0,0,1.31,2.23c1.7,2.09,1.79,4.64,1.6,7.19A1.29,1.29,0,0,1,69,469a1.42,1.42,0,0,1-1.49-1c-.45-1.2-.84-2.42-1.25-3.64-.17-.52-.32-1.05-.58-1.89-.25.84-.37,1.38-.58,1.89a1.34,1.34,0,0,1-2,.81,2.07,2.07,0,0,0-1.57-.34.7.7,0,0,1-.47,0c-1-.61-1.89-1.09-3.06-.14-.47.38-1.2-.71-1.78-.68s-.55,1.19-1.37,1.31a4.59,4.59,0,0,1-2.78-.6c-.88-.43-1.18-.16-1.1.75s.17,1.76.16,2.64c0,.68-.07,1.51-1,1.5s-.91-.76-1-1.42c-.11-1.08-.23-2.15-.34-3.23-.07-.61-.25-1-1-1.08-1.11-.08-1.51-1-1.75-1.9a5.62,5.62,0,0,0-1.74-2.67c-.5-.48-.8-.59-1.11.15a2.62,2.62,0,0,1-.87,1.14c-.39-1.09-.39-1.09-2.09-.86.6.54,1.13,1,1.63,1.47a2.19,2.19,0,0,1,.73,2.59c-.42,1-1.3,1.06-2.22,1.08-1.53,0-3-.42-4.54-.5a16.83,16.83,0,0,0,5.53,2.29c1.29.29,2.61.45,3.9.71a4.28,4.28,0,0,0,2.54-.56c.74-.31.86,0,.72.64a2.46,2.46,0,0,1-2.47,1.73,21.87,21.87,0,0,1-3.93-.51,2.45,2.45,0,0,0-1.3-.08,8.29,8.29,0,0,0,1.84,1.25c1,.71,1.09,1.57.06,2.29-1.28.89-2.61,1.7-4,2.61a1.44,1.44,0,0,0,1.16-.14c2.81-.91,5.82-1.22,8.4-2.8.31-.19.77-.39.95,0a1.64,1.64,0,0,1-.12,1.6,3.22,3.22,0,0,1-1.49,1c-1.87.81-3.76,1.57-5.69,2.23a36.28,36.28,0,0,0,10.74-4.1c.29-.18.81-.27.34-.86-.21-.26.22-.43.49-.51.43-.13.87-.06,1.38-.15l-1.36-.77c-.41-.23-.79-.51-.52-1s.74-.39,1.15-.21a37.74,37.74,0,0,1,4.62,2.57,31.9,31.9,0,0,0,3.4,2c1.68.75,1.66.82,3.31-1.06-3.91-1.2-7.34-3.43-11.45-4.15a.72.72,0,0,1,1-.39,70,70,0,0,1,13.29,5.2c.28.14.86.27.65.7s-.64,0-.91-.1a1.42,1.42,0,0,0-1.48.14c-.49.29-.11.72-.06,1.09a5.18,5.18,0,0,1-.08,2.27,1.18,1.18,0,0,0,.19,1.21c.59.77.37,1.33-.6,1.32a2.68,2.68,0,0,0-2.24,1.34,10.28,10.28,0,0,1-2,2c-.3.22-.65.42-1,.19s-.32-.71-.18-1.09a16.75,16.75,0,0,1,1.76-3c.25-.4.52-.7,0-1.12a.79.79,0,0,0-1.17.07c-2.58,2.15-5.67,3.67-7.72,6.46-.29.4-.77.74-1.24.35s-.15-.92.16-1.36c1.69-2.4,4.29-3.69,6.51-5.45.57-.45,1.16-.87,1.68-1.36a1.25,1.25,0,0,0,.16-1.75c-.5-.62-1.08-.25-1.55.19-2.59,2.37-5.54,4.37-7.54,7.36a4.59,4.59,0,0,1-1.9,1.62c-.38.18-.83.48-1.2,0s0-.82.24-1.18.31-.42.65-.87c-1.37.7-2.47,1.27-3.57,1.83-.52.26-1.14.5-1.55,0s.16-1,.47-1.34a34.12,34.12,0,0,1,3.4-3.8,9.43,9.43,0,0,0-1.08.21,45.89,45.89,0,0,1-5.3,1.56c-.67.14-1.62.65-1.93-.15-.23-.61.75-1,1.32-1.34,1.84-1,3.71-1.9,5.57-2.84a3.11,3.11,0,0,0,.8-.54c-4.91,1.53-9.92,2.67-14.93,4.45.4-.75.4-.75,2.37-1.62-5.24,1.66-10.73,2.56-15.63,5.26.14.08.4.14.48.29s-.13.34-.33.38c-1.4.23-2.66.88-4,1.24-.29.08-.67.34-.84-.08s.24-.61.55-.78c1.91-1,3.92-1.84,5.91-2.68,1-.42,2-.82,3-1.27.29-.13,1-.24.49-.74s.36-1.55-1-1.24c-3.59.81-7.29,1.12-10.82,2.21-1.34.42-2.52,1.35-4,1.42-.38,0-.87.29-1.06-.22s.34-.76.73-.91a53.21,53.21,0,0,1,9.18-2.35c5.55-1.05,11.1-2.07,16.63-3.23,2.68-.56,4.74-2.39,7-3.89a1.7,1.7,0,0,0-2-.41c-2.37.62-4.59,1.74-7.18,1.73-2.77,0-5.41,1.07-8,1.9a101.06,101.06,0,0,1-16.24,3.22c-.38.05-.79.05-.88-.39s.33-.58.67-.69a41,41,0,0,1,5.66-1.09c5-.86,9.95-2.1,14.88-3.34,2.44-.61,4.88-1.25,7.3-2a19.41,19.41,0,0,0-6.12.16A93.61,93.61,0,0,1,17,473.88a29.44,29.44,0,0,1-10.71-1c-.47-.12-1-.32-1-.9s.62-.8,1.14-.85C8.31,470.94,10.21,471.19,12.17,470.77ZM124.33,234.56a3.78,3.78,0,0,0-.14,1.43c-.24,10.51.1,21,.19,31.51,0,1.83.17,3.67.26,5.5a3.48,3.48,0,0,0,.15-1.19c.2-9.34-.46-18.67-.26-28a50.29,50.29,0,0,0-.19-9.24,1.22,1.22,0,0,0,.47-1c.08-5.15.39-10.3.1-15.46C124.92,223.56,124.59,229.06,124.33,234.56Zm-5.47-42.73c-.06-1.75.12-3.48.22-5.2.26-4.56.24-9.13.32-13.7.24-13.23-.11-26.46.24-39.69.11-4.08.3-8.17.36-12.26,0-2,.12-3.92.26-5.88.46-6.22.9-12.45,1.15-18.68a39.86,39.86,0,0,1,.56-5.37c.22-1.24.75-2.42.87-3.71.32-3.67.72-7.33,1.08-11,.19-1.95.38-3.9.57-5.85a36.34,36.34,0,0,0-.8,4.12c-.74,5.15-1.68,10.27-2.9,15.33,0,.19-.15.52-.2.52-1.09-.13-.82.93-.68,1.13.66.93-.1,1.8-.2,2.55-.15,1.08-.58,2.2-.74,3.34-.89,6.17-2.07,12.31-2.47,18.54-.17,2.73-.8,5.38-1.21,8.07-.68,4.51-1.24,9-1.79,13.57-.76,6.4-1.63,12.78-2.19,19.2-.33,3.83-.61,7.66-.87,11.49-.14,2.07-.21,4.15-.32,6.22.82-4.2,1.48-8.42,2.07-12.64.38-2.73.67-5.48,1-8.22,0-.37,0-1,.53-.92s.4.66.41,1.08a3.79,3.79,0,0,1-.05.48c-.91,8.44-2.34,16.81-3.53,25.22-.26,1.85-1.4,3.83.06,5.71.1.12,0,.39,0,.59-.25,1.82-.52,3.64-.77,5.47-.1.73-.41,1.49.55,2,.32.16.21.65.17,1-.41,3.38-1,6.74-1.52,10.1-.6,3.78-1.43,7.54-1.44,11.42.39-.18.5-1,1.1-.68s.27.9.17,1.39c-.15.75-.33,1.49-.43,2.24-.89,6.69-.84,13.43-1,20.17,0,1,0,1.92-.08,2.89a63.69,63.69,0,0,0,.25,13.66c.25,1.57.25,3.19.36,4.79,0,.28,0,.61-.35.67s-.57-.23-.66-.55-.18-.83-.27-1.24c-.2,3.85-.8,7.64-.7,11.45.08,2.84,1.11,5.43,2.17,8.33a12.31,12.31,0,0,0-1.28-7.49c.91.18.82.93,1.35,1.19a3.5,3.5,0,0,0,.06-.47c-.14-6.74.22-13.46.31-20.2,0-1.92.07-3.84.15-5.76.4-9.17.84-18.33,1.23-27.49.27-6.33.37-12.66.77-19,.16-2.45-.23-5.08,1.3-7.32.12-.17.06-.47.09-.71q.25-2.27.49-4.53c0-.24.05-.54.36-.53s.41.34.4.63-.08.39-.1.59c-.4,4.77-.57,9.56-.71,14.35a4.31,4.31,0,0,0,.26-1c.41-3.87,1-7.7,1.72-11.53.11-.59-.16-1.71.79-1.56s.44,1.14.32,1.77c-.79,4.14-1.08,8.34-1.67,12.5s-.17,8.29-.71,12.43c-.44,3.4-.2,6.88-.42,10.32-.41,6.4-.42,12.8-.29,19.21.06-1.16,0-2.32.06-3.48,0-.32.08-.7.52-.64s.37.38.37.67c0,2.12-.07,4.24,0,6.36.09,2.61-.23,5.24.13,7.85a1,1,0,0,0,.12-.46q.39-9.49.77-19c.28-6.71.59-13.41,1.15-20.1.48-5.75,1-11.49,1.57-17.23,0-.27.13-.65,0-.81-1.06-1.3-.87-3-1.33-4.43-.08-.24-.23-.56.26-.69l.51,1.12a2.88,2.88,0,0,0,.21-1.32c-.15-6.65-.36-13.3-.43-20-.14-13.27-.06-26.53.66-39.79.37-6.84,1.32-13.63,1.57-20.47,0-.41,0-1.08.52-1.05s.43.68.39,1.08c-.31,4-.56,8.07-1,12.08-.61,5.46-.91,10.94-1,16.42-.18,8.25-.48,16.51-.33,24.77,0,1.48,0,3,0,4.45.26-5.29.51-10.57.57-15.86.08-6.57.39-13.15.27-19.72a5.08,5.08,0,0,1,.07-1c.05-.3.24-.54.57-.49s.36.35.33.66a10.21,10.21,0,0,0-.1,1.32c.07,10.1-.19,20.2-.46,30.3-.23,8.41-.16,16.84-.22,25.26A1.82,1.82,0,0,0,118.86,191.83ZM97.58,260.75c.64-13.15,1-26.22,1.89-39.27a4.77,4.77,0,0,1-.67,2.7,2.16,2.16,0,0,1-.17-.59c.2-1.91.44-3.81.63-5.72.39-3.78,1.08-7.52,1-11.34,0-1.64,0-3.29,0-4.93.38-9.89.74-19.78,1.18-29.66.17-3.84.54-7.67.81-11.51.2-2.79.38-5.58.57-8.37-.32,1.15-.53,2.33-.76,3.49-.08.43-.16,1-.72,1s-.64-.5-.71-1a1.47,1.47,0,0,0-.31-.91,2.47,2.47,0,0,0-.08.36c-.3,4.76-.61,9.51-.88,14.27-.19,3.48-.14,7-.57,10.43a28,28,0,0,0-.49,4.83,19.75,19.75,0,0,1,.18,3.45c-.64,5.29-.18,10.63-.88,15.91.28-1.3.47-2.6.66-3.9.05-.35,0-.85.49-.82s.34.56.35.88a94.45,94.45,0,0,1-.32,10.57c-.47,6.63-.9,13.27-1.07,19.91-.17,7.13-.12,14.27-.28,21.4a25.93,25.93,0,0,1-.66,6.43C96.58,259.15,96.07,260.3,97.58,260.75ZM123,269.67a21.49,21.49,0,0,0-.16-3.35c-.42-7.28-.57-14.58-.68-21.87a182.44,182.44,0,0,1,.45-18.5c.13-1.53-.52-3.45,1.3-4.58.09-.05.07-.3.07-.46,0-4.57.14-9.15-.07-13.71-.32-7-1.12-13.88-.87-20.86.12-3.4,0-6.81.21-10.22.17-3,.37-5.91.46-8.86-2.64,16-2.12,32.2-3.15,48.34.49-.23,0-.86.86-1A263.41,263.41,0,0,0,123,269.67ZM82.21,246.43a1.51,1.51,0,0,0,.44-1.27c.19-2.52.37-5,.57-7.55,0-.64.4-1.36-.69-1.53-.31,0-.38-.49-.41-.82-.06-.76-.17-1.52-.16-2.28.07-7.41.35-14.82.76-22.22.19-3.36.49-6.71.72-10.07.34-5,.87-10,.92-15,.05-5.93.09-11.87.21-17.8.07-3.36.35-6.72.42-10.09.08-3.83,0-7.66,0-11.49a4,4,0,0,1,0,1.39c-.35,4.59-.72,9.18-1,13.77-.51,7.59-1,15.19-1.48,22.78-.41,5.87-.91,11.74-1.38,17.61-.32,4-.84,7.9-.93,11.85-.15,6.69,0,13.39,0,20.09a2.37,2.37,0,0,0,.31,1.56c0-1.59.17-2.88.26-4.17.24-3.71.38-7.43.58-11.15,0-.37-.1-1,.46-.93s.34.57.33.89c-.08,2.8,0,5.62-.32,8.4-.22,2.12-.09,4.24-.36,6.35-.3,2.34-.29,4.71-.43,7.07,0,.38,0,.73.47.83.92.18.88.89.86,1.6A4.62,4.62,0,0,0,82.21,246.43Zm18.55-119.55h-.16q-.28,2.75-.56,5.49-.64,6.4-1.27,12.79-.8,8-1.61,16c-.44,4.34-.91,8.68-1.34,13-.3,3.11-.51,6.23-.84,9.34-.08.8.74,1.4.31,2.26a7.7,7.7,0,0,0-.27,1.89c-.39,1.83-.06,3.66-.12,5.48-.1,3.25-.82,6.43-.91,9.68-.12,4-.43,8.08-.59,12.12-.09,2.28-.17,4.56-.25,6.84a30.22,30.22,0,0,1,.13,3.58,45.27,45.27,0,0,0-.14,6c1.83-6.18.83-12.53.83-18.88.74.21.41.76.82,1,.3-1.24-.13-2.53.41-3.72.75,3.11-.78,6.27.21,9.39a4,4,0,0,0,.94-2.28c0-1.68.1-3.36.19-5,.34-6.2.18-12.42.55-18.63.2-3.32.08-6.65.21-10,.39-10.57.75-21.14,1.52-31.68q.49-6.71,1-13.41C100.12,134.38,100.45,130.63,100.76,126.88Zm9.68,331.84.31.07c1.05-1.88,2.09-3.78,3.16-5.65a3.23,3.23,0,0,0,.28-2.64c-.92-3.36-1.88-6.72-2.59-10.13-2-9.77-3.91-19.56-5.85-29.34-.4-2-.77-4.07-1.16-6.1.12,3.38.41,6.73.68,10.08.36,4.59.69,9.19,1.07,13.78a100.06,100.06,0,0,0,1.18,11.35c.07.37.13.74.51.89,1.45.6,1.52,1.77,1.17,3a14.86,14.86,0,0,0-.24,6.55C109.43,453.31,109.83,456,110.44,458.72ZM134,454.19l-.27.05c.36,1.22.67,2.45,1.08,3.65.19.56.18,1.67.78,1.51a2.23,2.23,0,0,0,1.63-2c0-.68,0-1.36,0-2a51.53,51.53,0,0,1,.64-7.78,7,7,0,0,0,.15-3.09c-.34-1.15-.57-2.34-.92-3.49a62.49,62.49,0,0,1-1.72-8.14c-.2-1.24-.25-2.57-1.19-3.62-.73,2.19-1.43,4.32-2.16,6.44a4.1,4.1,0,0,0-.17,2.24c.8,3.72,1.65,7.43,2.64,11.11.54,2,1,4.05,1.43,6.08.1.44.14.94-.39,1.13s-.85-.28-1.05-.73S134.18,454.63,134,454.19Zm31.25-100.07a25.74,25.74,0,0,0,2.37-4.92c.25-.79,1-1.41.81-2.34-.35-1.73-.73-3.45-1.08-5.17-.07-.35-.51-.86,0-1s.55.48.67.83c.18.53.26,1.09.43,1.62a10.66,10.66,0,0,0,.59,2.44c.64-.76,1.39-1.41,1.34-2.31a17.32,17.32,0,0,0-1.05-5.64c-.17-.42-.88-1-.15-1.3.54-.24.52.62.78,1l.23.31a8,8,0,0,0-.4-3c0-.13.08-.49-.27-.35-.77.3-.63-.33-.73-.69a7.19,7.19,0,0,0-.65-2.31c-.73,1-1.54,1.77-1.44,3,.05.62.24,1.46-.91,1.42-.33,0-.21.34-.19.57.14,1.24.14,1.24-.71,1.89,0,0-.07.08-.07.1.41.93-.62,1.75-.4,2.44a11.27,11.27,0,0,1,.16,3.76c0,.29.05.59-.29.69a.54.54,0,0,1-.61-.29,8.48,8.48,0,0,1-.52-.95c-.51-1.12-1-2.25-1.51-3.38a34.05,34.05,0,0,0,.56,4.9.51.51,0,0,0,.2.29,4.4,4.4,0,0,1,1.38,2.73C164.28,350.2,164.71,352,165.25,354.12ZM105,426c-1-18.48-3.35-37.11-4.7-54.38C99.36,389.06,100.22,407.81,105,426Zm13.74-103.45c0-1.95,0-3.9,0-5.85.09-6.29.05-12.58.23-18.86.25-8.93.26-17.86.38-26.8,0-.28.11-.63-.19-.77-.84-.38-.87-1.16-1-2.25C116.46,285.87,117.75,302.76,118.71,322.53ZM84.24,343a34.5,34.5,0,0,0,1-7c0-9.1.24-18.19.55-27.28.16-4.64.21-9.29.5-13.93.15-2.4,0-4.81.36-7.2a23.81,23.81,0,0,0,.06-2.64,22.33,22.33,0,0,1,.19-2.51c.14-.89-.57-1.54-.54-2.38C85,301.1,83.81,322,84.24,343Zm13.1-81c-2,13.8-2.8,74-1.2,83,0-.37,0-.61,0-.85-.33-12.15-.28-24.29,0-36.44.17-8.12,1-16.21.75-24.35-.21-6,.14-11.94.45-17.9C97.39,264.34,97.34,263.19,97.34,262Zm44.19,3.2a9.89,9.89,0,0,0-.2,3.42c.13,2.76,1.15,5.43.81,8.23a51.58,51.58,0,0,0-.23,6.6c0,9.26.8,18.48,1.66,27.69.67,7.22,1.55,14.41,2.92,21.54a2,2,0,0,0,1.14,1.59c0-.32,0-.52,0-.71-.66-4.43-1.37-8.86-2-13.3-1.15-8.53-2.29-17.06-2.89-25.65a129.28,129.28,0,0,1,.26-22.8c0-.39.14-.83-.18-1.15-.86-.84-.8-2-1-3C141.71,266.87,141.63,266.06,141.53,265.24Zm-61.3-64.66c1.45-16.17,2.25-33.27,3.61-50.33C81.66,167.24,79.12,184.21,80.24,200.58Zm65.41,110.61c-.47-6.95-.59-13.87-.67-20.8-.07-6.24.74-12.54-.86-18.72C142.55,284.92,143.89,298.08,145.65,311.19ZM95.52,418.7a3.45,3.45,0,0,0,0,.35c0,8.74.46,17.45,1,26.16,0,.79.43,1.22,1.18,1.21.93,0,.64-.79.61-1.27-.22-4.08-.49-8.15-.73-12.23A131.47,131.47,0,0,0,95.52,418.7Zm6.26-1.38c0,.16,0,.32,0,.48.58,6.9,1.15,13.81,1.75,20.71.13,1.51.4,3,.6,4.53.1.73.4.8.92.3a2.86,2.86,0,0,0,1.06-2.51C105.5,432.84,103.15,425.18,101.78,417.32Zm9-136.63c.06-1.32.19-2.63.18-3.95a12.16,12.16,0,0,0-.5-4.82c-.41-1-.12-2.29-.13-3.45,0-4,0-8,0-12,0-.42-.19-1.19.51-1.08.5.08.4-.07.43-.33.08-.75.16-1.51.25-2.26,0-.24,0-.63-.17-.64-1.61-.08-1-1.3-1-2-.06-3.88,0-7.76,0-11.07-.12,1.32-.37,3.21-.44,5.1-.34,9.49-.61,19-.55,28.47a9.26,9.26,0,0,0,.22,2.38C110.13,276.85,110.37,278.75,110.82,280.69ZM98.56,420.83a40.22,40.22,0,0,0,.2,7.63c.55,5.49,1.57,10.93,2.08,16.43,0,.45-.13,1.26.63,1.17s1.42-.46,1.32-1.41c-.17-1.59-.29-3.19-.58-4.76-.84-4.6-1.76-9.19-2.65-13.79Q99.06,423.47,98.56,420.83Zm61.36-58c.46-.69.71-1.09,1-1.47a3.46,3.46,0,0,0,.51-4c-1.57-3.51-1.93-7.4-2.74-11.16-.08-.38.16-1.12-.44-1a1.51,1.51,0,0,0-1.33,1.22,3.7,3.7,0,0,0,.07,1.19c.26,1.42.54,2.83.81,4.25ZM106.58,201.3c2.23-13.1,2.53-26.25,3.43-39.36C108.38,175,106.55,188,106.58,201.3Zm43.14,220.32a5.77,5.77,0,0,0-.58,4.16c.47,2.31.81,4.65,1.21,7,.62,3.59,1.26,7.17,2.23,10.68.36,1.3.78,1.45,1.67.7.43-.36.24-.71.13-1.08-.69-2.34-1.41-4.67-2.29-6.95-.14-.36-.49-1-.24-1.08,1-.29.39-.91.32-1.3-.57-2.95-1.21-5.88-1.82-8.82C150.14,423.91,150,422.9,149.72,421.62ZM68.11,245c-1.14,10.72-2,21.47-2.68,32.53.35-.47.69-.7.7-1C66.58,266,68.75,255.57,68.11,245Zm75.25,202.21c.37,2.25,1.19,4.71,1.88,7.21.09.34.3.62.69.39.75-.45,1.48-.94,2.21-1.43.38-.25.31-.62.18-1-.2-.53-.42-.07-.62,0-.54.19-.71-.18-.85-.57q-.54-1.52-1.06-3.05c-.05-.15-.16-.39-.1-.45.92-.95.09-1.91,0-2.85,0-.35.07-1-.45-1a1.6,1.6,0,0,0-1.54.74A3.53,3.53,0,0,0,143.36,447.17Zm-97.58,36c.76-.41,1.52-.83,2.29-1.23A21.5,21.5,0,0,0,57,474.31c.16-.26.52-.51.16-.82a.71.71,0,0,0-1.07,0c-.14.15-.26.3-.39.46a13,13,0,0,1-4.06,3.35C49,478.63,47.58,481.07,45.78,483.21Zm102.38-56a3.71,3.71,0,0,0-.54,2.61c.55,3.84,1.05,7.69,1.57,11.54.15,1.11.31,2.22.45,3.33a.87.87,0,0,0,.66.76c.16.05.39.06.4-.11,0-.82.8-1.42.52-2.38A92.72,92.72,0,0,1,149,432.18C148.74,430.54,148.45,428.9,148.16,427.25Zm.46,21.66.19,0-2-16.12a18.68,18.68,0,0,0-1.07,3.5,4.89,4.89,0,0,0-.33,2.12c.52,2.39,1.07,4.77,1.64,7.3.24-.85.5-.83.69-.13C148,446.68,148.33,447.8,148.63,448.92ZM89.8,194.43c.45-8.1,1-15.92,1-23.75a19.4,19.4,0,0,0-.32,2.13c-.28,4.23-1,8.41-1.36,12.63C88.88,188.34,88.34,191.3,89.8,194.43ZM64.28,312.34a304.13,304.13,0,0,0-5,33.31Q62.18,329.06,64.28,312.34Zm109.79,132.3c.34,2.92,3.41,10.54,5,12.74.54.74,1.08.19,1.6.06s.39-.58.22-1L178,450.07a14.73,14.73,0,0,0,.6,2.15c.16.5.4,1.15-.28,1.33s-.69-.56-.82-1A73.49,73.49,0,0,0,174.08,444.64ZM71.53,213.46c-1,9.63-2.53,19.21-2.19,28.81C70.45,232.78,71.28,223.14,71.53,213.46Zm58.35,229.33A25,25,0,0,0,127.56,454c.47-.24.51-.59.67-.86.85-1.48.84-3.5,2.74-4.31.2-.09.13-.35.08-.55C130.55,446.47,129.79,444.74,129.88,442.79ZM49,396.37a275.47,275.47,0,0,0-3.42,28.69C46.52,415.49,48.73,406.05,49,396.37ZM143,433.89c-.64,2.76-2.25,5.41-.94,8.38.16.37,0,1.06.53,1.07s.68-.67.87-1.15C144.62,439.37,144,436.63,143,433.89ZM24.88,471.16c-5.66.38-11.31.78-17,.94A29.54,29.54,0,0,0,24.88,471.16ZM72.56,186a216.12,216.12,0,0,0-2.44,29.65ZM64.9,298.47l-.48-.07-3.8,19.91.39.07C63.5,312,63.37,305.06,64.9,298.47Zm27.78-35.27-.33,0c0,2.35,0,4.7,0,7a4.92,4.92,0,0,0,.65,2.41c.19.34.39.8.87.68s.33-.59.33-.92q0-2.88,0-5.75c0-.27,0-.68-.18-.78C93.07,265.26,93.07,264.13,92.69,263.21Zm70.72,93.69c1.38-1.22,1.23-2.45.83-3.79-.6-2-1.07-4-1.64-6-.09-.3-.19-.82-.67-.68s-.18.55-.15.85a13.47,13.47,0,0,1,.27,2.37C161.87,352.15,162.85,354.39,163.41,356.9Zm-2.35,108.85a5.79,5.79,0,0,0,.68-.14c1.68-.65,3.37-1.26,5-2,.91-.39,2.32-.49,2.59-1.28s-.56-1.8-.92-2.72c0,0-.1-.07-.19-.13.13.69.3,1.35.37,2a1,1,0,0,1-.72,1.23.93.93,0,0,1-1.19-.57c-.3-.76-.74-.86-1.39-.45a1.14,1.14,0,0,1-1,0c-.24-.08-.55-.13-.6.17C163.46,463.56,162.07,464.36,161.06,465.75Zm-16-30.29c.78-3.32,1.79-6.46.45-9.76C144,428.84,143.35,432,145,435.45ZM52.5,473.63A51.67,51.67,0,0,1,47.11,477c-1.79.95-3.62,1.81-5.43,2.71C45.85,478.73,50.34,478.3,52.5,473.63Zm79.21-232,.85,23.22A109.44,109.44,0,0,0,131.71,241.67ZM128.62,46.94c-1.51,6.89-2.8,13.82-3.84,21.09A5.46,5.46,0,0,0,126,65.17c.35-3.45.83-6.9,1.32-10.33C127.73,52.2,128.19,49.57,128.62,46.94ZM103.19,299.4l.39,0c0-2.4-.08-4.8,0-7.19s.29-4.79.23-7.19a38.91,38.91,0,0,0-.35-7.13C103,285.16,103.32,292.28,103.19,299.4ZM171,325.78a1.18,1.18,0,0,1-.12.26,6.54,6.54,0,0,0-.74,6.34c.14.39.4.63.82.37a2.55,2.55,0,0,0,1.06-2.06c0-.41-.84-.52-.67-.87.55-1.12-.5-2.28.18-3.38C171.71,326.23,171.52,325.92,171,325.78Zm4.19-19.28a17.07,17.07,0,0,1-1.72,0c-1.61-.19-3.16-.51-4.18-2-.22-.32-.41-1-1.06-.4-.48.46-.84.94-.29,1.53s1.23,1.69,2.49,1.06c.24-.12.44,0,.65.18C173,308.22,173.26,308.21,175.23,306.5ZM124.47,84.43A185.12,185.12,0,0,0,122,109.34C122.78,101,123.66,92.73,124.47,84.43Zm-70.56,265A147.55,147.55,0,0,0,52,365.91C53.69,360.55,53.53,355,53.91,349.4Zm40.14-86.84a125.25,125.25,0,0,0,.31-20.94,92,92,0,0,0-.16,14.5,10.82,10.82,0,0,1-.33,5.11A1.39,1.39,0,0,0,94.05,262.57Zm-8.83,16.67h-.33l-.25,1.27c-.3,1.49-.21,3.11-.94,4.44-1.11,2.05-.23,4,0,5.95-.15-2.84,1.11-5.41,1.44-8.14A13.26,13.26,0,0,0,85.23,279.23ZM136.33,422.9a96.49,96.49,0,0,0,3.34,15.82C139,433.35,137.4,428.19,136.33,422.9ZM96.83,234c-.73,1.21-1.15,15.49-.68,18.67ZM59.27,336.67a78.89,78.89,0,0,0-2.12,18.13C57.74,348.74,58.69,342.72,59.27,336.67Zm37.4,78.54c0-5.85-.68-11.62-1.11-17.64A77.88,77.88,0,0,0,96.67,415.21Zm46.64,36.23c-.33.67-.66,1.2-1.36.49a13.25,13.25,0,0,0,.52,3.68c.08.49.14,1.15.94.85.6-.23,1.21-.47.92-1.37C144,454,143.68,452.79,143.31,451.44ZM83.81,261.38c-.7,5.51-.52,11-.56,16.46a12.4,12.4,0,0,0,.54-2.91C83.84,270.41,83.81,265.9,83.81,261.38Zm-19,160.7c-.42,6.28-.91,12.56-.79,18.87C64.42,434.67,64.89,428.39,64.81,422.09Zm94.89-74.36c1,3.46,1,7.21,3.1,10.37C162,354.58,161.5,351,159.69,347.73Zm-23.91-79.61c-.11-4.38,0-8.83-.81-13.3A68.37,68.37,0,0,0,135.79,268.12Zm37.13,70.5c.6-1.13,1.75-2,1.36-3.48-.26-1-.46-2-.74-3-.08-.28,0-.88-.52-.75s-.28.62-.24,1c.15,1.27.34,2.53.5,3.8,0,.35.22.9-.09,1C172.16,337.5,172.83,338.11,172.91,338.62ZM132.3,453.42c0,1.59-.09,3.14,0,4.69a2.07,2.07,0,0,0,1.26,2c.47.19.81.09.61-.55Q133.22,456.49,132.3,453.42ZM95.64,261.58c-.61,2.57-.9,14.49-.51,18.78C95,274.09,95.6,267.84,95.64,261.58ZM82.38,423.73l-.44-7.24A6.52,6.52,0,0,0,82.38,423.73ZM131.14,214c0,.92,0,1.83,0,2.75,0,1.83.12,3.67.18,5.5,0,.5.05,1.12.64,1.1s.31-.66.27-1c-.17-1.63.44-3.3-.68-4.9C130.94,216.52,131.19,215.17,131.14,214ZM51.07,460.24c-.29,2.17.64,3.32,2.67,3.53.24,0,.49.06.64-.19a.55.55,0,0,0-.2-.74Zm79.61-209.68c-.79,4.24.14,8.38.52,12.55C131.31,258.91,130.92,254.73,130.69,250.56Zm17.78,171.28a7.1,7.1,0,0,0-.06-6.09C147.27,417.69,148,419.63,148.47,421.83Zm14.17-40.34-.44.1a61.28,61.28,0,0,0,2.51,10.06ZM83.45,216.65c.58-4,1.73-8,.77-11.79Zm-51.69,261-.11-.15-4.46.9c-.65.13-1.51.47-1.37,1.07s1.05.3,1.57.09C28.87,479,30.31,478.29,31.76,477.65ZM63.41,293l-1.86,8.36C62.56,298.7,64,296.09,63.41,293Z" transform="translate(0 0)"/><path class="cls-1" d="M124.12,48.88q-1.93,8.8-3.87,17.6c-1.37,6.22-2.62,12.46-3.68,18.75-.15.91-.25,1.82-.38,2.73-.05.36-.13.8-.62.7s-.43-.52-.39-.89a32.62,32.62,0,0,0,.39-4.9c0-.83-.44-1.64-.1-2.51.53,0,.38.55.58.75.2,0,.22-.11.25-.22q1.62-8.87,3.61-17.66c3.07-13.6,6.19-27.19,9.25-40.79.41-1.83.6-3.71.86-5.57a1.62,1.62,0,0,0-.24-1.25c-.34-.48.12-.89.45-1.22s.51-.21.7.22c0,.1.22-.34.26-.52.81-3.64,1.6-7.28,2.4-10.91.19-.86.4-1.72.64-2.56.08-.29.22-.67.62-.62a.57.57,0,0,1,.45.74c-.3,1.55.26,3.31-1.14,4.6-.15.14-.14.45-.2.68-2,8.63-4,17.24-5.84,25.9-1.46,7-2.6,14.16-3.87,21.25-1.45,8.11-2.84,16.24-4.33,24.35-1.21,6.53-2.17,13.1-3.15,19.67-1,6.88-1.73,13.81-2.6,20.72-.56,4.45-1.19,8.88-1.74,13.33-.41,3.25-.74,6.52-1.12,9.78-.2,1.67-.43,3.33-.67,5a2,2,0,0,1-.32.76.47.47,0,0,1-.64.15c-.27-.14-.22-.34-.13-.6,1-2.91,1-6,1.43-9,.52-3.52.88-7.07,1.31-10.6q.8-6.61,1.61-13.22c.49-3.93.95-7.87,1.5-11.79.69-5,1.4-9.91,2.21-14.84,1.5-9.24,3.07-18.47,4.87-27.66.67-3.45,1.23-6.92,1.83-10.38Z" transform="translate(0 0)"/><path class="cls-1" d="M33,296.25a6.83,6.83,0,0,1-1.1-3.36c-.11-2.92-.19-5.84-.26-8.77-.18-8.13-.35-16.26-1-24.36-.51-6.38-1.35-12.73-2-19.1-.07-.63-.49-1.66.37-1.76s.75,1,.83,1.68c.76,6.28,1.52,12.56,2,18.86.25,3.11.48,6.23.59,9.35.28,7.84.49,15.69.74,23.53,0,.92.15,1.84.18,2.76C33.35,295.45,33.5,295.89,33,296.25Z" transform="translate(0 0)"/><path class="cls-1" d="M224.15,380.2c-1.52-.08-2.61-.4-3.23-1.56a3.11,3.11,0,0,1,.29-3.4c.49-.73,1-1.45,1.52-2.15a5.05,5.05,0,0,1,5.39-1.7c2.16.64,3.28,2.85,2.08,4.74A8.84,8.84,0,0,1,224.15,380.2Z" transform="translate(0 0)"/><path class="cls-1" d="M97.15,337.4c.56.49.43,1.24.93,1.87-.28-25.09-.11-50,2.22-74.9,0-.16.12-.29.48-.33,0,1.26.07,2.51,0,3.75-.2,3.15-.48,6.3-.71,9.45-.57,7.83-.91,15.67-1.11,23.51-.16,6.33-.08,12.66-.09,19,0,8.54,0,17.07,0,25.61,0,.55.28,1.53-.43,1.52s-.38-1-.38-1.53a33.58,33.58,0,0,0-1-7.23C97,337.89,96.82,337.66,97.15,337.4Z" transform="translate(0 0)"/><path class="cls-1" d="M219.69,422.1a17.79,17.79,0,0,1,2.35-3.17c3.12-4.08,6.71-7.74,10.15-11.55,5.13-5.68,10.48-11.15,15.32-17.08.28-.34.5-.72.76-1.08s.5-.72,1-.46.37.76.14,1.16a11.12,11.12,0,0,1-.83,1.17c-3.1,4-6.68,7.66-10.1,11.44q-6.69,7.4-13.45,14.72c-1.44,1.56-3,3-4.52,4.48A.82.82,0,0,1,219.69,422.1Z" transform="translate(0 0)"/><path class="cls-1" d="M.51,347.91a1.29,1.29,0,0,1,1,1c.62,1.65,1.25,3.29,1.82,5,2.06,6.1,4.64,12,6.54,18.18a5.17,5.17,0,0,0,1.23,1.75c.22.26.62.52.22.9s-.63,0-.83-.19A9.9,9.9,0,0,1,8.35,372c-3.2-7.16-6.42-14.31-8.11-22A11.75,11.75,0,0,1,0,348.49C0,348.18.19,348,.51,347.91Z" transform="translate(0 0)"/><path class="cls-1" d="M33.07,428.2c1.1,1.91,1.59,3.7.9,5.66A2.08,2.08,0,0,1,30.61,435c-3.05-2.06-4.65-7.38-3.23-10.76A2.08,2.08,0,0,1,28.62,423a1.19,1.19,0,0,1,1.42.31,1,1,0,0,1,0,1.34,3.88,3.88,0,0,0-.72,2.48c0,.87.07,1.58,1.21,1.66.73.05.87.87,1.34,1.4A8.45,8.45,0,0,0,33.07,428.2Z" transform="translate(0 0)"/><path class="cls-1" d="M193.63,373.16a14.73,14.73,0,0,1-2.51,6.15,2.13,2.13,0,0,1-2.59.76,2,2,0,0,1-1.36-2.07,16.58,16.58,0,0,1,1.39-6.42,2.63,2.63,0,0,1,3.22-1.46A2.85,2.85,0,0,1,193.63,373.16Z" transform="translate(0 0)"/><path class="cls-1" d="M187.75,426.42c.61-3.83.63-7.94,1.53-11.93.16-.7.26-1.55,1.17-1.61s1.42.79,2.09,1.25c.23.16.13.52,0,.79-1.18,2.68-1.22,5.61-1.78,8.42-.23,1.18-.38,2.37-.6,3.55-.15.82-.25,1.85-1.4,1.73S187.8,427.45,187.75,426.42Z" transform="translate(0 0)"/><path class="cls-1" d="M125.78,101.31c.09-1.28.16-2.56.28-3.84.36-3.58.68-7.15,1.12-10.72.69-5.59,1.21-11.2,2.1-16.77,1-6,2.36-11.93,3.12-18,0-.33,0-.9.44-.83s.3.63.26,1c-.71,6.57-2.38,13-3.28,19.52-.63,4.55-1.23,9.11-1.58,13.7-.32,4.14-.66,8.29-1.11,12.42a21.41,21.41,0,0,1-1,3.52Z" transform="translate(0 0)"/><path class="cls-1" d="M33.3,321.93c-.11.87-.33,1.57-1.13,1.81s-1.22-.23-1.59-.8a16.32,16.32,0,0,1-2.22-6.15,1.43,1.43,0,0,1,1-1.82c.87-.2,1.1.6,1.38,1.21.76,1.61,1.53,3.23,2.28,4.84A7.53,7.53,0,0,1,33.3,321.93Z" transform="translate(0 0)"/><path class="cls-1" d="M31.51,397.92a15.17,15.17,0,0,0-1.16,4.32,9.87,9.87,0,0,0,.09,2.62c.06.34,0,.76.55.8a.91.91,0,0,0,1-.67c.29-.84.61-1.67,1-2.74.5,1,0,1.65-.17,2.29a2.82,2.82,0,0,0,.19,2.6c.4.59.67,1.42-.57,1.54-.51.05-.45.48-.52.82-.18.9-.32,1.81-.54,2.7-.12.5-.33,1.1-1,1s-.81-.73-.76-1.32c.12-1.43.27-2.86.44-4.29A3.61,3.61,0,0,0,30,406a10.82,10.82,0,0,1,.32-6.59A2.15,2.15,0,0,1,31.51,397.92Z" transform="translate(0 0)"/><path class="cls-1" d="M167.44,433.88a14.58,14.58,0,0,1-2.3-4.86c-1.23-4.56-2.32-9.16-3.21-13.8-.13-.68-.53-1.8.45-1.93s.58,1,.69,1.63c1,5.39,2.33,10.71,3.76,16A8.64,8.64,0,0,1,167.44,433.88Z" transform="translate(0 0)"/><path class="cls-1" d="M274.11,315.55a6.67,6.67,0,0,1-2.8,3.18c-1.91,1.17-3.84,2.31-5.71,3.54a4.1,4.1,0,0,0-2.16,2.6.58.58,0,0,1-.69.52c-.44-.07-.57-.43-.56-.81a2.94,2.94,0,0,1,1-2.1,18.17,18.17,0,0,1,3.51-2.5Z" transform="translate(0 0)"/><path class="cls-1" d="M26.1,379.7A1.89,1.89,0,0,1,24,378.22c-.25-1.09-.4-2.2-.6-3.3-.14-.77.22-.79.81-.6a2.72,2.72,0,0,1,1.84,1.9c.12.36.12.82.68.85.84.05,1.59.34,1.48,1.33s-1,1.11-1.8,1.28A2.41,2.41,0,0,1,26.1,379.7Z" transform="translate(0 0)"/><path class="cls-1" d="M70.18,478.19c-.54,0-.88-.15-1-.62s.2-.66.57-.79a24.84,24.84,0,0,0,7-3.87,1.32,1.32,0,0,1,1.56-.2c.42.25.75.57.15,1A31.58,31.58,0,0,1,70.9,478C70.63,478.06,70.36,478.13,70.18,478.19Z" transform="translate(0 0)"/><path class="cls-1" d="M206.44,442.82a9.7,9.7,0,0,1-2.12,3c-.49.47-1,.93-1.5,1.38a1.56,1.56,0,0,0-.58,1.8c.18.59.23,1.3-.51,1.51s-.9-.57-1.13-1.09a2.6,2.6,0,0,1,.66-3.16A10.91,10.91,0,0,1,206.44,442.82Z" transform="translate(0 0)"/><path class="cls-1" d="M72.88,310.32c1.17-4.52.43-8.92.63-13.29,0-.4,0-.8,0-1.2s0-1,.57-1,.47.64.47,1.05c0,3.6,0,7.2,0,10.8A4.06,4.06,0,0,1,72.88,310.32Z" transform="translate(0 0)"/><path class="cls-1" d="M18.93,327.4a1.48,1.48,0,0,0,.73,2c.73.46.57,1.17-.24,1.38a1.4,1.4,0,0,0-1.09,1,.89.89,0,0,1-1.11.67.87.87,0,0,1-.69-1c.3-1.64.66-3.26,1-4.88a.62.62,0,0,1,.89-.37C19,326.39,19,326.86,18.93,327.4Z" transform="translate(0 0)"/><path class="cls-1" d="M113.52,432.85c0,.26.14.79-.34.81s-.38-.52-.43-.86c-.58-4.44-1.08-8.89-1.4-13.36-.05-.7-.38-2,.32-2s.35,1.19.42,1.86c.38,3.5.72,7,1.08,10.5C113.27,430.8,113.4,431.79,113.52,432.85Z" transform="translate(0 0)"/><path class="cls-1" d="M73.74,470.88a7.18,7.18,0,0,1-1-.26c-.45-.18-1-.43-.82-1s.71-.47,1.18-.34a2.62,2.62,0,0,0,1.42,0c.36-.1.93-.19.79-.7a.88.88,0,0,0-1.2-.67c-.35.12-.78.51-1-.05s.24-.73.51-1a1.19,1.19,0,0,1,1.54-.24c.85.51,1.94,1,1.91,2.12s-1.14,1.54-2.08,1.9A7.69,7.69,0,0,1,73.74,470.88Z" transform="translate(0 0)"/><path class="cls-1" d="M79.67,313.69a27.06,27.06,0,0,0,1.58-10.41c0-.48,0-1,0-1.44s-.06-.94.51-.91.45.58.46,1a41.11,41.11,0,0,1-1,10A1.94,1.94,0,0,1,79.67,313.69Z" transform="translate(0 0)"/><path class="cls-1" d="M180.33,312.67c0-.1-.08-.14-.07-.16,1.75-2.9,2.56-6.2,3.95-9.25a3.65,3.65,0,0,1,.53-.93.92.92,0,0,1,1-.15c.3.11.16.4.07.62-1.4,3.22-2.61,6.54-4.8,9.36C180.86,312.36,180.74,312.65,180.33,312.67Z" transform="translate(0 0)"/><path class="cls-1" d="M110.08,396.58c-.61-.89-1.55-14.38-1.06-15.33C109.64,382.2,110.57,395.61,110.08,396.58Z" transform="translate(0 0)"/><path class="cls-1" d="M135.86,350.18c0-1.24,0-2.48,0-3.73,0-.39-.17-1.06.44-1.05s.33.64.33,1c0,2.08.08,4.17,0,6.25-.08,1.59.86,2.95.83,4.51,0,.31.21.72-.11.88s-.65-.23-.81-.52c-.66-1.16-.51-2.49-.64-3.75A35,35,0,0,1,135.86,350.18Z" transform="translate(0 0)"/><path class="cls-1" d="M56.91,466.06a10.79,10.79,0,0,1,3.48.83c3.56,1.32,7.13,2.62,10.65,4.05.85.35,1.77-.05,2.52.49.33.23,1,.34.75.88s-.72.13-1.08,0c-4-1.48-7.93-3-11.91-4.46-1.08-.4-2.2-.71-3.31-1C57.61,466.68,57.15,466.67,56.91,466.06Z" transform="translate(0 0)"/><path class="cls-1" d="M198.95,425.62c.35,0,.77.09.56.67a5.41,5.41,0,0,1-2.22,3.14.93.93,0,0,1-1,.08.9.9,0,0,1-.4-.93A4.3,4.3,0,0,1,198.95,425.62Z" transform="translate(0 0)"/><path class="cls-1" d="M188.16,382.21c.21.48-.14.78-.37,1.05-1,1.23-1.78,2.65-2.86,3.84-.68.75-.37,1.65-.1,2.5.08.25.38.54.08.76s-.6-.09-.83-.28a2.43,2.43,0,0,1,.15-3.63c1.36-.87,2.05-2.32,3.1-3.45C187.59,382.73,187.66,382.26,188.16,382.21Z" transform="translate(0 0)"/><path class="cls-1" d="M153.9,381.71a.35.35,0,0,1-.25.28.5.5,0,0,1-.53-.2,4.14,4.14,0,0,1-.82-2c-.19-.69-.41-1.38-.55-2.09-.09-.43-.15-1,.43-1.09a.81.81,0,0,1,.94.74A40.15,40.15,0,0,0,153.9,381.71Z" transform="translate(0 0)"/><path class="cls-1" d="M160.23,403.89a1.25,1.25,0,0,1-1.09-.66,38.23,38.23,0,0,1-1.86-4.65.49.49,0,0,1,.2-.63c.3-.16.54,0,.72.25a2.08,2.08,0,0,1,.37.6C159.12,400.45,159.66,402.11,160.23,403.89Z" transform="translate(0 0)"/><path class="cls-1" d="M75.3,308.14c1.48-2.43,1.36-5,1.6-7.49,0-.34-.08-.87.39-.86s.4.54.38.87a32.89,32.89,0,0,1-.78,6A1.83,1.83,0,0,1,75.3,308.14Z" transform="translate(0 0)"/><path class="cls-1" d="M182.6,312.79a1.37,1.37,0,0,1,.17-1.3c1-2.21,1.92-4.49,2.79-6.77.09-.25.14-.65.5-.53s.2.48.11.73a72.62,72.62,0,0,1-3.16,7.52C183,312.56,182.79,312.63,182.6,312.79Z" transform="translate(0 0)"/><path class="cls-1" d="M11.13,351.57c-1.05,0-1.49-.51-1.2-1.49a8.12,8.12,0,0,1,.51-1.21.65.65,0,0,1,.77-.41.56.56,0,0,1,.42.64,2.49,2.49,0,0,0,.35,1.12C12.42,351.16,12.16,351.54,11.13,351.57Z" transform="translate(0 0)"/><path class="cls-1" d="M206.68,165.08c0,.38.44.71.15,1.13-.46.14-.55-.27-.7-.5a9.52,9.52,0,0,0-4.08-3.38,1.41,1.41,0,0,0-.93,0,7.63,7.63,0,0,0-5,2.85c-.19.25-.41.61-.76.35s0-.58.12-.85c.71-1.41,2.19-1.93,3.31-2.88-.86-.73-.86-.73-1.92-.17l.26-2.18c.57.15.61.7,1,.92a6.69,6.69,0,0,0,1.43.86c.54.17,1.34.37,1.67-.12s-.4-.87-.72-1.25a14.3,14.3,0,0,1-1.45-1.84,5.36,5.36,0,0,1,2.46,2c.34.38.57.89,1.24.71.26-.07.56.11.38.39-.5.79.16,1,.6,1.26a19,19,0,0,1,2.59,2.31Z" transform="translate(0 0)"/><path class="cls-1" d="M244.84,123.27c-.09,0-.24-.08-.28-.16-.14-.29,0-.54.19-.77.92-1.45,1.81-2.93,2.78-4.34,2.32-3.4,4.69-6.77,7-10.15a5.45,5.45,0,0,1,.44-.56.38.38,0,0,1,.53-.09.38.38,0,0,1,.08.54c-.28.48-.58,1-.9,1.41-3,4.36-6.22,8.62-9,13.18A1.89,1.89,0,0,1,244.84,123.27Z" transform="translate(0 0)"/><path class="cls-1" d="M220.21,97.82c.23.54-.09.87-.23,1.21-.46,1.1-1.16,2.08-1.54,3.23s-1.38,1.63-2.26,2.24a63.6,63.6,0,0,1-5.87,3.22c-.8.44-2.2.08-3.31.33-.27.06-.57,0-.77.38.69.52,1.63,0,2.46.56a4.06,4.06,0,0,1-2.62.12.72.72,0,0,1-.59-.68.82.82,0,0,1,.61-.8,22.65,22.65,0,0,1,3-.66c4.43-1.26,8.17-3.42,10.11-7.88A2.47,2.47,0,0,1,220.21,97.82Z" transform="translate(0 0)"/><path class="cls-1" d="M252.37,103.64a1.26,1.26,0,0,1-.45,1c-1.69,1.39-2.62,3.32-3.67,5.16a65.51,65.51,0,0,1-6.16,8.59c-.22.27-.46.79-.8.54s0-.74.26-1a47.77,47.77,0,0,0,6.52-9.34,27.79,27.79,0,0,1,3.26-4.78c.19-.24.44-.5.82-.37A.48.48,0,0,1,252.37,103.64Z" transform="translate(0 0)"/><path class="cls-1" d="M228.2,97c-.44-1.79-.93-3.24-1.42-4.69a39.28,39.28,0,0,0-4.86-9.19c-.29-.43-.53-1-1.28-.85-.43.09-.59-.33-.72-.67a.46.46,0,0,1,.2-.62.84.84,0,0,1,.9.15,5.08,5.08,0,0,1,1.36,1.34A41.07,41.07,0,0,1,228.2,94,3.76,3.76,0,0,1,228.2,97Z" transform="translate(0 0)"/><path class="cls-1" d="M260.32,87.29c-.12.49.18,1.36-.36,1.37-.76,0-.4-.86-.48-1.36a29.91,29.91,0,0,0-2.79-9,2.23,2.23,0,0,0-1-1.12,1.35,1.35,0,0,1-.64-.69c-.18-.37-.36-.82,0-1.1s.74.09,1,.39a16.4,16.4,0,0,1,3.24,6.5A21.74,21.74,0,0,1,260.32,87.29Z" transform="translate(0 0)"/><path class="cls-1" d="M231.71,90.41c0,.32,0,.56-.08.8s-.12.42-.35.44-.39-.26-.39-.49c0-4.19-2.65-7.09-4.84-10.22a7.68,7.68,0,0,0-2-2.24c-.24-.15-.51-.35-.23-.66a.5.5,0,0,1,.75,0,10.32,10.32,0,0,1,1,1.15c2.09,2.73,4.35,5.35,5.51,8.68A12.71,12.71,0,0,1,231.71,90.41Z" transform="translate(0 0)"/><path class="cls-1" d="M234.37,161.33a25,25,0,0,0-3.8-.92q-4.8-.68-9.58-1.44c-.4-.06-1.19,0-1-.64s.86-.32,1.29-.2c3.43,1,7,1,10.49,1.75A3.55,3.55,0,0,1,234.37,161.33Z" transform="translate(0 0)"/><path class="cls-1" d="M241.49,110.63c-.33,1-.66,2-1,3.1-.56,1.58-1.12,3.16-1.71,4.73-.12.32-.29.83-.68.69s-.13-.61,0-.91c.92-2.64,2-5.23,2.71-7.93.07-.24.18-.51.45-.46S241.48,110.27,241.49,110.63Z" transform="translate(0 0)"/><path class="cls-1" d="M215.84,89.59c-2.88-1.18-5.33-.33-7.56,1.5-.15.13-.34.25-.53.09s-.07-.28,0-.42c1.24-1.63,5.58-3.39,7.82-1.86C215.75,89,215.92,89.14,215.84,89.59Z" transform="translate(0 0)"/><path class="cls-1" d="M178.9,185.81c1-.76,2.18-.51,3.22-.86a1,1,0,0,1,.82.06c1.67,1.35,3.84,2.16,4.77,4.33.18.41.66,1,.1,1.26s-.66-.41-.86-.76c-.71-1.23-1.32-2.53-3-3.12.79,1.21,1.68,2.12,2.3,3.23a2.26,2.26,0,0,1-.1,2.78,1.73,1.73,0,0,0-.29.38,1.58,1.58,0,0,1-2.59.81,17.68,17.68,0,0,1-3.29-2c-.46-.45-.78,0-1.15.17-1.09.62-1.87.23-2-1,0-.16,0-.17-.17-.21-1.3-.45-.62-1.28-.36-2,.08-.22.33-.37.41-.58a.86.86,0,0,0-.08-.9c-.2-.19-.52,0-.77.15s-.47.61-.8.26.05-.66.26-.93a17,17,0,0,1,4.67-3.72c.18-.11.38-.18.55,0s.12.44,0,.67C180.26,184.67,179.42,185.08,178.9,185.81Z" transform="translate(0 0)"/><path class="cls-1" d="M187.85,177.77a24.14,24.14,0,0,0,3.14-2c1.71-1.55,5.49-1.1,7.12.8a6.34,6.34,0,0,1,1.29,2,2.42,2.42,0,0,0,.42.72c.2.25.78.26.56.76-.15.33-.57.23-.87.29-.48.1-.59-.26-.69-.63-.58-2.2-2.36-2.9-4.27-3.45a7.47,7.47,0,0,1,3.21,4.19c.29,1.23-.25,2.27-2,3.35a2.17,2.17,0,0,1-2.77-.29,10.88,10.88,0,0,1-1.12-1.08c-.44-.5-.79-1.21-1.54-.36-.07.08-.29,0-.44,0,.16-1.25-1.9-1.25-1.5-2.64-1-.3,0-1.25-.57-1.7Z" transform="translate(0 0)"/><path class="cls-1" d="M204.71,142.69c.48.06.52.38.59.63a17,17,0,0,1-.85,11.36c-.54,1.28-1.9,1.9-2.84,2.87a.41.41,0,0,1-.64,0,.38.38,0,0,1,.09-.54c1-.77.93-1.84.88-2.94a2.94,2.94,0,0,1,1.85-3,2,2,0,0,0,1.13-1.56,12.31,12.31,0,0,0-.19-5.11A3.72,3.72,0,0,1,204.71,142.69Z" transform="translate(0 0)"/><path class="cls-1" d="M187.85,177.76l-.09.07c-.49.26-.64,1.32-1.3.9s.09-1,.28-1.49a11.22,11.22,0,0,1,2.94-3.7c.19-.18.42-.47.7-.19s0,.58-.14.74c-1.18,1-1.54,2.49-2.4,3.68Z" transform="translate(0 0)"/><path class="cls-1" d="M182.38,208.72c.8,6.69,2.26,13,2.43,19.48C183.54,225.54,181.66,210.51,182.38,208.72Z" transform="translate(0 0)"/><path class="cls-1" d="M183,211.14c0-.3-.06-.74.38-.76s.36.37.4.64c.73,5,1.93,10,2.41,15.06,0,.3.19.73-.26.79s-.44-.4-.47-.69c-.55-4.49-1.49-8.92-2.19-13.39C183.15,212.24,183.06,211.69,183,211.14Z" transform="translate(0 0)"/><path class="cls-1" d="M204.91,114.66a5.8,5.8,0,0,1,2.67,2.64c1.1,1.9,2.75,3.32,4,5s2.68,3.18,3.94,4.84a18.93,18.93,0,0,1,3.11,7.35.68.68,0,0,1,0,.35c0,.06-.11.09-.25.2a14.75,14.75,0,0,1-1-3.25c-1.06-3.32-3.42-5.74-5.55-8.33-1.24-1.51-2.62-2.94-3.79-4.48A45.41,45.41,0,0,1,204.91,114.66Z" transform="translate(0 0)"/><path class="cls-1" d="M152.85,158c.11-.43-.13-1,.39-1s.44.49.49.84a32.48,32.48,0,0,0,2,6.4c1.34,3.55,2.78,7,4.39,10.48.14.3.33.63,0,.85s-.69-.09-.87-.4c-1.62-2.79-3.32-5.55-4-8.78a18.24,18.24,0,0,0-1.11-2.91A35.88,35.88,0,0,1,152.85,158Z" transform="translate(0 0)"/><path class="cls-1" d="M294.9,95.14a3.56,3.56,0,0,1,.72.08c.41.13,1.06.19,1,.66,0,.63-.7.38-1.07.35-1.28-.08-2.07.71-2.89,1.48-.44.41-1,1.22-1.54.63s.36-1,.73-1.43A4.26,4.26,0,0,1,294.9,95.14Z" transform="translate(0 0)"/><path class="cls-1" d="M211.32,257.47c-1.13,2.35-1.79,4.3-3.29,5.78.18-1.62,1.88-2.72,1.39-4.57-.45.92-.87,1.85-1.35,2.74-.19.35-.42,1-.92.66s.15-.6.28-.91c.42-.95.89-1.87,1.28-2.84.21-.53.68-1.2-.39-1.48-.34-.09-.16-.42,0-.56.37-.27.74-.73,1.25-.27a1.65,1.65,0,0,1,.46,1.2C210.09,257.78,209.85,258.74,211.32,257.47Z" transform="translate(0 0)"/><path class="cls-1" d="M200.15,195c-.17.16-.33.33-.51.48a1.38,1.38,0,0,1-.83.31.67.67,0,0,1-.75-.64,1.08,1.08,0,0,1,.11-.68,9,9,0,0,1,.74-1.18,1.06,1.06,0,0,1,1.59-.11.93.93,0,0,1,.09,1.41,5.93,5.93,0,0,1-.43.42Z" transform="translate(0 0)"/><path class="cls-1" d="M190.13,192.09a1.24,1.24,0,0,1,1-.36.51.51,0,0,1,.44.36.44.44,0,0,1-.19.52c-.1.08-.24.11-.36.18a.32.32,0,0,0-.14.43,3.78,3.78,0,0,1,.16.37.52.52,0,0,1-.4.68.79.79,0,0,1-1.06-.73A1.83,1.83,0,0,1,190.13,192.09Z" transform="translate(0 0)"/></g></svg>