<svg id="レイヤー_1" data-name="レイヤー 1" xmlns="http://www.w3.org/2000/svg" viewBox="0 0 201.88 269.68"><title>movie1_1</title><path d="M144.43,269.68a2.93,2.93,0,0,0-1-1.57c-.31-.3-.64-.6-.93-.92s-.45-.53-.08-.87a.49.49,0,0,0,.07-.38,1.81,1.81,0,0,1,.53-1.47,19.9,19.9,0,0,0,2-3c.49-.88,1-1.74,1.6-2.56a2.4,2.4,0,0,0,.51-1.49c0-.81,0-1.62,0-2.42a2.39,2.39,0,0,0-.17-.88c-.37-.94-.73-1.88-1-2.83a23.29,23.29,0,0,1-.79-2.28c-.18-.85-.44-1.68-.69-2.51q-.53-1.84-1.09-3.67a1.23,1.23,0,0,0-.41-.68c-.22-.05-.29.13-.4.25-.75.81-1.5,1.63-2.17,2.52a19.68,19.68,0,0,0-2.17,4c-.54,1.2-1.06,2.4-1.7,3.54a4,4,0,0,1-.3.52.65.65,0,0,1-1,.18.6.6,0,0,0-.89.09,1.71,1.71,0,0,1-1.45.56,2.94,2.94,0,0,0-1.19.18,3.57,3.57,0,0,1-2.66,0,1.88,1.88,0,0,0-.58-.15,3.55,3.55,0,0,1-1.75-.41.52.52,0,0,0-.65.13l-3.2,3.22a.72.72,0,0,0-.21.55,1.34,1.34,0,0,1-.52,1.05,11.57,11.57,0,0,0-1.8,2.17,15,15,0,0,1-1.89,2c-.54.55-1.08,1.11-1.61,1.67a1.53,1.53,0,0,0-.36.72,1,1,0,0,1-1.07.87,1.87,1.87,0,0,0-1.64.83,1.8,1.8,0,0,1-1,.68,1.18,1.18,0,0,0-.8.54.78.78,0,0,1-.69.35,6,6,0,0,1-1.61-.09,13,13,0,0,0-1.29-.25,2.34,2.34,0,0,1-1.42-.69,20.79,20.79,0,0,1-2.55-2.86,2.13,2.13,0,0,0-.44-.55,6.25,6.25,0,0,1-1.3-1.4c-1-1.33-2.21-2.53-3.33-3.79a16.31,16.31,0,0,1-2.39-3.6,31.74,31.74,0,0,1-1.47-3.2c-.16-.44-.5-.8-.68-1.23-.86-2-1.83-4-2.85-6a22.35,22.35,0,0,1-1.06-2.5,19.45,19.45,0,0,0-1.62-3.24c-.43-.72-.9-1.42-1.39-2.1a33.16,33.16,0,0,1-2.35-4.22,25.37,25.37,0,0,1-1.34-2.59,5.81,5.81,0,0,1-.3-.85,3.85,3.85,0,0,0-.27-.76c-.11-.24-.2-.65-.46-.6s-.22.5-.2.77c.05.77.12,1.54.25,2.31a4,4,0,0,1-.13,2.08,13.37,13.37,0,0,1-.51,1.73A10,10,0,0,1,80,237.81a3.22,3.22,0,0,0-.63.65,5.69,5.69,0,0,1-3.14,2.08,1.26,1.26,0,0,0-1,1.11,9.88,9.88,0,0,1-.72,2.62,2.86,2.86,0,0,0-.11.69,2.27,2.27,0,0,1-.12.69,2.51,2.51,0,0,0,.31,2.76,3.43,3.43,0,0,1,.61,2.37c0,.43,0,.87,0,1.31a6,6,0,0,1-.36,2.27,8.93,8.93,0,0,0-.44,3.18A3.47,3.47,0,0,1,74,259.2a1.85,1.85,0,0,1-.86.81,5.92,5.92,0,0,1-3.43.59c-.34,0-.66-.11-.92.22a.91.91,0,0,1-.74.27c-.61,0-1.21,0-1.82-.06a.38.38,0,0,1-.38-.28.45.45,0,0,1,.27-.49c.22-.07.46-.09.69-.14s.37-.2.29-.43a12.45,12.45,0,0,0-.77-2.18,6.9,6.9,0,0,1-.52-1.63.61.61,0,0,1,.42-.72.63.63,0,0,1,.83.35c.36.83.7,1.67,1.05,2.51.13.31.27.61.42.92a.19.19,0,0,0,.15.09.2.2,0,0,0,.14-.12,3.58,3.58,0,0,0,.07-.6c0-1.14,0-2.29,0-3.43a5.19,5.19,0,0,1,0-.7,1.33,1.33,0,0,1,.34-.72.52.52,0,0,1,.9.16,2.4,2.4,0,0,1,.11.69q0,1.06,0,2.12a3.79,3.79,0,0,1-.4,1.66A.76.76,0,0,0,70,259a.78.78,0,0,0,1,.17,4,4,0,0,1,1.43-.45.82.82,0,0,0,.72-.62,5.29,5.29,0,0,0,.34-1.68,34.31,34.31,0,0,1,.37-3.81,15.16,15.16,0,0,0,0-2.42,1.87,1.87,0,0,0-.21-.67c-.11-.24-.27-.47-.39-.71a3.88,3.88,0,0,1-.4-3,7.52,7.52,0,0,0,.25-2.4,4.06,4.06,0,0,1,.23-1.69c.14-.33,0-.5-.41-.44l-1.09.2a4.64,4.64,0,0,1-3.25-.8,1,1,0,0,1-.44-.54.63.63,0,0,1,.09-.67.52.52,0,0,1,.64-.11c.44.17.89.31,1.34.45a2.77,2.77,0,0,0,1.79,0,3.68,3.68,0,0,1,1.29-.22,2.89,2.89,0,0,0,1.08-.22,2.78,2.78,0,0,1,.68-.18,4.11,4.11,0,0,0,2.84-1.54A18,18,0,0,1,79.53,236a10.21,10.21,0,0,0,1.56-2.46,11,11,0,0,0,.25-3.3c-.09-.53-.13-1.07-.17-1.61a12.4,12.4,0,0,0-.23-1.39c-.23-1.25-.4-2.52-.55-3.79a13.2,13.2,0,0,1,0-1.61,3,3,0,0,0-.2-1.18,3,3,0,0,1,0-2,3.47,3.47,0,0,1,.23-.67c.78-1.49,1.21-3.14,2.07-4.59a2.09,2.09,0,0,0,.18-.36A18.77,18.77,0,0,1,85,209a2.14,2.14,0,0,1,.62-.65c.58-.35.74-.56,1.34,0,.3.26.37.23.7,0s.57-.47.84-.72a4.12,4.12,0,0,1,.92-.62.83.83,0,0,1,1.23.43c.08.18.1.39.17.58a.38.38,0,0,0,.5.22,1.22,1.22,0,0,0,.27-.13c1.16-.82,2.44-.6,3.7-.4a3.08,3.08,0,0,0,1.26,0,13.09,13.09,0,0,1,2.55-.58.67.67,0,0,0,.3-.06,4.69,4.69,0,0,1,2.37-.33c1,0,2.09.07,3.13,0a2,2,0,0,1,1.91,1.06,5.65,5.65,0,0,0,1,1.24,4.24,4.24,0,0,1,1,1.38,3.39,3.39,0,0,0,1.16,1.36,6.54,6.54,0,0,1,1.49,1.63c.54.81,1.2,1.54,1.81,2.3a.91.91,0,0,0,.72.32,10.27,10.27,0,0,0,3.9-.34,12.83,12.83,0,0,0,2.81-1.56,20.86,20.86,0,0,0,3.3-3.11,22.84,22.84,0,0,0,1.5-2c1-1.36,2.16-2.58,3.24-3.87a2.56,2.56,0,0,0,.39-.46c.83-1.72,2.2-3,3.27-4.59a2.6,2.6,0,0,0,.51-1.19,2.19,2.19,0,0,1,.89-1.62,4.91,4.91,0,0,0,1.14-1.28,11,11,0,0,1,.71-1,3.43,3.43,0,0,0,.73-1.63,9.41,9.41,0,0,1,1-2.65c.6-1.13,1.17-2.27,1.77-3.4a8.37,8.37,0,0,0,1.11-4.54,2.69,2.69,0,0,0-2.13-2.58,3.09,3.09,0,0,1-1.46-.62,1.39,1.39,0,0,0-.95-.28,8.33,8.33,0,0,1-1.89-.25,4.16,4.16,0,0,0-2.39.09,3.38,3.38,0,0,1-.89.17,3,3,0,0,0-1.27.28,1.05,1.05,0,0,1-.38.12,23.8,23.8,0,0,0-3.89,1,11.61,11.61,0,0,0-2.36.87,11.51,11.51,0,0,1-1.72.54c-1,.36-2.13.6-3.18.92a13.68,13.68,0,0,0-1.31.53l-3.15,1.34a4.06,4.06,0,0,1-1.15.37,3.57,3.57,0,0,0-1.37.61,2.89,2.89,0,0,1-1.39.54l-.1,0c-1.35.64-2.78.32-4.18.34a4.37,4.37,0,0,1-1.75-.46,2.45,2.45,0,0,1-1.39-1.64.85.85,0,0,1,.48-1,.54.54,0,0,1,.58.05,7.15,7.15,0,0,1,.68.6,1.83,1.83,0,0,0,1.66.54c.3,0,.6-.06.9-.08a3.83,3.83,0,0,0,2.31-.87,2.18,2.18,0,0,1,1-.43.44.44,0,0,0,.32-.55.31.31,0,0,0,0-.1,4.34,4.34,0,0,1-.35-2.36c0-.27,0-.54,0-.81a.91.91,0,0,0-.59-1c-.33-.12-.35-.44-.31-.77s-.12-.37-.36-.29a13.21,13.21,0,0,0-2.52,1c-.49.29-1,.53-1.52.79a14.7,14.7,0,0,1-2.26.84c-.86.28-1.71.59-2.56.88a.82.82,0,0,0-.56.85,2.69,2.69,0,0,0,.55,1.6,7.36,7.36,0,0,0,1.19,1.49,47.2,47.2,0,0,0,3.48,3.22.89.89,0,0,1,.15.14A9.91,9.91,0,0,0,109,191.1a2.45,2.45,0,0,1,.91.4.35.35,0,0,1-.06.59,1.58,1.58,0,0,1-1,.21,5.26,5.26,0,0,1-1.67-.36,9.15,9.15,0,0,1-3.11-2,5.44,5.44,0,0,0-.62-.52,29.09,29.09,0,0,1-3.38-3.17c-.3-.32-.62-.61-.91-.94a.84.84,0,0,0-.7-.29,1,1,0,0,1-1.14-1c0-.23,0-.47,0-.71s-.09-.73-.14-1.1a1.33,1.33,0,0,0-.73-1c-.86-.49-.86-1,0-1.54a.63.63,0,0,0,.37-.55,2.21,2.21,0,0,1,.35-.93c.17-.38.15-.61-.18-.77a1.25,1.25,0,0,1-.68-1.34c0-.5,0-1,0-1.51a2.37,2.37,0,0,1,.28-1.36.59.59,0,0,0,.09-.28,7.79,7.79,0,0,1,.61-2.33,19.23,19.23,0,0,1,1.81-4,18.86,18.86,0,0,0,1.81-4.14,5.26,5.26,0,0,1,.38-.93c.76-1.31,1.5-2.63,2.28-3.93a14,14,0,0,1,2.45-3.06c1.23-1.15,2.47-2.29,3.68-3.46a6.45,6.45,0,0,0,1.24-1.71c.19-.36.35-.73.56-1.07a3.61,3.61,0,0,0,.63-1.68.76.76,0,0,1,.67-.77.67.67,0,0,0,.53-.54A13.51,13.51,0,0,0,114,143a13.33,13.33,0,0,1,.67-2.31,4.3,4.3,0,0,0,.21-.57,3.39,3.39,0,0,1,1-1.71,1.4,1.4,0,0,1,.74-.5,1.2,1.2,0,0,0,.92-1,4.36,4.36,0,0,0,.2-.78c.06-.62.48-1.12.54-1.73a5.65,5.65,0,0,1,.3-1.68,2,2,0,0,0,.08-1.1,6.7,6.7,0,0,0-1-3,2.27,2.27,0,0,1-.38-1.53,1.74,1.74,0,0,1,.18-.78,3.17,3.17,0,0,0,.1-2.45,8.15,8.15,0,0,1-.31-1.27,2.36,2.36,0,0,0-.42-1,5.54,5.54,0,0,1-.61-1.27,1.67,1.67,0,0,0-.21-.46c-.66-1-1.33-1.94-2-2.91a10.06,10.06,0,0,1-.6-.93,8,8,0,0,0-.88-1.47,1.08,1.08,0,0,1-.2-1,3.15,3.15,0,0,0,.09-1.2.56.56,0,0,0-.59-.56,2.76,2.76,0,0,0-.5,0,.48.48,0,0,0-.46.33,2.67,2.67,0,0,1-1.25,1.52,2.89,2.89,0,0,0-.31.26c-.39.37-.42.39-.82.05a.62.62,0,0,0-.82-.05,5.59,5.59,0,0,1-.64.3,4.19,4.19,0,0,0-1.57,1.08,5.48,5.48,0,0,1-1.32,1.09,3.93,3.93,0,0,0-1.28,1.26,6.18,6.18,0,0,1-.89,1.09c-.78.78-1.54,1.59-2.31,2.39a2.38,2.38,0,0,0-.32.39,8.69,8.69,0,0,1-1.4,1.71,1.26,1.26,0,0,0-.45,1.25c.08.42-.18.66-.6.57a1.59,1.59,0,0,0-1.24.23,2.38,2.38,0,0,1-1.28.23c-.13,0-.31,0-.34.12s.17.27.32.33a1.58,1.58,0,0,0,.8.06c.16,0,.32-.1.49-.13s.61.09.61.37a2.36,2.36,0,0,0,.88,1.64,2.87,2.87,0,0,1,.44,2.76c-.06.33-.35.47-.66.55s-.34.28-.3.55.08.6.11.9a1.23,1.23,0,0,1-.77,1.3,5.4,5.4,0,0,1-1.91.61,4.88,4.88,0,0,0-2,.8,3,3,0,0,0-1.27,1.88,5.41,5.41,0,0,0-.52,2.14A1,1,0,0,1,90,140a10.17,10.17,0,0,0-1.15,2.12,4.19,4.19,0,0,1-.86,1.23,3.29,3.29,0,0,0-.92,1.31.76.76,0,0,1-.57.52,2.65,2.65,0,0,0-1.13.81c-.53.56-1.09,1.1-1.64,1.64a1.31,1.31,0,0,0-.5.95c0,.47-.29.7-.7.88a8.13,8.13,0,0,1-3.91.82c-.57,0-1.14,0-1.72,0a2.82,2.82,0,0,1-2.31-2,.41.41,0,0,1,.2-.52c.19-.11.34-.22.25-.47a1.11,1.11,0,0,1,.3-1.11c.16-.21.36-.4.51-.62a5.1,5.1,0,0,0,.48-.76c.22-.46.08-.75-.43-.9a2.17,2.17,0,0,1-.67-.21,2.47,2.47,0,0,0-1.74-.37,4.18,4.18,0,0,1-2.33-.5,2.92,2.92,0,0,0-1.35-.35.68.68,0,0,1-.68-.51,1.86,1.86,0,0,0-.85-1.08,1.5,1.5,0,0,1-.7-1.17,2.15,2.15,0,0,0-.26-.86,2.56,2.56,0,0,1-.26-.76c-.15-1-.54-1.87-.67-2.84-.07-.55-.41-1.06-.43-1.65a.9.9,0,0,0-.24-.43c-.12-.16-.28-.29-.41-.44-.33-.39-.35-.42-.73-.22a2.52,2.52,0,0,1-1.27.26l-1.62,0A10,10,0,0,0,60,133c-1.92.37-3.7,1.24-5.61,1.62a2.28,2.28,0,0,0-.47.18c-1.41.63-1.44.65-1.25,2.19a2.42,2.42,0,0,1-1.07,2.54,6,6,0,0,0-.78.63,1.49,1.49,0,0,0,.21,2.35,8.38,8.38,0,0,0,2,.87,1.36,1.36,0,0,0,1.07-.16.65.65,0,0,1,.84,0c.19.19.11.52-.2.9a2.72,2.72,0,0,1-.22.21.28.28,0,0,0,0,.44,1.94,1.94,0,0,0,.22.21,2.16,2.16,0,0,1,.74,2.08c-.15,1.24-.12,1.25,1,1.8.81.41,1.62.83,2.39,1.3a1,1,0,0,0,1.1.06,16,16,0,0,1,2.46-1.16c.79-.28,1.57-.58,2.36-.87a.55.55,0,0,1,.19-.06,26.76,26.76,0,0,0,3.07-.55,1.9,1.9,0,0,1,.5,0,2.61,2.61,0,0,0,2-.54,3.31,3.31,0,0,1,.34-.21.58.58,0,0,1,.66.07.65.65,0,0,1,.16.74.77.77,0,0,1-.23.32,4.65,4.65,0,0,1-2.71,1.18,8.86,8.86,0,0,0-2.44.57,3.46,3.46,0,0,1-.67.2,4.76,4.76,0,0,0-2,.62,5.18,5.18,0,0,1-1,.4,6.68,6.68,0,0,0-1.78.92,1.71,1.71,0,0,0-.59.81,17.15,17.15,0,0,0-.84,2,3.31,3.31,0,0,0,0,2.09,4.32,4.32,0,0,1,.27,1.48,3.29,3.29,0,0,0,.26,1.48A2.41,2.41,0,0,1,60,161a5.39,5.39,0,0,0,.58,2.72,11.43,11.43,0,0,1,.88,3.17,1.13,1.13,0,0,1-.21.75.47.47,0,0,0,0,.57,14,14,0,0,1,1.17,2,5.12,5.12,0,0,0,1.94,2.14,1.18,1.18,0,0,1,.49,1.73,11.71,11.71,0,0,1-1.61,2.79.62.62,0,0,0-.14.74.57.57,0,0,1-.21.71,6.5,6.5,0,0,1-.84.73,2.36,2.36,0,0,0-.89,1.19,22.07,22.07,0,0,1-1.75,3.62c-.2.31-.41.62-.63.91a8.44,8.44,0,0,0-1.21,2,2.25,2.25,0,0,1-.35.61,14.92,14.92,0,0,1-2.13,2.28c-1,.8-2,1.71-3,2.53-.32.25-.63.5-1,.74a1.66,1.66,0,0,1-1.26.23.36.36,0,0,1-.28-.45,1.84,1.84,0,0,1,.55-.83,31,31,0,0,1,2.85-2.41,24.88,24.88,0,0,0,3-2.68.71.71,0,0,0,.21-.33,6.82,6.82,0,0,1,1.57-2.77,7.54,7.54,0,0,0,1-1.65c.06-.16.1-.34-.09-.44a.73.73,0,0,1-.38-.56c-.06-.43-.34-.53-.72-.53-.64,0-1.28,0-1.92,0a9.73,9.73,0,0,1-2-.27,10,10,0,0,0-2-.17c-.54,0-1.07-.06-1.61-.13a8.52,8.52,0,0,0-3.21.09,5.57,5.57,0,0,0-3,1.56,10.52,10.52,0,0,1-2.1,1.56,10.1,10.1,0,0,0-3.09,3.67c-.79,1.48-1.54,3-2.3,4.48a10.23,10.23,0,0,0-.86,2.46,1.72,1.72,0,0,1-.24.66,3,3,0,0,0-.5,1.62,19.32,19.32,0,0,0,.23,5.13,21.49,21.49,0,0,0,.88,3.2,4.32,4.32,0,0,0,.48.88,1.17,1.17,0,0,0,.61.52,5.32,5.32,0,0,1,1.47.62c.17.11.39,0,.59,0a8.66,8.66,0,0,0,1.79-.67,7.57,7.57,0,0,1,4.45-.34,2.14,2.14,0,0,1,1,.51,7,7,0,0,0,1.53,1A8.64,8.64,0,0,1,49.56,208a6.24,6.24,0,0,1,1.92,2.56,14.66,14.66,0,0,1,.9,2.46,2.63,2.63,0,0,0,.37.82,13.54,13.54,0,0,1,1.09,2.27,2.72,2.72,0,0,1,.19.68,8.47,8.47,0,0,0,.64,2.12c.43,1.1.69,2.24,1,3.37.38,1.28.57,2.62.85,3.93a8.61,8.61,0,0,0,.22.88c.39,1.18.73,2.38,1,3.59a15.25,15.25,0,0,0,1,2.85,27.22,27.22,0,0,1,1.12,2.81,1.74,1.74,0,0,0,1.14,1.18,9.35,9.35,0,0,0,1.05.35,11.41,11.41,0,0,1,2.73,1,2.79,2.79,0,0,0,1.25.33,1.75,1.75,0,0,1,1.06.28.83.83,0,0,1,.13,1.31.86.86,0,0,1-.55.22,4.51,4.51,0,0,1-2.56-.36,7.87,7.87,0,0,0-3.27-1c-.22,0-.34.12-.26.3.22.49.42,1,.67,1.46a5.14,5.14,0,0,1,.71,2.39,4.51,4.51,0,0,0,.28,2,1.17,1.17,0,0,1-.06,1,1.77,1.77,0,0,0-.05,1.28,11.69,11.69,0,0,1,.22,3.41,1.56,1.56,0,0,1-.11.59,4.92,4.92,0,0,0-.28,2q0,1.87,0,3.74c0,.2,0,.4,0,.61s.05.28.22.27.22-.15.25-.28a2,2,0,0,0-.07-1,4.26,4.26,0,0,1-.19-.88c0-.65.22-.94.86-1h.5c.86,0,.83,0,1.11.82a15.88,15.88,0,0,0,.66,1.57,2.29,2.29,0,0,1-.53,2.41,1.23,1.23,0,0,1-1.24.18.79.79,0,0,1-.26-.15.88.88,0,0,0-1.11-.14,1.31,1.31,0,0,1-.79.13.85.85,0,0,1-.82-.76,4.41,4.41,0,0,1,0-.7c0-1.35,0-2.69,0-4a2.74,2.74,0,0,1,.23-1.28,1.65,1.65,0,0,0,.15-.79,5.74,5.74,0,0,1,.27-1.48c.13-.5-.29-.94-.26-1.47,0-.74,0-1.48,0-2.22a3.08,3.08,0,0,0-.18-1.19,2.18,2.18,0,0,1-.18-1.09A6.31,6.31,0,0,0,60,242.6a15,15,0,0,1-.93-2.54,7.54,7.54,0,0,1-.68-2,1.76,1.76,0,0,0-.16-.48,8.5,8.5,0,0,1-1-2.42,4.39,4.39,0,0,0-.19-.47A1.13,1.13,0,0,0,56,234H53.17a1.4,1.4,0,0,0-.77.21A14.16,14.16,0,0,1,49,235.71a13.32,13.32,0,0,0-2.46,1.17c-.88.5-1.79.93-2.64,1.47-1.56,1-3.17,1.89-4.69,3-1.29.91-2.7,1.64-4.07,2.41a4.12,4.12,0,0,1-2.05.76.41.41,0,0,0-.19.07c-1.3.72-2.78,1-4.09,1.7-.18.1-.36.18-.54.28a17,17,0,0,1-3.15,1.31,3,3,0,0,1-1,.1,3.21,3.21,0,0,0-1.48.25,2.12,2.12,0,0,1-.78.2,4.87,4.87,0,0,0-2.07.75c-1,.55-2,1.06-3,1.6-.65.35-1.3.7-1.92,1.1a6.71,6.71,0,0,1-4.42,1,1.82,1.82,0,0,1-.49-.12,27.35,27.35,0,0,1-2.8-1.13,17.73,17.73,0,0,1-2.85-1.7,13,13,0,0,1-2.83-3.13,8,8,0,0,1-.9-2.35.76.76,0,0,0-.56-.63v-4.24A.69.69,0,0,0,.55,239c.14-.59.29-1.18.42-1.77a17.12,17.12,0,0,1,2.16-5.73,13,13,0,0,1,3.36-3.86,3.37,3.37,0,0,0,.49-.5,4.7,4.7,0,0,1,.55-.59c.89-.66,1.71-1.4,2.53-2.15.6-.55,1.09-1.18,1.7-1.72,1-.91,2-1.91,3-2.83a10.73,10.73,0,0,1,2.8-2,5.17,5.17,0,0,0,1.66-1.11,5.12,5.12,0,0,1,1.13-.85,14,14,0,0,0,1.89-1.34,25,25,0,0,0,2.56-2.12c.34-.37.71-.72,1.05-1.09A16.32,16.32,0,0,1,28.93,209c.66-.44,1.42-.75,2.12-1.14s1.67-.86,2.51-1.29a3.36,3.36,0,0,0,.5-.33.43.43,0,0,0,.15-.54c-.34-.77-.59-1.57-.86-2.36a5,5,0,0,1-.25-1.48,4.59,4.59,0,0,0-.25-1.58,3,3,0,0,1-.14-1c0-.77,0-1.55,0-2.32a5.35,5.35,0,0,1,.31-2.18c.13-.3.08-.67.2-1a3.8,3.8,0,0,1,1-1.6,3.47,3.47,0,0,0,.92-1.3,16.84,16.84,0,0,1,1-2,19,19,0,0,0,1.12-2.26,12.7,12.7,0,0,1,4.31-5.23,11.26,11.26,0,0,0,1.47-1.22,8.35,8.35,0,0,1,3.25-1.95,5.48,5.48,0,0,1,1.86-.38,2.32,2.32,0,0,0,.79-.15,1.38,1.38,0,0,1,1.08,0,3.41,3.41,0,0,0,1.39.17,3.73,3.73,0,0,1,2,.32l.1,0a24.41,24.41,0,0,1,3.17.46,5.64,5.64,0,0,0,2.85-.5,2.62,2.62,0,0,0,1.13-1,20.52,20.52,0,0,0,1.71-2.86.56.56,0,0,0,0-.58,2.22,2.22,0,0,1-.32-1,1.26,1.26,0,0,0-.43-.78,4.36,4.36,0,0,1-.83-1.26,13.62,13.62,0,0,0-.82-1.51,2.69,2.69,0,0,1-.42-1.53c0-.27,0-.54,0-.81A4.82,4.82,0,0,0,59.3,165a6.53,6.53,0,0,1-.58-2.53,4.92,4.92,0,0,0-.59-2,3.48,3.48,0,0,1-.25-2.44,2.63,2.63,0,0,0,.06-.8c0-.64-.05-1.28-.07-1.92a3.36,3.36,0,0,1,.29-1.77,1.81,1.81,0,0,0,.17-.68,1.23,1.23,0,0,0-.65-1.35c-.35-.19-.69-.42-1-.61-.65-.35-1.32-.67-2-1a1.76,1.76,0,0,1-.87-2c.06-.26.15-.52.21-.78a1.07,1.07,0,0,0-.28-1.11,1.08,1.08,0,0,1-.42-.67.77.77,0,0,0-.68-.75,19.86,19.86,0,0,1-2.35-.89,2.48,2.48,0,0,1-1.64-1.91,4.38,4.38,0,0,0-.17-.79,1.81,1.81,0,0,1,.4-1.87,4.36,4.36,0,0,1,1.4-1.14c.15-.08.31-.14.45-.22a.31.31,0,0,0,.08-.51,6.75,6.75,0,0,1-1.08-1.45,4.87,4.87,0,0,1-.52-1.09,1.33,1.33,0,0,1,.24-1.5l.2-.23a.49.49,0,0,0,.09-.56,9.68,9.68,0,0,1-.72-2.82c-.18-1.13-.36-2.26-.57-3.38a2.59,2.59,0,0,0-.37-1,12.35,12.35,0,0,1-.87-1.92c-.06-1.21-.89-2.15-1.17-3.29a8.34,8.34,0,0,0-.61-1.81,1.15,1.15,0,0,1-.13-.48,14.66,14.66,0,0,0-.48-2.57,12.18,12.18,0,0,0-.56-1.94,2,2,0,0,1-.22-.66,7,7,0,0,0-.46-2.05,7.66,7.66,0,0,1-.33-2.19,3.94,3.94,0,0,0-.24-1.49,3.87,3.87,0,0,1-.16-1.4,13.42,13.42,0,0,0-.33-3.51,4,4,0,0,1-.08-1c0-.81,0-1.62,0-2.42a4.46,4.46,0,0,1,.25-1.79,1.62,1.62,0,0,0,0-1.28,1.18,1.18,0,0,1,0-1.07,2.48,2.48,0,0,0,.18-1.19q0-1.92,0-3.84a5.49,5.49,0,0,1,.22-1.49c.32-1.16.64-2.34.86-3.52a5.64,5.64,0,0,1,1.81-2.84,1.1,1.1,0,0,1,.51-.31,8.06,8.06,0,0,1,1.83-.55,1.35,1.35,0,0,0,.57-.19A3.56,3.56,0,0,1,49.8,80a9.74,9.74,0,0,0,1.79-.3,1.14,1.14,0,0,1,.88.1,2.67,2.67,0,0,0,1.36.31,1.73,1.73,0,0,1,1.28.49,3.25,3.25,0,0,0,1.52.76,2.06,2.06,0,0,1,.56.21,6,6,0,0,0,1.42.53,3.9,3.9,0,0,1,.75.3A3.45,3.45,0,0,0,61,83a1,1,0,0,1,.47.16,1.74,1.74,0,0,0,1,.21,3,3,0,0,1,1.73.47,8.92,8.92,0,0,1,2.26,1.67,2.46,2.46,0,0,0,.38.32.1.1,0,0,0,.09,0s.1-.11.09-.15c-.24-.73-.47-1.47-.76-2.19a2.72,2.72,0,0,1-.23-1,1.53,1.53,0,0,0,0-.3,3.46,3.46,0,0,1,.55-2.88A2.15,2.15,0,0,0,66.86,78a2.22,2.22,0,0,1,1.25-2.11c.94-.59,2-1,2.91-1.6a2.85,2.85,0,0,1,2.69-.43,1.07,1.07,0,0,0,.4.07,6.89,6.89,0,0,1,2.7.77c.53.21,1,.49,1.55.73a5.35,5.35,0,0,0,.67.23c.41.12.53,0,.56-.42,0-.13,0-.27,0-.4a5.62,5.62,0,0,1,.31-2.08c.19-.53.28-1.1.43-1.65a35.91,35.91,0,0,1,1.21-3.42,3.19,3.19,0,0,1,.52-.85,8.19,8.19,0,0,1,3.65-2.44,3.7,3.7,0,0,1,2.58,0,1.56,1.56,0,0,0,1.26,0,3.77,3.77,0,0,1,1.79-.15,1.67,1.67,0,0,1,1,.46,1.61,1.61,0,0,0,1.4.42,4.92,4.92,0,0,1,1.31.08,1.46,1.46,0,0,1,1.12.77.3.3,0,0,1-.25.43,1.22,1.22,0,0,1-.48-.1A2.75,2.75,0,0,0,94,66.09c-.24,0-.47,0-.71,0A1.93,1.93,0,0,1,92,65.7a2.41,2.41,0,0,0-2.57-.19,1.33,1.33,0,0,1-1.15,0,3,3,0,0,0-2.53,0c-.34.15-.66.33-1,.47a3.58,3.58,0,0,0-1.82,1.81,10.29,10.29,0,0,0-1,2.83c-.15.85-.46,1.68-.69,2.52a3.61,3.61,0,0,0-.18.78,4.24,4.24,0,0,1-.33,1.77.75.75,0,0,0,.11.77l.51.75c.13.19.19.52.43.51s.44-.39.53-.66c.22-.67.36-1.36.55-2a6.23,6.23,0,0,1,.28-.86A5.82,5.82,0,0,0,83.44,73a9.59,9.59,0,0,1,.77-2.39,2.33,2.33,0,0,1,.64-.76,13.11,13.11,0,0,1,2-1.2c.18-.1.37-.16.54-.28a3,3,0,0,1,2.88-.28,1.22,1.22,0,0,0,.89.08,16.2,16.2,0,0,0,1.93-.56c.31-.17.7-.24.92.07s.45.3.74.09c.6-.43,1.24-.81,1.8-1.28a8.68,8.68,0,0,0,1.15-1.26,12.65,12.65,0,0,1,2.23-2,2,2,0,0,0,.69-.84,9,9,0,0,1,.55-1.07,2,2,0,0,0,.26-.76,1.26,1.26,0,0,1,.14-.58,10.07,10.07,0,0,0,.75-2,2.67,2.67,0,0,0,.11-.89,5.48,5.48,0,0,1,.09-1.1,17.3,17.3,0,0,0,.42-3,8.44,8.44,0,0,0,0-1.61.74.74,0,0,0-.1-.38,2.54,2.54,0,0,1-.4-1.54,1.37,1.37,0,0,0-.1-.49,4.77,4.77,0,0,1-.31-2.08,19.42,19.42,0,0,0-.12-2.11,6.93,6.93,0,0,1,1-4.25c.82-.8,1.46-1.75,2.26-2.56.63-.64,1.4-1.14,2-1.79a2.74,2.74,0,0,1,.65-.47,28.52,28.52,0,0,0,3.49-2.21,1.34,1.34,0,0,1,.64-.28,1.13,1.13,0,0,1,.39,0,.36.36,0,0,1,.19.56,3.31,3.31,0,0,1-1,.82,11.84,11.84,0,0,0-2.24,1.86,1.89,1.89,0,0,0-.36.48L107.19,40a4.5,4.5,0,0,0-.56,1.4,3.57,3.57,0,0,1-.49,1.1.47.47,0,0,1-.6.23.43.43,0,0,1-.24-.59c.27-.54.37-1.15.67-1.68.52-.93,1-1.89,1.55-3a2.91,2.91,0,0,0-1.19.69c-.38.38-.74.78-1.09,1.19s-.53.7-.83,1a7,7,0,0,0-1.2,2,2.28,2.28,0,0,0-.18,1c0,1,0,2,0,2.93a2.49,2.49,0,0,0,.1.8,5.9,5.9,0,0,1,.31,2.18c0,.37.08.66.5.76a.45.45,0,0,1,.31.47c0,.5,0,1,0,1.51a2.27,2.27,0,0,0,.22,1.18.43.43,0,0,1,.07.19,6.56,6.56,0,0,0,.84,2.45,3.27,3.27,0,0,1,.28,1.37c0,.81,0,1.62,0,2.42a3.7,3.7,0,0,0,.06.6c0,.16.27.23.42.15a1.24,1.24,0,0,0,.47-.52,8.57,8.57,0,0,0,.94-2.54c.15-.69.23-1.39.34-2.09a1.18,1.18,0,0,1,0-.2,18.87,18.87,0,0,0,.56-4,5.64,5.64,0,0,1,.28-1.28,3.36,3.36,0,0,0,.24-1.58,6.89,6.89,0,0,1,.6-3,5.49,5.49,0,0,0,.25-.86,3.85,3.85,0,0,1,.91-2,7,7,0,0,0,.59-.81,7,7,0,0,1,3.56-2.82,12.79,12.79,0,0,0,2.64-1.24,12.46,12.46,0,0,1,1.43-.74.89.89,0,0,0,.57-.87,3.2,3.2,0,0,1,.27-1.28,2.71,2.71,0,0,0,.15-1.09,4.38,4.38,0,0,1,.27-1.58,5.86,5.86,0,0,0,.35-2.18c0-.5.05-1,.08-1.51a15.38,15.38,0,0,0,.06-1.61,14.85,14.85,0,0,1,.31-3.81,12.15,12.15,0,0,1,.52-2.14c.33-.81.65-1.62,1-2.41a8.63,8.63,0,0,0,.84-2.25,2.26,2.26,0,0,1,.34-.72,10.88,10.88,0,0,1,1.42-2.19,4.51,4.51,0,0,0,.59-.93c.17-.29.3-.6.48-.89a2.73,2.73,0,0,1,.43-.55c.29-.28.59-.19.78.19,0,.08.07.17.11.26a1.28,1.28,0,0,0,.49-.65c.34-.84.66-1.68,1-2.51A34.58,34.58,0,0,1,131,4.31a10.43,10.43,0,0,0,1-2,4.27,4.27,0,0,1,.87-1.47c.24-.28.47-.57.71-.85h.4A1.25,1.25,0,0,1,134,1.42c-.28.61-.6,1.21-.81,1.84a9.88,9.88,0,0,0-.68,2.31,2.75,2.75,0,0,1-.19.78,7,7,0,0,0-.22,1.08c-.26,1.11-.32,2.25-.66,3.34a4.16,4.16,0,0,0-.16,1.2c0,.94,0,1.89,0,2.83a3.48,3.48,0,0,1-.14,1.2,8.31,8.31,0,0,0-.26,3.1,1,1,0,0,0,.1.49,3,3,0,0,1,.29,1.77,2.55,2.55,0,0,0,.65,1.94,5.61,5.61,0,0,1,1.14,2.23c.14.48.35.94.53,1.42.53,1.41.92,2.88,1.58,4.25a6.26,6.26,0,0,1,.32,1.37c0,.2.05.4.11.59.12.38.41.49.78.3.21-.1.42-.21.63-.33a19.57,19.57,0,0,1,2.8-1.38A5.15,5.15,0,0,0,142,30.17a8.28,8.28,0,0,1,1.19-1.23,9.44,9.44,0,0,0,1.88-2.6c1-1.7,1.7-3.57,2.57-5.35a3.55,3.55,0,0,0,.38-1.35c.06-1.08.29-2.14.37-3.2a27.23,27.23,0,0,0,.13-4.94,24.91,24.91,0,0,1,0-4,12.1,12.1,0,0,0,0-2.31,2.86,2.86,0,0,1,0-.8.55.55,0,0,1,.56-.48.64.64,0,0,1,.66.36,1.48,1.48,0,0,1,.11.38c.08.46.15.93.24,1.39a2.93,2.93,0,0,1,0,1.1,23.29,23.29,0,0,0-.1,5.44,9.32,9.32,0,0,1,0,1.41c-.07.8-.08,1.61-.11,2.42a3.82,3.82,0,0,0-.41,2,4.08,4.08,0,0,1-.36,1.76,2.87,2.87,0,0,0-.23.77,5,5,0,0,1-.59,1.6,17.76,17.76,0,0,0-.78,1.64,8.55,8.55,0,0,1-.59,1.17c-.33.55-.6,1.13-.9,1.68a10.65,10.65,0,0,1-2,2.89,10.85,10.85,0,0,0-1.26,1.57,2.74,2.74,0,0,1-.69.72,17,17,0,0,1-1.47.88c-.9.45-1.82.86-2.74,1.28a5.87,5.87,0,0,0-1,.44,3.22,3.22,0,0,1-1.5.75c-.28,0-.38.25-.39.6s-.08.54-.44.64-.6-.08-.72.23a2.4,2.4,0,0,0-.09.79c0,.4,0,.81,0,1.21a4.75,4.75,0,0,1-.29,2,.47.47,0,0,0,.07.6,6.21,6.21,0,0,0,.81-.86,9.64,9.64,0,0,1,2.32-2.08,9.37,9.37,0,0,0,1.64-1.31c.68-.65,1.35-1.32,2.08-1.9s1.28-1.08,1.89-1.66,1.37-1.29,2-2a15.13,15.13,0,0,0,2.23-2.32c.5-.76,1-1.54,1.44-2.31a5.36,5.36,0,0,0,.65-1.58,7.34,7.34,0,0,0,.48-2.25.71.71,0,0,1,.11-.38,2.83,2.83,0,0,0,.27-1.47,2.83,2.83,0,0,1,.14-1.19,4,4,0,0,0,.28-1.78q0-1.06,0-2.12a1.6,1.6,0,0,0,.39-1.22c0-1.11,0-2.22,0-3.33,0-.27,0-.54,0-.81a.54.54,0,0,1,.26-.41.39.39,0,0,1,.46.07,1,1,0,0,1,.13.27,2,2,0,0,1,.09.49,44.07,44.07,0,0,1-.12,5.65,1.42,1.42,0,0,1-.09.49,4.13,4.13,0,0,0-.31,2.07,3.74,3.74,0,0,1-.32,2,.69.69,0,0,0-.08.39c.11,1.1-.42,2.1-.48,3.18a15.26,15.26,0,0,1-2.24,4.7,27.79,27.79,0,0,1-4.56,4.54c-.26.22-.52.43-.75.67A42.8,42.8,0,0,1,139.11,38c-.47.38-.89.82-1.33,1.24a.51.51,0,0,0-.11.56c0,.09.09.18.13.27a5.29,5.29,0,0,1,.57,2.23,1.05,1.05,0,0,0,.09.49,4.05,4.05,0,0,1,.33,1.87,2.44,2.44,0,0,0,.18,1,.48.48,0,0,0,.65.3,5,5,0,0,1,1.88-.31,4.37,4.37,0,0,0,2.08-.7,14.66,14.66,0,0,1,2.48-1.09,6,6,0,0,0,2.4-1.59,33.45,33.45,0,0,0,3.93-5.36c.82-1.35,1.64-2.69,2.56-4s1.94-2.4,2.92-3.6c.46-.57.85-1.21,1.27-1.81a26.6,26.6,0,0,1,3.38-4c.6-.58,1.18-1.2,1.77-1.8a3.58,3.58,0,0,1,.52-.47,3.76,3.76,0,0,0,.87-.83,2.37,2.37,0,0,1,.59-.54.51.51,0,0,1,.77.47,1.07,1.07,0,0,1-.2.66,9.6,9.6,0,0,1-.78,1.05,15.25,15.25,0,0,0-1.78,2.56c-.37.6-.74,1.2-1.14,1.78-1,1.43-1.84,3-2.86,4.39a32,32,0,0,0-2,3.47q-1.15,2.13-2.49,4.14c-.45.67-.87,1.36-1.31,2a34.16,34.16,0,0,1-2.14,3.17c-.92,1.11-1.74,2.31-2.74,3.35a22.5,22.5,0,0,0-2.06,2.47,1.22,1.22,0,0,1-.19.24c-1,.84-1.75,2-2.75,2.81a7.43,7.43,0,0,0-.83.88,10.46,10.46,0,0,1-3.48,2.71c-.3.15-.58.33-.87.51-1.56.95-1.15.57-1.76,2.27a16.88,16.88,0,0,0-.49,2,9.55,9.55,0,0,1-1.3,3.47c-.31.44-.47,1-.76,1.41-1,1.53-2.21,2.88-3.05,4.5a19.54,19.54,0,0,1-1.57,2.47c-.77,1.06-1.53,2.13-2.39,3.12a6.56,6.56,0,0,0-.7,1c-.41.69-.85,1.37-1.32,2a2.08,2.08,0,0,0-.23,2.1,1.65,1.65,0,0,1,.11,1.17,1.6,1.6,0,0,0,0,1,6.61,6.61,0,0,1,.27,2.19c0,.34,0,.67,0,1a8.82,8.82,0,0,0,.69,3.53,2.54,2.54,0,0,1,.15.89c0,.47,0,.94,0,1.41a7.63,7.63,0,0,1-.7,3.82c-.25.55-.36,1.15-.57,1.72a8.26,8.26,0,0,1-1.48,2.38q-.45.54-.87,1.11a5.17,5.17,0,0,1-2.08,1.69c-.32.14-.39.3-.25.64s.33.74.51,1.1a2.12,2.12,0,0,1,.14,1.84c-.15.37-.09.42.28.63a2.59,2.59,0,0,0,1.13.4,5.4,5.4,0,0,1,1.65.44,2.59,2.59,0,0,1,1.78,2.45c0,.42.07.79.53,1,.26.12.33.42.43.66a3.84,3.84,0,0,1,.39,2.51,1.06,1.06,0,0,0,.13.87,2.74,2.74,0,0,1,.34,1.55c0,.2,0,.4,0,.61a6,6,0,0,1-.53,2.85,2.43,2.43,0,0,0-.22,1.84,1.58,1.58,0,0,1-.48,1.56,1.52,1.52,0,0,1-.57.41c-.34.14-.67.3-1,.45s-.38.23-.25.63a6.26,6.26,0,0,1,.22.67,1,1,0,0,0,.62.85c.12,0,.27.16.29.26.11.63.54,1.17.54,1.82a2.32,2.32,0,0,0,.27,1.17.85.85,0,0,1,.11.39c0,.5.11.92.7,1.07.2.05.28.3.28.5a4,4,0,0,0,.71,2,1.76,1.76,0,0,1,.3.74,9.86,9.86,0,0,0,.74,2.61,31.58,31.58,0,0,0,1.42,3.45,13.39,13.39,0,0,1,.89,2.35,9.11,9.11,0,0,0,.49,1.1c.65,1.47,1.32,2.94,2,4.41.79,1.79,1.86,3.42,2.77,5.15a1,1,0,0,0,.2.22.41.41,0,0,0,.63,0,6.14,6.14,0,0,1,1.59-1.05,3.66,3.66,0,0,0,1.81-1.36.7.7,0,0,1,.22-.2,13.16,13.16,0,0,0,3.14-3.1,2,2,0,0,1,.35-.36,12.88,12.88,0,0,0,1.93-1.91,15,15,0,0,0,1.28-1.69,5,5,0,0,1,1.8-1.73,2.6,2.6,0,0,0,1-1.05c.16-.29.35-.57.5-.87a2.43,2.43,0,0,1,1.16-1.21,1.55,1.55,0,0,0,.73-.79,5.75,5.75,0,0,1,1.57-2.19,2.3,2.3,0,0,0,.56-.83,18,18,0,0,1,2.37-3.49,2.11,2.11,0,0,0,.51-.86,11.45,11.45,0,0,1,1.57-2.8,4.91,4.91,0,0,1,.94-1,4.34,4.34,0,0,1,2.76-1.06c.6-.05,1.21,0,1.82,0a2.54,2.54,0,0,1,1.73.41,1.24,1.24,0,0,0,.77.21,6.43,6.43,0,0,0,.81,0,6.54,6.54,0,0,1,3.4.75A30.77,30.77,0,0,0,176,129a27.25,27.25,0,0,1,5.23,2.29,17.85,17.85,0,0,1,3.59,2.74,41,41,0,0,0,4.39,3.7,2.3,2.3,0,0,1,.57.57,36.94,36.94,0,0,1,2.35,3.86c.41.81.87,1.59,1.34,2.37a3.75,3.75,0,0,0,.61.66A2.38,2.38,0,0,1,195,147a1.42,1.42,0,0,0,.2.67,1.12,1.12,0,0,1,.17.47,1.83,1.83,0,0,0,.82,1.54.63.63,0,0,1,.24.32,7,7,0,0,1,.56,2.33,2.85,2.85,0,0,0,.2,1.29,1.38,1.38,0,0,0,.58.8,1.08,1.08,0,0,1,.53.59,6.13,6.13,0,0,0,.67,1.24,1.39,1.39,0,0,1,.23.55,6.22,6.22,0,0,0,.36,1.67,2.62,2.62,0,0,1,.08.8c0,.44,0,.88,0,1.31a3.68,3.68,0,0,0,.61,2.3,2.17,2.17,0,0,1,.36,1.24,24.73,24.73,0,0,0,.41,4c.25,1.59.37,3.21.65,4.8a29.13,29.13,0,0,1,.24,3.92,3.55,3.55,0,0,1-1,2.55,7.17,7.17,0,0,1-3.74,2.24,4.39,4.39,0,0,0-1,.42c-.91.5-1.84,1-2.74,1.5-.72.42-1.42.9-2.12,1.36a1.15,1.15,0,0,0-.29.28,12.94,12.94,0,0,1-3,2.68l-.25.17c-1.09.9-2.06,1.93-3.2,2.77a10.3,10.3,0,0,0-2.14,2.66,9.21,9.21,0,0,1-2.08,2.3,4.89,4.89,0,0,0-1.11,1.42,17,17,0,0,1-2.26,2.56c-.63.65-1.31,1.26-2,1.85-.53.46-1,1-1.46,1.53a2.09,2.09,0,0,0-.57.94,1,1,0,0,1-.89.84,1.13,1.13,0,0,0-.75.46,7.61,7.61,0,0,0-1.21,1.6,3.21,3.21,0,0,1-.63.78,12.81,12.81,0,0,1-1.06,1.08,14.19,14.19,0,0,0-2.26,2.82,28.86,28.86,0,0,0-1.51,2.73c-.21.38-.43.76-.63,1.15a8.54,8.54,0,0,0-.38.82,5.3,5.3,0,0,1-1.19,1.67,1.69,1.69,0,0,0-.45.53,10.82,10.82,0,0,1-1.3,1.78,11.41,11.41,0,0,1-2.56,2.68,2.44,2.44,0,0,0-.86,3.12.78.78,0,0,1,0,.68,3.34,3.34,0,0,0-.27,1.06c-.14.62-.35,1.23-.53,1.83-.08.26-.18.5-.27.76a2.39,2.39,0,0,0,.43,2.46,1.32,1.32,0,0,1,.34.61,7.38,7.38,0,0,0,.9,2.34q.29.59.54,1.19a6.84,6.84,0,0,0,.82,1.5,4.75,4.75,0,0,1,.94,2.19c.15,1,.43,1.9.58,2.86A12.48,12.48,0,0,1,161,246a1.68,1.68,0,0,0,.35,1,.67.67,0,0,1,.08.76,2.76,2.76,0,0,0-.25,1.57,5.84,5.84,0,0,1-.53,2.54,7.28,7.28,0,0,0-.59,3.93c.07.5.06,1,.13,1.51a11.72,11.72,0,0,0,.52,2.66,4,4,0,0,1-1.61,5,2.11,2.11,0,0,1-.64.3,6,6,0,0,0-1.32.73c-.44.26-1,.13-1.46.35a3.82,3.82,0,0,1-3,.11.56.56,0,0,0-.72.13,3.66,3.66,0,0,1-.89.66,2.49,2.49,0,0,1-1.62.47,1.58,1.58,0,0,0-1.42.61A1.84,1.84,0,0,1,147,269a.93.93,0,0,0-.77.71Zm-9.7-56.76a2.41,2.41,0,0,0-1.19-1.27.1.1,0,0,0-.16.07.12.12,0,0,0,0,.09l.73.81a.85.85,0,0,0,.61.29,2.69,2.69,0,0,0,.93,1.29,2.1,2.1,0,0,1,.71,1.8,1.32,1.32,0,0,0,.26,1.05c.38.44.47,1.12,1.13,1.35a.93.93,0,0,1,.56.89c0,.2,0,.4,0,.6a2.42,2.42,0,0,0,.52,1.29.17.17,0,0,0,.26,0,.2.2,0,0,0,.06-.17,4.47,4.47,0,0,1-.44-2.35,1.55,1.55,0,0,0-.26-1,10.5,10.5,0,0,1-1.1-2A6.94,6.94,0,0,0,134.74,212.92ZM126.25,65.24c.1-.17.28-.34.29-.52a4.13,4.13,0,0,1,.72-1.75c.29-.5.64-.94.95-1.43A47.33,47.33,0,0,1,131,57.38a.86.86,0,0,0,.19-.35,4.33,4.33,0,0,1,.77-1.52,3.13,3.13,0,0,0,.75-1.93.8.8,0,0,1,.09-.39,4,4,0,0,0,.28-1.78c0-.74,0-1.48,0-2.22a4.69,4.69,0,0,1,.32-2.27.27.27,0,0,0,0-.1c0-.14,0-.29-.13-.35a.39.39,0,0,0-.28,0,.78.78,0,0,0-.45.73,3.25,3.25,0,0,1-.15,1.39,3.47,3.47,0,0,0-.28,1.67,2.87,2.87,0,0,1-.25,1.38.89.89,0,0,0-.11.38,3.78,3.78,0,0,1-.8,2c-.49.76-.94,1.55-1.39,2.34a18.9,18.9,0,0,1-2.3,3.42A19.59,19.59,0,0,0,126,61.61a1.32,1.32,0,0,0-.31.63,2,2,0,0,1-.55,1.06L124,64.64a1,1,0,0,0-.16.25c-.09.24.07.38.23.5s.31.16.45,0,.43-.52.67-.75c.46-.46.81-.35,1,.29a1.83,1.83,0,0,1,0,.3,1.52,1.52,0,0,0-.61.77A10.38,10.38,0,0,1,125,67.5a7.22,7.22,0,0,0-.57,4.11.18.18,0,0,0,.11.13.18.18,0,0,0,.15-.09,11.74,11.74,0,0,1,.62-1.9,5.44,5.44,0,0,0,.41-1.33C125.84,67.34,126.14,66.31,126.25,65.24ZM84,121.81a.92.92,0,0,0-.38-.67.19.19,0,0,0-.18,0,.18.18,0,0,0,0,.17.88.88,0,0,0,.6.47,3.67,3.67,0,0,1,.63.78.45.45,0,0,1-.1.55.62.62,0,0,1-.82.15,8.39,8.39,0,0,1-1.11-.69,2.58,2.58,0,0,1-1.09-2c0-.5-.09-1-.15-1.51a2.68,2.68,0,0,0-.08-.39.12.12,0,0,0-.07-.06c-.08,0-.15,0-.16.08,0,.27,0,.53-.07.8a3.64,3.64,0,0,0,.65,2.48c.29.45.6.89.92,1.33a1,1,0,0,1,.23.84.49.49,0,0,1-.63.35.81.81,0,0,1-.26-.15,9.14,9.14,0,0,1-1.7-2,4.18,4.18,0,0,1-.63-2.5,2.58,2.58,0,0,0-.17-1.29,1.55,1.55,0,0,1,.06-1.45,1.59,1.59,0,0,0,.17-1.26A.79.79,0,0,1,80,115l-.52-.07a.7.7,0,0,1-.63-.57.74.74,0,0,1,.32-.79,1.82,1.82,0,0,1,1.2-.45c1.06,0,2-.53,3.07-.51a.51.51,0,0,0,.19-.07.38.38,0,0,0,.07-.66,8.72,8.72,0,0,0-1.18-.55,2.7,2.7,0,0,1-.8-.41c-1.08-.91-2.24-1.74-3.23-2.74a20.21,20.21,0,0,0-2.39-2l-.58-.4a2.6,2.6,0,0,1-.95-1.15c-.23-.52-.35-1.1-.6-1.6-.53-1.09-1-2.22-1.48-3.31a13.18,13.18,0,0,1-.9-2.35A14.74,14.74,0,0,0,71,95.69c-.48-1.21-1.2-2.34-1.14-3.72a1,1,0,0,0-.39-.79l-.46-.4c-.42-.37-.46-.39-.83,0a1.39,1.39,0,0,1-1.25.51.81.81,0,0,0-.66.21,13.24,13.24,0,0,0-1.38,1.17,18.57,18.57,0,0,0-2.55,2.85,4.28,4.28,0,0,1-.45.54,8.92,8.92,0,0,0-1.32,1.9,4.06,4.06,0,0,1-.81,1.13,7.45,7.45,0,0,0-1,1.28,7.59,7.59,0,0,0-.94,3.26,27.18,27.18,0,0,1-.43,3.49.36.36,0,0,0,0,.1,1.71,1.71,0,0,1-1,1.73.67.67,0,0,0-.38.75,11.74,11.74,0,0,0,.4,2.28,6.6,6.6,0,0,1,.58,2.43.6.6,0,0,0,.05.19,10.66,10.66,0,0,1,.74,3.12,1.57,1.57,0,0,0,.18.57c.41.92.81,1.85,1.26,2.75a12.34,12.34,0,0,0,1.65,2.76,4.6,4.6,0,0,1,.76,1.3,7.52,7.52,0,0,0,.92,1.68c.61.8,1.26,1.57,1.83,2.4a16.42,16.42,0,0,0,1.27,1.56,8.07,8.07,0,0,1,1.68,2.61c.25.7.59,1.36.85,2a8,8,0,0,1,.75,3,1.81,1.81,0,0,0,1.11,1.77l1.36.64c.59.27,1.24.31,1.81.6,1.4.7,1.15.53,2.92.6.3,0,.61,0,.91,0a7.85,7.85,0,0,1,2.7.3,4.69,4.69,0,0,0,.7.11,20.34,20.34,0,0,1,2.78.48,3.26,3.26,0,0,0,.6.09,1.44,1.44,0,0,0,1.36-.47,1.48,1.48,0,0,1,1.72-.5.45.45,0,0,0,.58-.26c.37-.64.73-1.29,1.1-1.93a2.08,2.08,0,0,0,.29-1,2.18,2.18,0,0,1,.12-.79c.44-.94.89-1.89,1.4-2.79a3.22,3.22,0,0,1,2.44-1.6,11.42,11.42,0,0,0,2-.49c.63-.21.68-.28.7-.93s0-1.15,0-1.72.19-.6.73-.54c.37,0,.48-.06.49-.41a1.27,1.27,0,0,0-.37-.91c-.3-.32-.61-.63-.89-1a1.46,1.46,0,0,0-1.13-.55,2.3,2.3,0,0,1-2.19-2.87,1,1,0,0,1,1.14-.9c.3,0,.6.09.9.12s.54-.22.41-.5a5.08,5.08,0,0,0-.54-1,5.06,5.06,0,0,1-.74-1.32,3.68,3.68,0,0,0-1.85-2,2.72,2.72,0,0,1-.78-.63,6.34,6.34,0,0,1-.78-1.05,2.09,2.09,0,0,0-1.3-1.06,4.22,4.22,0,0,1-1.86-1.16c-.39-.37-.78-.75-1.17-1.12-.19-.18-.33-.47-.61-.5s-.45.35-.66.54-.27.21-.4.3-.25.15-.17.3a.36.36,0,0,0,.25.14c.27,0,.54,0,.81,0a1.5,1.5,0,0,1,.86.25A5.62,5.62,0,0,1,87,116c.56.84,1.08,1.69,1.56,2.58a3.7,3.7,0,0,1,.24,2.73,1.19,1.19,0,0,1-.5.73.43.43,0,0,1-.61-.13,1.41,1.41,0,0,1-.22-.87,5.38,5.38,0,0,0-.44-1.86c0-.1-.1-.19-.22-.13a.22.22,0,0,0-.11.15c0,.4,0,.81-.07,1.21a1.15,1.15,0,0,1-.67,1A2.88,2.88,0,0,1,84,121.81Zm51,47.59.05-.19a3.49,3.49,0,0,1-1.21-.88,1.08,1.08,0,0,1-.26-1.21,2.7,2.7,0,0,1,.23-.45,1,1,0,0,0,0-1.05,8.61,8.61,0,0,1-.63-1.15c-.35-.87-.63-1.77-1-2.64a6.51,6.51,0,0,0-.86-1.7.3.3,0,0,0-.51,0,16.7,16.7,0,0,0-1.23,1.33c-.72.93-1.44,1.86-2.19,2.77a34.43,34.43,0,0,1-3,3.25,4.59,4.59,0,0,1-1.59,1,1.72,1.72,0,0,0-.53.27,28.28,28.28,0,0,0-2.44,2.09,33.58,33.58,0,0,1-4.09,3.25,11.9,11.9,0,0,1-1.26.84,14.58,14.58,0,0,0-2.85,2,1.35,1.35,0,0,0-.47,1.26,33.13,33.13,0,0,1,.16,4,2.24,2.24,0,0,1-.36,1.54.18.18,0,0,0,0,.27.36.36,0,0,0,.28,0c1.09-.44,2.2-.83,3.25-1.34s2.22-.94,3.33-1.41c.63-.27,1.29-.36,1.93-.57,1-.33,2-.73,2.94-1.05,1.59-.51,3.15-1.13,4.79-1.5a14.89,14.89,0,0,0,1.64-.44,17.07,17.07,0,0,1,3-.66c1-.15,1.94-.15,2.91-.26a3.57,3.57,0,0,1,2.23.46,4.8,4.8,0,0,0,1.76.71c.35,0,.68.26,1.06.31a1.12,1.12,0,0,1,.61.34,7.34,7.34,0,0,1,1.44,1.68,7,7,0,0,1,.62,5.93,15.4,15.4,0,0,1-1.32,2.94,39.32,39.32,0,0,0-1.88,3.68,7.15,7.15,0,0,1-1.55,2.31,19.85,19.85,0,0,0-3.21,4,3.35,3.35,0,0,1-.25.32c-.57.75-1.13,1.51-1.71,2.25a38.12,38.12,0,0,0-2.63,4.18.45.45,0,0,0-.06.19.3.3,0,0,0,0,.19.15.15,0,0,0,.26,0,1.46,1.46,0,0,1,1.24-.55,1.8,1.8,0,0,1,1.22.63,6.87,6.87,0,0,1,1.48,1.77,2.81,2.81,0,0,0,.45.54,3.68,3.68,0,0,1,.39.46q.66,1.07,1.28,2.16a14.52,14.52,0,0,0,1.43,2.31,3.66,3.66,0,0,1,.35.61c.53.94,1,1.9,1.59,2.8a15.37,15.37,0,0,1,1.31,2.37,1.26,1.26,0,0,1,0,1.24,1.72,1.72,0,0,0-.2,1.07c0,.3.05.6.06.91a1.34,1.34,0,0,1-.19.87.88.88,0,0,1-.62.3.59.59,0,0,0-.46.36,4.12,4.12,0,0,0-.22,2s.09.1.15.11a.28.28,0,0,0,.18-.06.75.75,0,0,0,.24-.54,2.26,2.26,0,0,1,.76-1.28q1.52-1.33,3.07-2.62a9.62,9.62,0,0,0,1.12-1,3.35,3.35,0,0,1,2.88-1.14c1.34.07,2.68.21,4,.34a4.16,4.16,0,0,1,2.37.72c.36.29.6.22.83-.17.34-.58.62-1.2,1-1.76,1-1.62,2-3.24,3.11-4.83a2,2,0,0,1,1.7-1.12.78.78,0,0,0,.44-.21,8.44,8.44,0,0,0,1.89-2.08,10.57,10.57,0,0,1,1.28-1.55.93.93,0,0,1,.7-.36,1,1,0,0,0,.89-.56,9.9,9.9,0,0,1,.68-.87c.3-.36.65-.69.91-1.07a16.92,16.92,0,0,1,2.1-2.44,8.14,8.14,0,0,0,1.13-1.15,19.91,19.91,0,0,1,1.74-1.95,11.71,11.71,0,0,1,2.3-2.1,8.25,8.25,0,0,0,1-.87c.27-.25.53-.52.81-.76a14.28,14.28,0,0,0,1.69-1.73,2.2,2.2,0,0,1,.57-.56,6,6,0,0,0,2-2.13,17.42,17.42,0,0,1,3-3.36c.67-.61,1.33-1.23,2-1.83a12.29,12.29,0,0,1,2-1.49,10.26,10.26,0,0,0,2-1.41,8.22,8.22,0,0,1,1.56-1.26,2.24,2.24,0,0,0,.47-.37c1.17-1.16,2.52-2.12,3.78-3.18a1.23,1.23,0,0,1,.41-.29,5.15,5.15,0,0,0,2.11-1.32,1.81,1.81,0,0,1,.51-.33,1.5,1.5,0,0,0,.92-1.34c.11-1,.19-2,.27-3a3.4,3.4,0,0,0-.14-1.2,6.5,6.5,0,0,1-.23-1.9c0-.4,0-.81,0-1.21a1.39,1.39,0,0,0-.24-.86,1.8,1.8,0,0,1-.36-1.33c.1-1.17-.43-2.24-.48-3.38a4.79,4.79,0,0,1-.43-1.85,1.4,1.4,0,0,0-.59-1.12,1.44,1.44,0,0,1-.6-1c0-.3-.07-.6-.12-.9a8,8,0,0,0-.25-1.49c-.32-.92-.64-1.83-.92-2.76s-.41-1.62-.64-2.42a3.85,3.85,0,0,0-.63-1.46,1.7,1.7,0,0,1-.39-1.21,2.56,2.56,0,0,0-.11-1.1c-.28-.68-.58-1.36-.87-2a.73.73,0,0,0-.38-.45c-1-.35-1.22-1.22-1.45-2a8.63,8.63,0,0,0-.83-1.93,1.87,1.87,0,0,0-1-.85,3.22,3.22,0,0,1-1.52-1.12,2.76,2.76,0,0,1-.57-1.26c-.07-.57-.19-.63-.81-.6l-.2,0a1.33,1.33,0,0,1-1.25-.5,8.11,8.11,0,0,1-.79-1,1.4,1.4,0,0,0-.94-.69,6,6,0,0,1-.77-.22,32.45,32.45,0,0,1-4.62-2.45,1,1,0,0,1-.58-1,.56.56,0,0,0-.14-.47,3.35,3.35,0,0,0-1.11-.67c-.3-.13-.58,0-.86.18-.63.29-.77.27-1.23-.21a2.46,2.46,0,0,0-2.07-.85c-.57,0-1.14,0-1.72,0a2.65,2.65,0,0,1-1.28-.25,3.29,3.29,0,0,0-1.66-.32h-3.23a1.71,1.71,0,0,1-1.07-.2c-.36-.26-.61-.1-.88.15a8.09,8.09,0,0,0-1.68,2.38,7.2,7.2,0,0,1-1.49,2.13,3,3,0,0,0-.78,1,14.83,14.83,0,0,1-2.22,3.23,6.47,6.47,0,0,0-.75,1.07,3,3,0,0,1-1.21,1.44,2.18,2.18,0,0,0-.87,1.09,5,5,0,0,1-1.89,2.17,3.35,3.35,0,0,0-.93.77,16.3,16.3,0,0,0-1.93,2.58,1.11,1.11,0,0,1-.25.31c-.84.82-1.71,1.6-2.51,2.47a6,6,0,0,0-.72.83,4.67,4.67,0,0,1-1.52,1.59,2.93,2.93,0,0,0-1.15,1.25,1.92,1.92,0,0,1-1.37,1.09,3,3,0,0,0-1.37.81.7.7,0,0,0-.25.89,1.47,1.47,0,0,1-.47,1.81c-.39.36-.44.61-.2,1a2.9,2.9,0,0,1,.14.48,2.61,2.61,0,0,0,1,1.38c.72.48,1,1.34,1.59,1.94a.41.41,0,0,1,.08.18,9.21,9.21,0,0,0,.95,2.22,2.06,2.06,0,0,1,.23,1.27,1.87,1.87,0,0,1-1.47,1.71,2.5,2.5,0,0,0-1.77.85c-.82.86-1.88,1.4-2.77,2.17a4.93,4.93,0,0,1-1.32.72,1.22,1.22,0,0,1-1.74-.69,1.73,1.73,0,0,0-.49-.74.49.49,0,0,1,.25-.85Zm8.26,96.95a.85.85,0,0,0,.16.21A5.22,5.22,0,0,1,145,268c.17.27.48.3.82.12a4.33,4.33,0,0,1,1.11-.47.59.59,0,0,0,.52-.54,1.81,1.81,0,0,1,.35-.82,2.74,2.74,0,0,0,.43-1.12c.12-.66.27-1.32.45-2a7.41,7.41,0,0,1,.45-1.12.48.48,0,0,1,.7-.16,1,1,0,0,1,.46.74,3.25,3.25,0,0,1-.16,1.69,2.65,2.65,0,0,0-.2.67c-.08.49,0,.83.25.9a1.09,1.09,0,0,0,1-.45.86.86,0,0,0,.14-.58,10.21,10.21,0,0,1,.55-2.65A.77.77,0,0,1,152,262a.67.67,0,0,1,.7-.29.55.55,0,0,1,.45.48,3.63,3.63,0,0,1,.09,1.4,3.3,3.3,0,0,0,0,1.21.45.45,0,0,0,.39.41.5.5,0,0,0,.52-.22,2.49,2.49,0,0,0,.44-1.42,8.48,8.48,0,0,1,.65-2.42.94.94,0,0,1,.16-.26.52.52,0,0,1,.71-.15c.14.09.25.23.38.33a.18.18,0,0,0,.3-.12c0-.37,0-.74.05-1.11a1.62,1.62,0,0,1,.31-.94.63.63,0,0,1,.62-.26.5.5,0,0,1,.45.47,22.26,22.26,0,0,1,.63,3.57.72.72,0,0,0,0,.2.22.22,0,0,0,.33.09,1,1,0,0,0,.39-.68,5.34,5.34,0,0,0-.12-2.3,4.7,4.7,0,0,1-.27-1.68A3.7,3.7,0,0,0,159,257a9.38,9.38,0,0,1-.18-3.6c0-.19.16-.37.23-.55a5.65,5.65,0,0,0,.53-1.52,24.35,24.35,0,0,0,.23-3.32c0-.94-.1-1.88-.16-2.82a25,25,0,0,0-.38-3.1,6.06,6.06,0,0,0-1-2.28,7.81,7.81,0,0,1-1.25-2.4,4.45,4.45,0,0,0-.55-1.07,4.73,4.73,0,0,1-.56-1.39,12.36,12.36,0,0,0-.67-2.22,4.34,4.34,0,0,1-.08-3.16,7.07,7.07,0,0,0,.4-2.47,9,9,0,0,1,.08-1.31,1.84,1.84,0,0,0-.15-1.08,4,4,0,0,1-.27-.65c-.08-.29-.25-.31-.53-.29s-.55-.17-.56-.54a2,2,0,0,1,0-.4.66.66,0,0,0-.44-.8,6.51,6.51,0,0,0-3.08-.81c-.87,0-1.75,0-2.62,0a2.84,2.84,0,0,0-2.68,1.48,4.85,4.85,0,0,1-1.06,1.2c-.31.26-.63.5-.95.75a2.83,2.83,0,0,0-.92.93,2.48,2.48,0,0,1-1.38,1.38c-.18.07-.22.23-.17.42a.67.67,0,0,1-.24.63,1.92,1.92,0,0,1-.73.52,4.16,4.16,0,0,0-1.64,1.14c-.18.2-.38.38-.58.56a.55.55,0,0,1-.73.12,1.12,1.12,0,0,0-1.48,0,.68.68,0,0,1-.28.11c-1,.2-2,.66-3,1a5.67,5.67,0,0,0-1.41.54c-1,.61-2.14.81-3,1.54a.63.63,0,0,1-.19.07,16.16,16.16,0,0,0-3.1,1.43,2.17,2.17,0,0,1-.46.2,13.13,13.13,0,0,0-2.71,1.54c-.71.44-1.41.91-2.11,1.37a9.28,9.28,0,0,0-3.11,2.95,10.2,10.2,0,0,1-.87,1.36,1.78,1.78,0,0,0-.31,1.8,6.41,6.41,0,0,1,.25,1.69,4.34,4.34,0,0,0,.11.8,6.91,6.91,0,0,1,0,2.9,2.64,2.64,0,0,0,0,1.29c.11.39.2.78.29,1.17a.45.45,0,0,1-.52.55.74.74,0,0,1-.46-.19,1.34,1.34,0,0,1-.5-.85,2.55,2.55,0,0,0-.27-1,1.78,1.78,0,0,1-.14-.89,5.11,5.11,0,0,0-.48-2.74,1.86,1.86,0,0,1-.14-.48,1,1,0,0,0-.83-.88c-.45-.1-.57-.42-.44-.85a1.13,1.13,0,0,1,.21-.45,2.22,2.22,0,0,0,.48-2,23.07,23.07,0,0,1-.42-3.19.84.84,0,0,0-.07-.29,5,5,0,0,1-.28-2,2.5,2.5,0,0,0-.14-1.09,4.1,4.1,0,0,1-.28-1.78,3.66,3.66,0,0,0-.13-1.3,5.85,5.85,0,0,1-.5-2.14,1.05,1.05,0,0,0-.11-.38c-.46-1.15-1-2.29-1.36-3.46-.22-.66-.41-1.34-.65-2a1.69,1.69,0,0,1-.07-.6,3.07,3.07,0,0,0-.33-1.46,4,4,0,0,1-.23-.66,21,21,0,0,1-.68-2.53,6.06,6.06,0,0,0-1.17-2.74,2.16,2.16,0,0,0-.75-.78,1.68,1.68,0,0,1-.93-1.46,2.58,2.58,0,0,0-.17-.89,10.63,10.63,0,0,0-1.85-2.74,8.93,8.93,0,0,1-1.64-1.76.78.78,0,0,0-1-.37,8.3,8.3,0,0,1-2.16.48,1.35,1.35,0,0,0-.48.15,2.57,2.57,0,0,1-.88.2,1.67,1.67,0,0,0-.59.1,16.65,16.65,0,0,0-2.17,1.05,20.87,20.87,0,0,0-1.77,1.15,1,1,0,0,1-1.28.17.61.61,0,0,0-.58-.05c-1,.39-2,.77-3,1.18a2.23,2.23,0,0,0-.92.78c-.33.46-.65.94-1,1.42a22.17,22.17,0,0,0-1.38,2.8c-.56,1.23-.91,2.52-1.4,3.77a1.13,1.13,0,0,0,.29,1.29,6.71,6.71,0,0,1,1.7,2.59,1.13,1.13,0,0,0,.18.36,6.54,6.54,0,0,1,1,2,11.78,11.78,0,0,0,1.42,3.1c.25.36.53.69.75,1.07q.87,1.47,1.7,3c.46.82,1.11,1.52,1.52,2.37a14.17,14.17,0,0,0,.93,1.79c.68,1,1.11,2.15,1.75,3.18a3.67,3.67,0,0,1,.24.56.92.92,0,0,1,0,.87,1,1,0,0,0,0,1,8.86,8.86,0,0,0,.49.88,7,7,0,0,1,.9,1.8,25.68,25.68,0,0,0,1.62,3.57,6.66,6.66,0,0,1,.53,1.2c.35,1.09.94,2.08,1.34,3.15a.74.74,0,0,0,.16.25c.9.91,1.56,2,2.49,2.91a21.46,21.46,0,0,1,2.75,3.08,3.33,3.33,0,0,0,.47.53c1,.89,1.84,1.87,2.75,2.81a5,5,0,0,0,.83.73,1,1,0,0,0,1.29,0,2.64,2.64,0,0,1,2.13-.7,2.61,2.61,0,0,0,1.63-.42,5.35,5.35,0,0,1,1.75-.75,1.66,1.66,0,0,0,1.18-.83,3.28,3.28,0,0,0,.5-1.09,2.48,2.48,0,0,1,.68-1.22c.26-.27.5-.55.77-.8a31.74,31.74,0,0,0,3.65-4.3c.33-.42.6-.89,1-1.3.85-1,1.57-2.1,2.52-3a.36.36,0,0,0,.06-.08,27.32,27.32,0,0,1,2.12-2.82,17.43,17.43,0,0,1,2.22-2.6c.63-.56,1.26-1.12,1.92-1.62,1.85-1.41,3.46-3.09,5.28-4.53a2.23,2.23,0,0,0,.78-.91,1.41,1.41,0,0,1,1.13-.91,2.16,2.16,0,0,0,1-.58c.27-.25.58-.46.87-.68a2.93,2.93,0,0,0,.82-.73,1.73,1.73,0,0,1,.69-.57,3.81,3.81,0,0,0,.95-.74,3.54,3.54,0,0,1,.45-.4c.57-.42,1.21-.21,1.18.54a1.58,1.58,0,0,0,0,.4.52.52,0,0,0,.13.26,2,2,0,0,0,.95.55c.3.06.49-.18.7-.35l.08-.06a.64.64,0,0,1,.83-.05l.95.57,2.33,1.4a1.43,1.43,0,0,1,.74,1.14c.06.69-.28.93-.93.65l-.18-.09a49.83,49.83,0,0,0-5.08-2.17.19.19,0,0,0-.17.06.2.2,0,0,0,0,.18c.17.2.37.39.54.6a.47.47,0,0,1-.06.72,4.6,4.6,0,0,1-.54.45c-.51.38-.52.38-.2,1a17,17,0,0,1,.83,1.61,5.49,5.49,0,0,1,.64,2,7.82,7.82,0,0,0,1.1,3.51,7.09,7.09,0,0,1,.9,2.65,1.91,1.91,0,0,0,.14.58c.11.28.05.41-.23.54s-.41.27-.28.61a4.4,4.4,0,0,1,.29.75,24,24,0,0,0,.76,2.7,2.3,2.3,0,0,1-.09,1.77,1.2,1.2,0,0,0-.17.47,3.52,3.52,0,0,1-.49,1.42,2.13,2.13,0,0,0-.28.65,12.42,12.42,0,0,1-.89,2.46,2.35,2.35,0,0,1-.67,1.11,7,7,0,0,0-.93,1.06ZM2.62,241.77A9.46,9.46,0,0,0,3,244.85a6.34,6.34,0,0,0,2.33,3.08,20.17,20.17,0,0,0,3,1.84,24.66,24.66,0,0,0,3.44,1.42,1.1,1.1,0,0,0,.79,0,8.68,8.68,0,0,0,2.18-1,8.39,8.39,0,0,1,1.15-.63c1.08-.61,2.18-1.21,3.24-1.85A3.68,3.68,0,0,1,21.2,247a3,3,0,0,0,1.58-.25,2,2,0,0,1,.89-.13c.44,0,.88,0,1.31,0a2.09,2.09,0,0,0,.69-.12,25.2,25.2,0,0,0,2.47-1.13A26.66,26.66,0,0,1,30.94,244a22.89,22.89,0,0,1,2.34-.94A10.23,10.23,0,0,0,35.65,242a24.22,24.22,0,0,0,2.13-1.51c1.61-1.22,3.31-2.31,5-3.43a6.36,6.36,0,0,1,.78-.46c1.13-.54,2.12-1.3,3.18-1.94a5.11,5.11,0,0,1,1.36-.64,16.83,16.83,0,0,0,3.6-1.3,3.58,3.58,0,0,1,1.72-.49,1,1,0,0,0,.39-.1,1.14,1.14,0,0,1,1,0c.34.15.74.27,1-.06s.15-.7.06-1.06-.21-.64-.29-1c-.24-.87-.47-1.75-.71-2.62a1.52,1.52,0,0,0-.12-.28.68.68,0,0,0-.73-.42,3.11,3.11,0,0,0-1.57.6,17.38,17.38,0,0,1-3.18,2.09c-1.47.73-2.95,1.44-4.49,2a8,8,0,0,0-2.11,1.17,8.27,8.27,0,0,1-1.93,1.07,6.27,6.27,0,0,0-1.35.67c-1.11.83-2.35,1.44-3.51,2.19a2.51,2.51,0,0,1-1.42.46,1.55,1.55,0,0,0-.59.12c-.74.31-1.49.61-2.22,1a4.58,4.58,0,0,1-2.1.62,2.82,2.82,0,0,0-.68.17,5,5,0,0,1-.79.16c-1,.07-1.95.14-2.92.17a2.7,2.7,0,0,0-1.51.48,8.1,8.1,0,0,0-1.07.91c-.57.57-1.17,1.11-1.78,1.64-.3.26-.59.2-.89-.11a.56.56,0,0,1,0-.88,38.13,38.13,0,0,1,2.73-2.68,2.59,2.59,0,0,1,.58-.4,3.86,3.86,0,0,1,2.68-.62,5.26,5.26,0,0,0,1.81,0,17.68,17.68,0,0,1,2.31-.19,1.34,1.34,0,0,0,.59-.12,12.52,12.52,0,0,1,2.14-.86c.29-.09.56-.2.86-.26a4.43,4.43,0,0,0,1.76-.71,19.34,19.34,0,0,1,2.49-1.53,15.69,15.69,0,0,1,2.57-1.35,3,3,0,0,0,1-.55,17.07,17.07,0,0,1,4.31-2.37,25.29,25.29,0,0,0,2.56-1.18c.95-.5,1.87-1.06,2.79-1.61a1.57,1.57,0,0,0,.53-.46,2.82,2.82,0,0,1,2.21-1.56c.22,0,.31-.24.32-.46a1.59,1.59,0,0,0,0-.4,21,21,0,0,0-1.14-4.07,10.17,10.17,0,0,1-.44-1.23c-.21-.67-.37-1.36-.6-2a18,18,0,0,0-1.21-2.77,6.83,6.83,0,0,1-.34-.84c-.17-.44-.31-.89-.48-1.33a5,5,0,0,0-2.37-2.77,22.66,22.66,0,0,1-2.07-1.25,3.23,3.23,0,0,0-3-.36c-.92.32-1.86.57-2.78.9a3,3,0,0,1-2.26,0l-.56-.21a1.84,1.84,0,0,0-1.9.29c-.27.2-.54.4-.83.57l-3,1.82a5.19,5.19,0,0,1-1.62.79,2.1,2.1,0,0,0-.94.57A15.54,15.54,0,0,0,27,213.19a1.42,1.42,0,0,1-1.05.53,1.84,1.84,0,0,0-1.23.6A22.46,22.46,0,0,1,21.37,217a12.43,12.43,0,0,0-1.86,1.37,5.66,5.66,0,0,1-1.36.86,6.63,6.63,0,0,0-1.53,1c-.9.8-1.74,1.67-2.66,2.46a29.89,29.89,0,0,0-2.51,2.47,13.69,13.69,0,0,1-2.2,2.07,3.45,3.45,0,0,0-.76.8,13.12,13.12,0,0,1-1.22,1.35,12.22,12.22,0,0,0-2.05,2.48,19.68,19.68,0,0,0-1.7,3.87c-.42,1.35-.47,2.78-.85,4.14a2.85,2.85,0,0,0,0,.7C2.62,241,2.62,241.37,2.62,241.77Zm121.79-122h0c.67,0,1.35,0,2,0,.38,0,.58-.17.6-.55,0-.81,0-1.61,0-2.42,0-.43-.27-.61-.68-.52a3.44,3.44,0,0,0-1,.39c-.49.29-1,.52-1.52.78a1.71,1.71,0,0,1-1.18.14c-.46-.11-.91-.24-1.36-.38a.64.64,0,0,1-.44-.71.58.58,0,0,1,.55-.51c.47,0,.94,0,1.41,0a3.72,3.72,0,0,0,1.1-.09l2.37-.79a.46.46,0,0,0,.34-.34,4.56,4.56,0,0,0-.08-2.09.42.42,0,0,0-.56-.29,3.53,3.53,0,0,1-1.78.26,3.87,3.87,0,0,0-1.47.29,10.06,10.06,0,0,0-1.24.66.5.5,0,0,1-.48,0,.74.74,0,0,1-.1-1.3,8.42,8.42,0,0,1,2.92-1,1.34,1.34,0,0,0,.77-.17c.11-.09.23-.22.1-.33a1.65,1.65,0,0,1-.49-.85.52.52,0,0,0-.52-.4c-.27,0-.54,0-.81,0h-1.41a1.09,1.09,0,0,1-1.11-.7c-.17-.41-.29-.43-.72-.26a4.83,4.83,0,0,1-1.77.34,1.4,1.4,0,0,1-1.18-.45,1.51,1.51,0,0,0-1.37-.49,4.48,4.48,0,0,0-.89.13,2.2,2.2,0,0,1-1.09.08,1.35,1.35,0,0,0-.6,0c-.88.25-1.82.09-2.68.42a.74.74,0,0,1-.84-.39.56.56,0,0,1,.11-.65c.11-.13.23-.25.33-.38.23-.3.2-.45-.12-.65l-2.74-1.71a3.71,3.71,0,0,1-1.45-1.37,3.89,3.89,0,0,0-1.17-1.36,3,3,0,0,1-.76-.8,3.11,3.11,0,0,0-1.18-1.08,2,2,0,0,1-.82-.73,6.63,6.63,0,0,0-1.07-1.33,2.53,2.53,0,0,1-.59-.92A9.28,9.28,0,0,0,99,95.42,7.24,7.24,0,0,1,98,93.9a.85.85,0,0,0-.32-.38,6,6,0,0,1-1.42-1.69,3.58,3.58,0,0,0-1.55-1.4,3.15,3.15,0,0,1-1.32-1.06c-.18-.24-.39-.46-.58-.7a4.68,4.68,0,0,0-1.67-1.43,1.41,1.41,0,0,1-.6-.52,5.39,5.39,0,0,0-1.62-1.48,4.91,4.91,0,0,0-3.2-1,4.74,4.74,0,0,1-.81,0,1.45,1.45,0,0,1-.48-.13.7.7,0,0,1-.46-.8c.11-.32.4-.32.67-.34l.81,0a.21.21,0,0,0,.14-.12.2.2,0,0,0,0-.17.81.81,0,0,0-.25-.17,3.51,3.51,0,0,1-2.09-2.06,1.53,1.53,0,0,0-.93-.86,4.84,4.84,0,0,1-2-1A.57.57,0,0,0,80,78.4a.74.74,0,0,1-.79-.74.76.76,0,0,0-.62-.7,10.72,10.72,0,0,1-1.66-.74c-.49-.22-1-.46-1.46-.67a3.47,3.47,0,0,0-1.79-.12.53.53,0,0,0-.41.27,1.75,1.75,0,0,1-1.15.74,5.62,5.62,0,0,0-3.17,2,1.09,1.09,0,0,0-.29,1.11,8.82,8.82,0,0,1,.34,2.49,2.68,2.68,0,0,0,.09.6,18.62,18.62,0,0,0,.86,2.68,1.82,1.82,0,0,1,.19.57,12.09,12.09,0,0,0,.67,2.53,10.1,10.1,0,0,1,.51,1.84,16.26,16.26,0,0,0,.38,2.38,12.13,12.13,0,0,0,.69,2,6.24,6.24,0,0,1,.83,2.57,1,1,0,0,0,.1.39,16,16,0,0,1,1.25,3.07,31.05,31.05,0,0,1,1.35,3,2.51,2.51,0,0,0,.86,1.09c.31.2.62.41.92.62a12.12,12.12,0,0,1,1.13.84c.82.74,1.62,1.52,2.42,2.28a6.44,6.44,0,0,0,2.44,1.56,2.32,2.32,0,0,1,1.28.76,9.29,9.29,0,0,0,1.4,1.45,13.37,13.37,0,0,0,3.33,2.73A3.59,3.59,0,0,1,91,116.54a5.42,5.42,0,0,0,1.94,1.71,2.78,2.78,0,0,1,1.19,1.19c.32.66.63,1.33,1,2,.44.86.88.91,1.55.23l.06-.08c.91-1.08,1.86-2.12,2.87-3.11s1.7-1.72,2.49-2.64a2.26,2.26,0,0,1,.53-.47,15.89,15.89,0,0,0,2.12-1.7,4.52,4.52,0,0,1,1.82-1.06,3.24,3.24,0,0,0,1.35-.84c.37-.33.39-.5.08-.83a4.85,4.85,0,0,0-.59-.55q-.59-.47-1.21-.91c-.71-.51-1.41-1-2.15-1.5a6.64,6.64,0,0,1-1.2-.91,20.44,20.44,0,0,0-2.61-2.22,6,6,0,0,1-1.43-1.41,9.73,9.73,0,0,0-1.37-1.48,12.73,12.73,0,0,1-1.28-1.29,6.34,6.34,0,0,0-1.66-1.45,4.06,4.06,0,0,1-1.27-1.14,2.47,2.47,0,0,0-1-.82,6.54,6.54,0,0,1-1.75-1.18,9.51,9.51,0,0,0-1.59-1.23,4,4,0,0,1-1.38-1.44,7.27,7.27,0,0,0-1.76-2.06,4.71,4.71,0,0,1-.9-1c-.32-.47-.68-.92-1-1.41a1.7,1.7,0,0,0-.65-.62,12.54,12.54,0,0,1-1.39-1,1.27,1.27,0,0,1-.65-1.07,1,1,0,0,0-.24-.55,4.44,4.44,0,0,1-.33-.5.43.43,0,0,1,.07-.55.54.54,0,0,1,.55-.17,1,1,0,0,1,.35.19,3.46,3.46,0,0,1,1.3,1.75,1,1,0,0,0,.72.75,2.16,2.16,0,0,1,1.29,1.05,8.15,8.15,0,0,0,2,2.29,4.91,4.91,0,0,1,1.08,1.32,5.34,5.34,0,0,0,1.65,1.86,10.48,10.48,0,0,1,2.08,1.59,2.2,2.2,0,0,0,.87.49,4.1,4.1,0,0,1,2.11,1.64,1.16,1.16,0,0,0,.45.39A11.11,11.11,0,0,1,97.7,100c.27.3.59.55.89.82a7.22,7.22,0,0,1,.86.85,11.12,11.12,0,0,0,2.91,2.62,3.73,3.73,0,0,1,.78.63,16.8,16.8,0,0,0,3.37,2.53,14.51,14.51,0,0,1,3.06,2.45,1.4,1.4,0,0,0,1.24.53,12,12,0,0,1,1.61,0,1.13,1.13,0,0,1,1.15,1.16c0,.47,0,.94,0,1.41a1.53,1.53,0,0,0,.38,1.11,10.45,10.45,0,0,1,.68,1,7.35,7.35,0,0,0,.64.9,7.31,7.31,0,0,1,.9,1.21,10.89,10.89,0,0,0,1,1.49,2.13,2.13,0,0,1,.53,1,4.48,4.48,0,0,0,.5,1.2,2.44,2.44,0,0,1,.33.73c.11.88.59,1.65.65,2.54a.79.79,0,0,0,.44.63c.42.25.79.49,1.28.11a1.2,1.2,0,0,1,.68-.12,3,3,0,0,0,1.06-.27,24.12,24.12,0,0,1,3.1-1.19,1.1,1.1,0,0,0,.82-1.32c0-.34-.16-.5-.48-.54a3.57,3.57,0,0,0-.71,0,6.7,6.7,0,0,1-2.86-.46,1.29,1.29,0,0,1-.78-.6.39.39,0,0,1,.22-.57,2.47,2.47,0,0,1,.59-.09ZM62.26,130.23a.55.55,0,0,0-.15-.52l-2.83-4.3c-.11-.17-.21-.34-.32-.51a.71.71,0,0,1-.08-.76.77.77,0,0,0-.14-1,1.77,1.77,0,0,1-.42-1.31,1.29,1.29,0,0,0-.24-.86,12.24,12.24,0,0,1-1-2,2.71,2.71,0,0,1-.31-1.25,3,3,0,0,0-.21-1.08,8.92,8.92,0,0,1-.56-2,9.41,9.41,0,0,0-.7-2.41,4.4,4.4,0,0,1-.33-1.67c0-.71,0-1.41,0-2.12a3,3,0,0,0-.12-1,6.75,6.75,0,0,1,0-4.16,6.63,6.63,0,0,0,.18-1.09,6.93,6.93,0,0,1,.19-1,.67.67,0,0,1,.48-.47.46.46,0,0,1,.65.41,4.45,4.45,0,0,1-.28,1.58,1.8,1.8,0,0,0-.18.57c0,1,0,2,0,2.93a.5.5,0,0,0,.23.43l.09,0c.08,0,.15,0,.15-.1,0-.33,0-.67.05-1a3.52,3.52,0,0,1,.11-1.1,5.23,5.23,0,0,0,.32-2.08,2,2,0,0,1,.22-1,3.08,3.08,0,0,0,.17-.37,7,7,0,0,1,1.57-2.56.78.78,0,0,0,.19-1.08,3.55,3.55,0,0,1-.33-1.15c-.21-.93-.22-2-1.11-2.6a.28.28,0,0,1-.06-.08.58.58,0,0,1,.44-.89.77.77,0,0,1,.72.28,4.84,4.84,0,0,1,1.08,1.8,7.08,7.08,0,0,1,.41,1.49,1.68,1.68,0,0,0,.82-.8,10,10,0,0,1,.79-1.17,40.83,40.83,0,0,1,3.6-3.53,8.77,8.77,0,0,0,2.07-2.18,1.58,1.58,0,0,0,.26-.94c0-.35-.13-.48-.52-.41a1.36,1.36,0,0,1-1.47-.63,2.15,2.15,0,0,0-.85-.69,2.77,2.77,0,0,1-.6-.36A3.8,3.8,0,0,0,62,84.75,13.14,13.14,0,0,1,59,84a2.17,2.17,0,0,0-.59-.13,3.35,3.35,0,0,1-1.26-.33c-.37-.17-.74-.31-1.11-.48a19.06,19.06,0,0,0-2-.88c-.7-.21-1.42-.4-2.11-.66a1.24,1.24,0,0,0-.6,0,6.61,6.61,0,0,0-1.37.33,9.89,9.89,0,0,1-2.21.67,2.78,2.78,0,0,0-2,1.61,5.49,5.49,0,0,0-.49,1.84A5.74,5.74,0,0,1,45,87.4a2.37,2.37,0,0,0-.12.59c-.3,1.93-.4,3.88-.61,5.82-.12,1.1-.26,2.2-.38,3.3a7.37,7.37,0,0,0,0,.81c0,1.72,0,3.43,0,5.15a3.7,3.7,0,0,0,.11,1.1,6.93,6.93,0,0,1,.3,2.29,5.17,5.17,0,0,0,.05.8c.24,1.7.77,3.33,1,5a2.5,2.5,0,0,0,.14.38c.07.22.14.45.2.67a8.14,8.14,0,0,1,.47,2.56,1.5,1.5,0,0,0,.15.48,2.41,2.41,0,0,1,.18.57,3.93,3.93,0,0,0,.41,1.55,2.28,2.28,0,0,1,.17.68,3.53,3.53,0,0,0,.47,1.32,9.58,9.58,0,0,1,.9,2.45,4.69,4.69,0,0,0,.67,1.56,1.28,1.28,0,0,1,.34.72,6.14,6.14,0,0,0,.49,2.15c.29.79.35,1.64.7,2.41a2.09,2.09,0,0,1,.11.59,4.87,4.87,0,0,0,.91,2.1.73.73,0,0,0,.79.34,14.7,14.7,0,0,0,1.58-.33,27.05,27.05,0,0,1,3.16-1c.19,0,.37-.17.56-.23a5.33,5.33,0,0,1,1.72-.53C60.43,130.75,61.31,130.23,62.26,130.23Zm57.61,2.67a5.58,5.58,0,0,1-.2,1,19.14,19.14,0,0,0-.71,2.31,9.11,9.11,0,0,1-.41,1.24,3.82,3.82,0,0,1-.74,1.3,7.07,7.07,0,0,0-1.13,1.66,2.52,2.52,0,0,0-.33,1.15c0,.67-.09,1.34-.17,2a8.87,8.87,0,0,1-1.31,3.68c-.51.79-1,1.61-1.42,2.44a11.92,11.92,0,0,1-1.72,2.48,60.24,60.24,0,0,0-4.3,5.07c-.35.46-.59,1-.89,1.46-.66,1.05-1.34,2.09-2,3.16-.53.89-1,1.83-1.49,2.74a11.17,11.17,0,0,0-.78,1.41,16.37,16.37,0,0,1-1.48,2.75,7.71,7.71,0,0,0-1.22,3.69,2.74,2.74,0,0,1-.17,1,1.43,1.43,0,0,0,.25,1.67c.32.36.26.64,0,1a3.94,3.94,0,0,1-.29.27,1.56,1.56,0,0,0-.43.79,6,6,0,0,0-.1,2,.32.32,0,0,0,.43.3c.83-.27,1.67-.49,2.47-.83a11.86,11.86,0,0,0,1.23-.42c.73-.41,1.48-.8,2.2-1.23a8.67,8.67,0,0,1,2.81-1.08,8.46,8.46,0,0,1,2-.14,1.36,1.36,0,0,0,1.05-.25,19.37,19.37,0,0,0,2.52-2.16,1.54,1.54,0,0,1,.91-.59,1.61,1.61,0,0,0,.72-.36c.69-.6,1.44-1.1,2.16-1.65,1.41-1.09,2.74-2.28,4.13-3.39s2.44-2.21,3.66-3.32c.37-.34.68-.74,1-1.11.18-.2.36-.4.55-.59.74-.73,1.51-1.44,2.23-2.19.47-.48.88-1,1.32-1.53a.61.61,0,0,0,.05-.75c-.22-.41-.43-.83-.65-1.25a5.39,5.39,0,0,1-.84-2,2.83,2.83,0,0,0-.4-.92c-.51-1-1-2-1.54-3.06a.75.75,0,0,1,0-.93.85.85,0,0,0,0-1,20.52,20.52,0,0,1-.78-2,13.41,13.41,0,0,0-1.33-3,17,17,0,0,1-1.63-3.12A23.21,23.21,0,0,0,122,138.3a3.48,3.48,0,0,1-.75-2.34.4.4,0,0,0,0-.2A10.15,10.15,0,0,0,119.87,132.9ZM122.13,57c.17,0,.24-.12.31-.23.3-.45.62-.88.89-1.35A9.44,9.44,0,0,1,125.28,53a2.18,2.18,0,0,0,.28-.29,11.07,11.07,0,0,1,3.36-2.54,15.17,15.17,0,0,0,1.9-1.33,1.21,1.21,0,0,0,.46-.86,5.06,5.06,0,0,1,.16-1,6,6,0,0,0,.28-2,9,9,0,0,1,.29-2.4,9,9,0,0,0,.27-2.4,3,3,0,0,1,.27-1.57,1.62,1.62,0,0,0,.13-.79c0-.54,0-1.08,0-1.62a5.21,5.21,0,0,1,.08-.8c0-.25.23-.36.53-.3s.4.12.55-.08.57-.53.46-1a13.15,13.15,0,0,0-.77-2.82,46.47,46.47,0,0,1-1.71-4.41,1.49,1.49,0,0,1-.1-.39,6.43,6.43,0,0,0-1-2.71,4.18,4.18,0,0,1-.69-2.58,3.35,3.35,0,0,0-.27-1.67,2.82,2.82,0,0,1-.15-1.68c.13-.73.2-1.47.31-2.2a28.11,28.11,0,0,0,.13-3.43,4.12,4.12,0,0,1,.16-1.5c.37-.89.21-1.86.48-2.77a.16.16,0,0,0,0-.1s0-.08-.06-.08-.14,0-.17,0a1.21,1.21,0,0,0-.14.26A24,24,0,0,1,129.06,11a8.23,8.23,0,0,0-.64,1,7.23,7.23,0,0,0-.95,3,1.42,1.42,0,0,1-.15.58,3.08,3.08,0,0,0-.22,1.28c0,2.36,0,4.71,0,7.07a10,10,0,0,0,.69,3.72,1.35,1.35,0,0,1,.07.79.36.36,0,0,1-.62.2,2,2,0,0,1-.59-1,5.61,5.61,0,0,0-.23-.88,11.42,11.42,0,0,1-.52-4.36.61.61,0,0,1,0-.1,5.2,5.2,0,0,0,0-2.2,6.45,6.45,0,0,1,0-2.61,8.34,8.34,0,0,0,.14-1.1,5.09,5.09,0,0,1,.37-1.77,1.61,1.61,0,0,0,.11-.39.23.23,0,0,0-.07-.17.18.18,0,0,0-.15,0c-.15.52-.56.94-.63,1.48a4.31,4.31,0,0,1-.34,1.36,1.4,1.4,0,0,0-.1.59,4.56,4.56,0,0,1-.32,1.78,2.55,2.55,0,0,0-.1.69c0,.3,0,.61-.08.9a6.73,6.73,0,0,0,0,2,15.58,15.58,0,0,1,.11,2A2.55,2.55,0,0,0,125,26a4.21,4.21,0,0,1,.28,1.78,10.53,10.53,0,0,1-.37,3.6,2.28,2.28,0,0,0,0,.3c-.15.76-.28,1.52-.47,2.27a5.81,5.81,0,0,1-1.08,1.92,1.19,1.19,0,0,1-.4.29q-.66.36-1.34.7a2.59,2.59,0,0,0-1.25,1.26c-.21.46-.47.89-.72,1.33-.42.73-.85,1.45-1.27,2.18-.08.14-.16.34,0,.45s.25-.06.33-.16a12,12,0,0,1,2.51-2.17A23.26,23.26,0,0,1,124.21,38a15.26,15.26,0,0,1,2.43-1,8.35,8.35,0,0,0,2.25-.87,1.42,1.42,0,0,1,.57-.19.44.44,0,0,1,.47.65,2.31,2.31,0,0,1-1.13,1.11,15.91,15.91,0,0,1-2,.77,16.82,16.82,0,0,0-2.52,1,17.36,17.36,0,0,0-2.54,1.62,13.93,13.93,0,0,0-3.34,3.33,3.82,3.82,0,0,0-.6,1c-.46,1.44-1,2.86-1.36,4.31-.18.64-.3,1.31-.45,2a4.56,4.56,0,0,0-.06,1,.78.78,0,0,0,.31.71.7.7,0,0,1,.22,1,4.43,4.43,0,0,0-.54,2.53,3.49,3.49,0,0,1-.31,1.56c-.45,1.16-1,2.27-1.58,3.38A7.53,7.53,0,0,1,112,64.48a5.27,5.27,0,0,1-2.34,1.13,9.83,9.83,0,0,0-1.73.51,7.2,7.2,0,0,0-3.46,2.16,6,6,0,0,0-1,1.24c-.92,1.49-1.8,3-2.65,4.53-.44.79-.83,1.61-1.23,2.43-.79,1.63-1.56,3.27-2.36,4.9-.39.78-.83,1.54-1.24,2.31a.63.63,0,0,0,.4,1,1.5,1.5,0,0,0,.39.09,10.74,10.74,0,0,1,1.84.51,1.41,1.41,0,0,1,.76.48.48.48,0,0,1-.24.8,1.47,1.47,0,0,1-.3,0,6.17,6.17,0,0,1-2.58-.34c-.31-.12-.63-.24-.95-.35a1.36,1.36,0,0,0-1.73.61.3.3,0,0,0,0,.38A19.44,19.44,0,0,0,95,88.62c.89.86,1.85,1.67,2.78,2.49a1,1,0,0,0,.27.12c.43-.43.52-1,.85-1.49A20.87,20.87,0,0,0,100,87.69a.68.68,0,0,0,.12-.38,7.33,7.33,0,0,1-.2-.87c0-.39.53-.38.62-.74a6.33,6.33,0,0,0,.49-2.45c0-.33,0-.67,0-1a1.34,1.34,0,0,1,.49-1.17,1.87,1.87,0,0,0,.61-1c.15-.55.27-1.11.47-1.65.45-1.19.91-2.38,1.44-3.54a15.71,15.71,0,0,1,1.25-2.29,9.71,9.71,0,0,0,1.55-2.7,1.92,1.92,0,0,1,1-1.11c.88-.48,1.8-.89,2.72-1.3a10.9,10.9,0,0,1,1.93-.52,13.75,13.75,0,0,0,3.64-1.43,10.55,10.55,0,0,1,3.24-1.34,5.43,5.43,0,0,0,1.68-.67c.58-.33.68-.64.41-1.26a2.69,2.69,0,0,1-.37-1.14,23.38,23.38,0,0,0-.28-2.81q-.11-1.3-.14-2.61a34.27,34.27,0,0,1,.07-3.73c.08-.94.33-1.85.33-2.8,0-2.1-.14-1.82.91-3.63.07-.12.1-.25.17-.37a6.13,6.13,0,0,1,1.72-1.95L127.38,41c.45-.29.89-.61,1.36-.87a3.81,3.81,0,0,0,.81-.59l1.29-1.28c.29-.28.58-.56.89-.82a.42.42,0,0,1,.56,0,.44.44,0,0,1,.18.54,4.74,4.74,0,0,1-1.16,1.86,17.62,17.62,0,0,1-1.49,1.2c-1.59,1.06-3.21,2.09-4.81,3.14l-.09,0a2.87,2.87,0,0,0-1.7,1.75,5.62,5.62,0,0,1-.33.62,3.43,3.43,0,0,0-.46,1.93,4.74,4.74,0,0,1-.27,2.08,3,3,0,0,0-.12,1,5.55,5.55,0,0,1-.3,2.08,2,2,0,0,0-.09.6A5.33,5.33,0,0,0,122.13,57Zm15.2,166.38h0c0-.44,0-.88,0-1.31a3.38,3.38,0,0,0-.77-1.83.54.54,0,0,0-.32-.23c-.62-.07-.91-.51-1.17-1a2.35,2.35,0,0,0-.36-.48c-.55-.59-.86-1.37-1.45-1.93a.85.85,0,0,1-.14-.27c-.44-1-.87-2-1.34-2.93a4.61,4.61,0,0,0-1.29-1.78c-.67-.5-1.36-1-2-1.48l-.25-.16c-.4-.22-.59-.19-.86.17s-.76,1-1.09,1.58a8.08,8.08,0,0,1-1,1.38c-.67.71-1.32,1.43-2,2.11a11.09,11.09,0,0,1-3.52,2.48,6.07,6.07,0,0,1-2,.61c-1.45.05-2.89,0-4.34,0a1.85,1.85,0,0,1-1.28-.51,5,5,0,0,1-.7-.73,27.37,27.37,0,0,1-2-2.55.4.4,0,0,0-.14-.14.27.27,0,0,0-.18,0,.2.2,0,0,0-.12.13,1.44,1.44,0,0,0,.06.89,17,17,0,0,0,.64,1.69,1.33,1.33,0,0,1,.2.67,5.74,5.74,0,0,0,.4,2.27,12.15,12.15,0,0,0,.56,3.05,7.2,7.2,0,0,0,.34,1.47,2.77,2.77,0,0,1,.13.69,14,14,0,0,0,.84,3.31,5.79,5.79,0,0,1,.6,2.53,1,1,0,0,0,.07.49,3.74,3.74,0,0,1,.35,1.86,1,1,0,0,0,.08.49,4,4,0,0,1,.31,2,5.08,5.08,0,0,0,.18,1.39,3.11,3.11,0,0,1,.05,2.8c-.13.2.06.38.23.5a.37.37,0,0,0,.47,0,2,2,0,0,0,.5-.63,4.76,4.76,0,0,1,.55-.84,13.1,13.1,0,0,1,3.45-2.59,7.19,7.19,0,0,0,1.17-.76,6,6,0,0,1,.65-.48,14.27,14.27,0,0,1,2.91-1.58,5.55,5.55,0,0,0,.63-.33c.39-.2.78-.4,1.17-.59,1.33-.63,2.68-1.23,4-1.9a23.36,23.36,0,0,1,2.63-1.26,7,7,0,0,1,2.91-.72.73.73,0,0,0,.62-.28,3.51,3.51,0,0,1,1.26-.81c.21-.1.44-.18.65-.28a.35.35,0,0,0,.09-.59c-.07-.07-.16-.12-.24-.19a.89.89,0,0,1-.28-1.17,2,2,0,0,0,.2-.88C137.33,224.3,137.33,223.86,137.33,223.42Zm2.37-59.3a1.32,1.32,0,0,0-.27-.94,15.29,15.29,0,0,1-1.13-1.78,9,9,0,0,1-1-2.94,1.38,1.38,0,0,0-.13-.48,2.84,2.84,0,0,1-.29-1.17,1.56,1.56,0,0,0-.11-.49,21.7,21.7,0,0,0-1.24-3.07,3.79,3.79,0,0,1-.41-1,5.06,5.06,0,0,0-.6-1.27c-.13-.23-.29-.45-.41-.69-.46-.89-.91-1.79-1.38-2.69a8.28,8.28,0,0,1-.72-1.32,8.39,8.39,0,0,0-.87-1.81,15.57,15.57,0,0,1-.93-2.23c-.48-1.21-.93-2.44-1.4-3.66a7.56,7.56,0,0,1-.36-.94,9.12,9.12,0,0,0-1-2.61,7.14,7.14,0,0,1-.39-.81L125,129.4a11.76,11.76,0,0,1-.72-2.2,6.2,6.2,0,0,0-.49-1.21.3.3,0,0,0-.43-.14,19.49,19.49,0,0,0-2.86,1.47.4.4,0,0,0-.16.53,5.73,5.73,0,0,0,.26.55,23.69,23.69,0,0,1,1.66,3.54,11.64,11.64,0,0,1,.56,1.92,7.43,7.43,0,0,0,1.17,3,4.4,4.4,0,0,1,.25.44l2.43,5.31c.39.85.63,1.76,1,2.64.47,1.25.91,2.51,1.43,3.74.62,1.49,1.11,3,1.65,4.54a5,5,0,0,0,.29.75,9.08,9.08,0,0,1,.76,1.75,1,1,0,0,0,.86.72c.66.11.73.21.61.87a2.79,2.79,0,0,0,.14,1.38c.3,1,.6,1.92.87,2.89a28,28,0,0,0,1.12,3.33,1.46,1.46,0,0,0,1.45,1,2.44,2.44,0,0,1,1.69.53c.19.16.38.09.5-.13A19.3,19.3,0,0,0,139.7,164.12ZM137.52,45.78a10.52,10.52,0,0,1-.2-1.92.5.5,0,0,0,0-.2,5.18,5.18,0,0,1-.39-1.76,2.92,2.92,0,0,0-.51-1.58,4.56,4.56,0,0,0-1.19,1.06,1,1,0,0,0-.31,1,5.5,5.5,0,0,1-.22,2.88,3.46,3.46,0,0,0-.12,1.2,15.29,15.29,0,0,1-.06,1.61,10.74,10.74,0,0,0-.09,1.81c0,1-.3,2.06-.3,3.1a1.67,1.67,0,0,1-.16.47,2.52,2.52,0,0,0-.17.58,3.52,3.52,0,0,1-.64,1.57A8.17,8.17,0,0,0,132,57.73a2.53,2.53,0,0,1-.63,1A12.84,12.84,0,0,0,129.82,61,17.85,17.85,0,0,1,128.54,63a8.58,8.58,0,0,0-.52.74c0,.07-.08.23,0,.27s.25,0,.32-.1a5,5,0,0,0,.49-.63c.29-.45.54-.93.85-1.37a13.06,13.06,0,0,1,1.29-1.68A15,15,0,0,1,136,57c.55-.23.94-.49,1-1.11a1.71,1.71,0,0,1,.42-.9.52.52,0,0,1,.91.05c.33.52.33.51.78.26a8.46,8.46,0,0,1,.88-.48A7.49,7.49,0,0,0,142.49,53c.67-.71,1.37-1.39,2-2.09a16.42,16.42,0,0,0,2.44-2.8,4.37,4.37,0,0,1,.63-.79c.82-.84,1.48-1.81,2.28-2.68a45.54,45.54,0,0,0,3.55-4.76c.35-.49.6-1.05.95-1.54,1.3-1.8,2.35-3.75,3.48-5.66.61-1,1.22-2.08,1.91-3.08.38-.55.73-1.13,1.08-1.7.07-.11.15-.26,0-.35s-.19.06-.25.12a3.45,3.45,0,0,0-.51.62,13.77,13.77,0,0,1-.82,1.15c-.91,1.29-2,2.45-3,3.68a47.46,47.46,0,0,0-2.66,4c-1,1.59-2,3.15-3.2,4.64-.23.29-.45.59-.7.86a7.32,7.32,0,0,1-3,2.1,10.43,10.43,0,0,0-2.36,1.1,7.52,7.52,0,0,1-3.88,1.22,2.22,2.22,0,0,0-1.75.84c-.28.36-.46.41-.87.2a2.46,2.46,0,0,0-2-.06l-.09,0c-.47.13-.76.05-.87-.23s0-.53.47-.78l.27-.14a4.6,4.6,0,0,1,1.51-.53C137.39,46.39,137.52,46.18,137.52,45.78ZM99.22,92.32c0,.36,0,.63.29.77a7.82,7.82,0,0,1,1.66,1.3c.3.29.45.28.8.05.74-.47,1.44-1,2.21-1.41a9.22,9.22,0,0,0,1.64-1.15c.78-.69,1.66-1.24,2.43-2A12.14,12.14,0,0,0,110,88a9.82,9.82,0,0,1,.94-1.18,22.46,22.46,0,0,0,3.05-4c.41-.69.72-1.44,1.06-2.17a10.19,10.19,0,0,1,.94-2.31c.09-.12.07-.33.12-.48a13.84,13.84,0,0,1,.74-2.29c.46-.86.84-1.75,1.27-2.62a11.28,11.28,0,0,0,1-2.62,9.3,9.3,0,0,1,.74-2.18,9.57,9.57,0,0,1,1.85-2.74,6.82,6.82,0,0,0,.67-.88.27.27,0,0,0,0-.19.19.19,0,0,0-.11-.13c-.19,0-.3.12-.44.2a7.59,7.59,0,0,1-3.23,1.32,1.56,1.56,0,0,0-.46.18c-.3.13-.66.21-.51.69,0,.09-.07.27-.16.35a4.93,4.93,0,0,1-1.39,1.15,2.4,2.4,0,0,0-1.23,1.26,10.06,10.06,0,0,1-1,1.54,5,5,0,0,0-.77,1.62,6,6,0,0,0-.49,2.24.51.51,0,0,1,0,.19c-.25.73-.47,1.47-.75,2.19q-.61,1.6-1.29,3.17a.88.88,0,0,0,0,.86.78.78,0,0,1-.12.85,6.39,6.39,0,0,0-.63,1.14A15.85,15.85,0,0,1,109,85a2.46,2.46,0,0,1-.79.9L105.23,88c-.46.34-.92.68-1.38,1a1.48,1.48,0,0,1-1.78,0c-.26-.21-.37-.68-.72-.65s-.34.6-.59.86a3,3,0,0,0-.27.42,11.51,11.51,0,0,0-1.09,2.15C99.32,92,99.26,92.2,99.22,92.32Zm15.91.94c-.06-.06-.1-.13-.14-.13-.3,0-.64,0-.75-.35s.14-.51.33-.69a7.16,7.16,0,0,0,1.56-2.33,44.19,44.19,0,0,0,1.77-4.39,13.9,13.9,0,0,0,.51-1.52,10.73,10.73,0,0,0,.38-2.27,1.58,1.58,0,0,1,.15-.48,2.17,2.17,0,0,0,.19-.57,11.75,11.75,0,0,1,.74-2.91c.31-1,.71-2,1-3.06.23-.78.58-1.5.84-2.27a19.87,19.87,0,0,0,1.38-4,1,1,0,0,1,.1-.29,3.43,3.43,0,0,0,.16-1.69c0-.1-.05-.21-.17-.22a.43.43,0,0,0-.27.08,1.52,1.52,0,0,0-.47.64,5.6,5.6,0,0,1-1,1.74,2,2,0,0,0-.34.61c-.81,2.17-1.9,4.22-2.64,6.43a7.75,7.75,0,0,0-.71,2.29,1.17,1.17,0,0,1-.16.47,2.16,2.16,0,0,0-.21.77c-.09.87-.52,1.66-.54,2.55a.8.8,0,0,1-.11.28,12.61,12.61,0,0,0-.72,2.72c-.18.85-.4,1.7-.6,2.54-.34,1.47-.84,2.9-1.26,4.36a5.59,5.59,0,0,1-.76,1.41,1.24,1.24,0,0,1-.54.44,12.27,12.27,0,0,1-1.23.42.37.37,0,0,1-.38-.08.46.46,0,0,1-.12-.46,1,1,0,0,1,.49-.62,3,3,0,0,0,1.15-1.5c.16-.41.35-.8.47-1.22a6.83,6.83,0,0,0,.53-1.93c.44-.77.33-1.7.68-2.51.19-.44.19-1,.43-1.43,0-.07,0-.19,0-.31-.08.07-.14.1-.17.15A17.1,17.1,0,0,1,112.29,87a6.81,6.81,0,0,0-.77.93,20.15,20.15,0,0,1-5.35,5.13c-1,.68-2,1.25-3,1.88-.1.07-.24.13-.15.35a3,3,0,0,0,1.54-.19,7.29,7.29,0,0,1,2.3-.72A3.07,3.07,0,0,0,108,94a6.41,6.41,0,0,1,2.25-.46.5.5,0,0,1,.2,0,.4.4,0,0,1,.16.59.66.66,0,0,1-.24.18,8,8,0,0,0-1.91,1.11,2.15,2.15,0,0,1-.8.41c-1,.18-1.92.81-2.93,1.06a.87.87,0,0,0-.32.23.34.34,0,0,0,0,.46,3.06,3.06,0,0,0,2.78.41,13.43,13.43,0,0,0,2.6-1.32c1.27-.81,2.51-1.69,3.82-2.44C114.15,94,114.63,93.6,115.13,93.26ZM90.5,82.43c.08.1.11.18.16.21.69.37.47,1.21.88,1.73,0,0,0,.19-.06.28a2.16,2.16,0,0,0-.11.38.48.48,0,0,0,.28.49.46.46,0,0,0,.48,0,2.2,2.2,0,0,0,.62-.66,2.65,2.65,0,0,1,1.33-1.18,1.38,1.38,0,0,0,.71-.68c.34-.58.63-1.19,1-1.75.47-.78.94-1.55,1.34-2.36a16,16,0,0,0,1-2.3,6.52,6.52,0,0,1,.65-1.46,14.11,14.11,0,0,0,1.37-2.68,7.07,7.07,0,0,1,1-2,23.33,23.33,0,0,0,1.43-2.2,5.09,5.09,0,0,1,1.13-1.41,13.59,13.59,0,0,1,2.91-2,8.26,8.26,0,0,1,3.07-.9,1.14,1.14,0,0,0,.66-.22c.32-.24.67-.45,1-.69a2.79,2.79,0,0,0,.75-.81.37.37,0,0,0-.14-.52,2,2,0,0,0-1.06-.28l-1.41,0a5.39,5.39,0,0,0-3,.4,2.72,2.72,0,0,0-1.36.61,10.16,10.16,0,0,0-1.49,1.2,44.62,44.62,0,0,0-4.58,5,20.31,20.31,0,0,0-1.91,3,23.12,23.12,0,0,1-2,3.24A34.44,34.44,0,0,0,93,78.22C92.19,79.62,91.44,81,90.5,82.43Zm28.61-44.36a2.81,2.81,0,0,0-1,.33c-.68.36-1.37.7-2.07,1-.52.24-1.05.44-1.57.67-.31.14-.68.26-.83.55a9.5,9.5,0,0,1-1.48,1.78,4.82,4.82,0,0,0-1.34,2.86,1.48,1.48,0,0,1-.17.58,6.06,6.06,0,0,0-.59,2.53,15.18,15.18,0,0,1-.41,2.59,9.59,9.59,0,0,0-.36,2.79,2.73,2.73,0,0,1,0,.7,12.83,12.83,0,0,0-.44,2.77c-.44.71-.25,1.59-.62,2.32a.27.27,0,0,0,.22.38q1.24.21,2.49.4a.28.28,0,0,0,.35-.27,5.7,5.7,0,0,0-.34-2.67,2.42,2.42,0,0,1-.09-2,6.79,6.79,0,0,0,.45-2,1.53,1.53,0,0,1,.11-.49c.36-.91.43-1.89.71-2.82a9.68,9.68,0,0,1,1.11-2.79c.62-.91,1.15-1.89,1.74-2.83a25.66,25.66,0,0,1,1.44-2.19A27.22,27.22,0,0,0,119.11,38.07ZM108.32,82.7a7.61,7.61,0,0,0,.67-1.23c.34-1,.6-2,.9-3.07a10.63,10.63,0,0,1,.53-1.73c.56-1.15.83-2.41,1.35-3.58a4.37,4.37,0,0,0,.4-1.55,2.17,2.17,0,0,1,.23-.77,7.82,7.82,0,0,1,.95-1.66A3.09,3.09,0,0,0,114,68a9.57,9.57,0,0,0-3.86.93,4.3,4.3,0,0,1-.82.39,2.19,2.19,0,0,0-1.42,1.33,16.92,16.92,0,0,1-1.21,2.21,15.05,15.05,0,0,0-.93,1.55c-.3.6-.55,1.22-.81,1.84-.34.8-.67,1.61-1,2.42-.13.33.06.55.39.49a3.09,3.09,0,0,0,.59-.15c.41-.15.81-.33,1.21-.49a.47.47,0,0,1,.61.19,1.74,1.74,0,0,1,.15.26A19.72,19.72,0,0,1,108.32,82.7Zm17.44-5.45c.37-.61.59-1,.87-1.4.87-1.19,1.79-2.35,2.63-3.56a24.17,24.17,0,0,0,1.66-2.64,15.42,15.42,0,0,1,1.54-2.48,38.35,38.35,0,0,0,2.34-3.75,10.48,10.48,0,0,0,1-2.72,13.3,13.3,0,0,1,.53-2,.28.28,0,0,0-.33-.36.94.94,0,0,0-.19.06,12.46,12.46,0,0,0-3.56,2.23,16.32,16.32,0,0,0-2.16,2.78,6.53,6.53,0,0,1-2.4,2.38.37.37,0,0,0-.15.24c0,.15.08.22.22.27.59.21.67.33.43.83a3,3,0,0,0-.32,1.15,1.53,1.53,0,0,1-.16.58,2.16,2.16,0,0,0-.24,1,2.23,2.23,0,0,1-.22,1,1.77,1.77,0,0,0-.16.58,2.6,2.6,0,0,1-.3,1.06,1.75,1.75,0,0,0-.14.48,12.68,12.68,0,0,1-.85,2.77A2.29,2.29,0,0,0,125.76,77.25Zm-37.58,5.2a.37.37,0,0,0,.5-.07,11.85,11.85,0,0,0,1.46-1.52c.48-.65.91-1.32,1.34-2a18.33,18.33,0,0,0,1.23-2.31,9.62,9.62,0,0,1,1.06-1.94,28.7,28.7,0,0,0,3.18-5.71,5.9,5.9,0,0,1,1.12-1.78c1-1,1.92-2,2.92-2.93.64-.6,1.26-1.21,1.87-1.84.35-.36.69-.74,1.07-1.07a1.2,1.2,0,0,0,.47-1q0-2.12,0-4.24a1.23,1.23,0,0,0-.2-.67c-.12-.18-.28-.21-.41-.05a1.17,1.17,0,0,0-.32.72c0,.2,0,.4,0,.61a4.34,4.34,0,0,1-.32,1.87c-.38.89-.63,1.84-.95,2.76a5.13,5.13,0,0,1-1.59,2.52,29.67,29.67,0,0,0-3.33,3.36,6,6,0,0,1-1.32,1.08,5.78,5.78,0,0,0-.9.64,38.48,38.48,0,0,0-3.73,3.67,10.76,10.76,0,0,0-1.54,2.34A2.35,2.35,0,0,0,89.49,76a6.56,6.56,0,0,1-.26,1.58,3.1,3.1,0,0,0,.1,2.54.94.94,0,0,1-.18,1.2C88.83,81.69,88.51,82.07,88.18,82.45Zm5.61-14.11a8.58,8.58,0,0,1-2.52.85,2.29,2.29,0,0,1-.9,0c-.66-.09-1.33-.42-2-.19a12.6,12.6,0,0,0-1.78.95,1.42,1.42,0,0,0-.25.17c-.52.46-1.17.78-1.35,1.56a5,5,0,0,0-.17.88,3.17,3.17,0,0,1-.18.89c-.43,1.27-.85,2.55-1.27,3.83a1.13,1.13,0,0,0,.29,1.29,1.87,1.87,0,0,1,.44.55,4.9,4.9,0,0,0,2.48,2.39l.08.06c.31.18.48.1.56-.28a10.92,10.92,0,0,0,.24-2.2,5.78,5.78,0,0,1,.13-1.3c.17-.79.31-1.58.47-2.38a4.22,4.22,0,0,1,.65-1.68A16.83,16.83,0,0,1,91,70.94a13.59,13.59,0,0,0,1.06-1.08,3,3,0,0,1,1-.79A1.09,1.09,0,0,0,93.79,68.34Zm36.47,184A16.09,16.09,0,0,1,133,252a.67.67,0,0,0,.53-.41,4.1,4.1,0,0,1,1.31-1.36,1.1,1.1,0,0,0,.53-.59,5.9,5.9,0,0,1,.76-1.53,1.6,1.6,0,0,0,.21-.77,13.43,13.43,0,0,0,.29-2.39c.32-.81.16-1.74.6-2.53a1.62,1.62,0,0,0,.09-.69.33.33,0,0,0-.11-.26.31.31,0,0,0-.27,0c-.4.3-.81.6-1.19.93a11.71,11.71,0,0,0-1.55,1.43,15.25,15.25,0,0,1-2.64,2.31,3.87,3.87,0,0,0-1.1,1.15,4.52,4.52,0,0,1-.87,1.1c-.46.44-.93.88-1.37,1.34s-.83.88-1.21,1.34-.15.71.3.83a2.56,2.56,0,0,0,.6.06,7.86,7.86,0,0,1,1.6.17C129.74,252.25,130,252.27,130.26,252.31Zm.46-201c0-.14,0-.2,0-.27s0-.28-.08-.37-.26,0-.37.07c-.85.54-1.71,1.07-2.57,1.6A13.8,13.8,0,0,0,125,54.89c-.29.31-.46.74-.72,1.09a19.06,19.06,0,0,0-2,3.26,1.34,1.34,0,0,0-.07,1.25,2.66,2.66,0,0,1,.19,1,5,5,0,0,0,.07.6c0,.17.28.29.39.19.52-.48,1.19-.73,1.73-1.21a17.75,17.75,0,0,0,3.09-3.7c.8-1.24,1.47-2.57,2.32-3.78A3.74,3.74,0,0,0,130.73,51.35Zm-4.94,41h.07a9.05,9.05,0,0,0-.14-1.9c-.16-.58-.32-1.16-.48-1.74q-.12-.44-.23-.88c-.06-.23-.1-.49-.4-.51s-.37.24-.49.44a3.8,3.8,0,0,0-.26.55,18.71,18.71,0,0,0-1.47,4.88,3.57,3.57,0,0,1-.17.58,2.55,2.55,0,0,0-.16.68,4.23,4.23,0,0,1-.56,1.91,7.34,7.34,0,0,0-.3.74,3.11,3.11,0,0,1-1.25,1.65,5.4,5.4,0,0,0-.62.51.21.21,0,0,0,0,.18.2.2,0,0,0,.13.13c.27,0,.53,0,.8,0l1.92,0c.3,0,.59.3.87.1a3.68,3.68,0,0,0,.7-.72,4.75,4.75,0,0,0,1-1.84,2.84,2.84,0,0,1,.31-.74c.38-.65.38-1.42.73-2.08a.91.91,0,0,0,0-.4C125.79,93.38,125.79,92.84,125.79,92.3Zm-3.92-2.63c0-.08,0-.13-.05-.14s-.14,0-.17,0a4.73,4.73,0,0,0-.85,1.24c-.89,1.74-2,3.35-3,5a7.93,7.93,0,0,1-.72,1c-.4.46-.83.88-1.24,1.33a13.91,13.91,0,0,1-2.89,2.5,7.6,7.6,0,0,0-1.19.93c-.24.23-.52.42-.78.63s-.74.59-1.09.89a.42.42,0,0,0-.14.54,18.59,18.59,0,0,0,1.07,1.58.66.66,0,0,0,1.06,0L112,105a10.65,10.65,0,0,0,1.81-2.53,2.8,2.8,0,0,1,.75-1.06,20.22,20.22,0,0,0,1.87-1.67,13.77,13.77,0,0,1,2.08-1.59,2.86,2.86,0,0,0,1.15-1.36,11.74,11.74,0,0,1,.52-1.09,8,8,0,0,0,.64-1.9,17.5,17.5,0,0,1,.57-2.66A7.87,7.87,0,0,1,121.87,89.67Zm-13.11,12.65a1.11,1.11,0,0,0,.28-.1,16.92,16.92,0,0,0,1.92-1.46c1-1,2.16-1.69,3.19-2.61a16.51,16.51,0,0,0,2.5-2.73,10.77,10.77,0,0,0,.69-1c.47-.85,1.09-1.6,1.5-2.5a22.44,22.44,0,0,1,1.28-2.16c.46-.78.92-1.56,1.37-2.34a.28.28,0,0,0-.29-.4,1.19,1.19,0,0,0-1.13.71c-.08.18-.17.37-.27.54-.59,1.05-1.11,2.15-1.78,3.15-.92,1.36-1.93,2.66-3,3.95-.36.46-.77,1-1.45,1a3.61,3.61,0,0,0-2.1.88c-.88.62-1.81,1.15-2.74,1.67-.46.26-1,.41-1.48.63s-.48.49-.23.82c.47.61,1,1.21,1.44,1.81A1.09,1.09,0,0,0,108.76,102.31Zm15.38-84.77c-.14,0-.16.11-.2.2a16,16,0,0,0-.89,2,6.38,6.38,0,0,0-.63,2.21,1.28,1.28,0,0,1-.16.57,2.47,2.47,0,0,0-.23,1.18q0,1.56,0,3.13a3,3,0,0,1-.23,1.38,2.26,2.26,0,0,0-.18,1c0,.5,0,1,0,1.51a3.42,3.42,0,0,1-.26,1.47,3.52,3.52,0,0,0-.32,1.47,4.11,4.11,0,0,1-.3,1.77.35.35,0,0,0,0,.28.19.19,0,0,0,.27,0,3.45,3.45,0,0,1,1.13-.42,1,1,0,0,0,.8-.7,4.49,4.49,0,0,0,.45-1.94,1.51,1.51,0,0,1,.14-.89,2.89,2.89,0,0,0,.27-1.47,5.09,5.09,0,0,1,.26-2,1.13,1.13,0,0,0-.05-1,2.58,2.58,0,0,1-.21-1.18q0-.86,0-1.71a2.06,2.06,0,0,0-.13-.89,3.1,3.1,0,0,1-.23-1.38c0-1.18.49-2.28.5-3.46,0-.18.17-.36.23-.55S124.3,17.75,124.14,17.55ZM112.8,60.65c.21,0,.26-.14.31-.25.13-.27.24-.56.37-.82a5,5,0,0,0,.63-2.8,2.73,2.73,0,0,1,.11-1.4,5.27,5.27,0,0,0,.3-2.18,3.49,3.49,0,0,1,.12-1.3,4.71,4.71,0,0,0,.32-1.57,2.84,2.84,0,0,1,.18-.78,5.5,5.5,0,0,0,.24-1,2.71,2.71,0,0,1,.22-.77,11.64,11.64,0,0,0,.62-2.33c0-.1,0-.22-.12-.23a.38.38,0,0,0-.26.09,2,2,0,0,0-.45.66,12.18,12.18,0,0,1-.77,1.42,8.86,8.86,0,0,0-1.52,3.78,1.5,1.5,0,0,1-.17.47,2.13,2.13,0,0,0-.21.77,19.18,19.18,0,0,0-.49,2.76,1,1,0,0,1-.13.38,2.07,2.07,0,0,0,0,1.48,2.88,2.88,0,0,1,.21.88A10.45,10.45,0,0,0,112.8,60.65Zm5.48,27.44c.23-.12.28-.36.37-.55a41.84,41.84,0,0,1,2-4.17,1.15,1.15,0,0,0,.1-.28,16,16,0,0,0,.77-2.81,2,2,0,0,1,.19-.68c.38-.71.61-1.49.93-2.23.43-1,.64-2,1.05-3a.5.5,0,0,0,0-.39,3.4,3.4,0,0,1-.35-1.25c0-.1-.08-.21-.19-.2a.32.32,0,0,0-.23.14,11.72,11.72,0,0,0-.45,1.22c-.49,1.71-1.25,3.33-1.65,5.07-.22.95-.47,1.88-.68,2.83a17.83,17.83,0,0,1-.54,2.56,25.27,25.27,0,0,1-1.3,3.27A.52.52,0,0,0,118.27,88.08Zm-35.8,56.77v0a4,4,0,0,1-.4,0,1.78,1.78,0,0,0-1.83,1,9.17,9.17,0,0,1-1.45,1.68c-.17.17-.34.33-.5.5a.27.27,0,0,0,.14.47,4,4,0,0,1,1.37.61.54.54,0,0,0,.82-.27,3.14,3.14,0,0,0,.12-.59.59.59,0,0,1,.54-.51,2.38,2.38,0,0,0,1-.18,6.83,6.83,0,0,0,1.84-1.84.46.46,0,0,0-.17-.62,1,1,0,0,0-.56-.2C83.07,144.85,82.77,144.86,82.47,144.86Zm37.43-41a3.68,3.68,0,0,1-1.59.38,1.47,1.47,0,0,0-1,.44c-.44.41-.92.78-1.38,1.17a3.83,3.83,0,0,0-.36.35.21.21,0,0,0,.11.32l1.2.08a6.86,6.86,0,0,1,2.29.2.59.59,0,0,0,.29,0,1.38,1.38,0,0,0,1-2.13C120.31,104.46,120.13,104.22,119.9,103.87Zm19.34,139.39s0,.15.09.19.26,0,.34-.14a24,24,0,0,1,1.59-1.83,9.68,9.68,0,0,0,.67-.88,1.35,1.35,0,0,0,.11-1.51,1.07,1.07,0,0,0-1.52-.47c-1.19.9-1.46,1-.89,2.58a.93.93,0,0,1-.09.94A1.52,1.52,0,0,0,139.23,243.27ZM124.1,78.7A2.5,2.5,0,0,0,123,80.27c-.14.59-.34,1.15-.53,1.71a11.28,11.28,0,0,1-.74,2.06c-.25.45-.11.7.39.75a5,5,0,0,0,.7,0,.62.62,0,0,0,.51-.27c.28-.42.55-.84.8-1.27a.39.39,0,0,0-.12-.53c-.66-.53-.67-.54-.36-1.3a1.67,1.67,0,0,0,.18-.67,3.9,3.9,0,0,1,.37-1.85S124.13,78.79,124.1,78.7Zm-16,25.15a5.79,5.79,0,0,0-.51-.72,11.34,11.34,0,0,1-1.44-1.92,5.09,5.09,0,0,0-1.35-1.47,17,17,0,0,1-1.6-1.5c-.2-.18-.36-.39-.55-.58a1.11,1.11,0,0,0-.8-.36.35.35,0,0,0-.25.12.3.3,0,0,0,0,.28,4.38,4.38,0,0,0,1.6,1.62,2.16,2.16,0,0,1,1.16,1.2,2.46,2.46,0,0,0,.93,1,3.61,3.61,0,0,1,1,1A4.8,4.8,0,0,0,107.9,104a.11.11,0,0,0,.1,0A1.17,1.17,0,0,0,108.13,103.85Zm-4.4-21a.53.53,0,0,0,.19,0,2,2,0,0,1,1.35-.29,1.2,1.2,0,0,0,1.22-.71,1.29,1.29,0,0,0-.22-1.23.44.44,0,0,0-.51-.24,20.09,20.09,0,0,0-2.19.74,1,1,0,0,0,0,1.72A.72.72,0,0,0,103.74,82.89Zm14.2,17.64a1.52,1.52,0,0,0-1.21.51,2.92,2.92,0,0,1-.88.81,2.43,2.43,0,0,0-.92,1,.26.26,0,0,0,0,.36.34.34,0,0,0,.27.07c.66-.23,1.33-.44,2-.72a1.42,1.42,0,0,1,1.34,0c.14.08.3.2.44,0s0-.26,0-.37a2.55,2.55,0,0,1-.22-1.17.52.52,0,0,0-.44-.48ZM104.28,84.91a5.59,5.59,0,0,0,.13.6.36.36,0,0,0,.55.24,15.45,15.45,0,0,0,1.77-1.13.63.63,0,0,0,.22-.33.6.6,0,0,0-.18-.64.38.38,0,0,0-.46-.07,3.14,3.14,0,0,1-1.36.28c-.55,0-.68.21-.68.77C104.26,84.66,104.27,84.69,104.28,84.91Zm55.05,131.24c-.21.13-.28.15-.31.2l-1.87,3.09c-.29.49-.59,1-.87,1.47a2.37,2.37,0,0,0-.4.91c0,.07.08.17.14.23s.13,0,.18,0a.43.43,0,0,0,.13-.15,53.49,53.49,0,0,0,2.77-5A5.13,5.13,0,0,0,159.33,216.14ZM112.84,106.59c.3,0,.58,0,.68-.32a1.8,1.8,0,0,1,1-1.09c.11-.05.24-.18.15-.32a.73.73,0,0,0-.31-.24.38.38,0,0,0-.45.11l-1.32,1.49a.23.23,0,0,0,.11.33ZM85,118.69a2.65,2.65,0,0,0-.83-1.37.7.7,0,0,0-1,0c-.3.28-.37.51-.33,1.14.25,0,.38-.26.58-.38a.68.68,0,0,1,1,.12A1.15,1.15,0,0,0,85,118.69Zm17-32.4h0a2.76,2.76,0,0,1,0,.4c-.08.36.12.56.4.71a.35.35,0,0,0,.54-.24,1.09,1.09,0,0,0,0-.69c-.15-.37-.32-.73-.5-1.08a.21.21,0,0,0-.16-.09c-.12,0-.17.1-.18.2C102,85.77,102,86,102,86.3Zm18.6,15.22c0,.21-.08.46.16.54s.29-.12.4-.24a4.94,4.94,0,0,0,.42-.43c.15-.19.52-.33.33-.64s-.43-.11-.66-.12h-.1a.53.53,0,0,0-.53.5C120.6,101.27,120.6,101.41,120.59,101.52Zm35.71,162.42a.68.68,0,0,0-.21.49c0,.14,0,.28.2.25s.15-.13.17-.21A.67.67,0,0,0,156.29,263.94Zm-73.89-149a.24.24,0,0,0-.21-.27.13.13,0,0,0-.16.17.23.23,0,0,0,.26.22S82.37,114.94,82.41,114.9Zm79.25-88.53c-.13,0-.37.25-.34.39a.1.1,0,0,0,.06.07c.15,0,.37-.23.34-.39S161.68,26.39,161.66,26.37ZM122.54,88.2V88s-.12,0-.14.08a.18.18,0,0,0,0,.17C122.45,88.31,122.51,88.28,122.54,88.2ZM129,208l-.1.13s0,.06.07.06a.85.85,0,0,0,.15-.07Z"/><path d="M103.79,48.57a3.78,3.78,0,0,1,.39-1.85,1.21,1.21,0,0,0,.15-.47,4.54,4.54,0,0,1,.41-1.94,1.47,1.47,0,0,0,.06-.49,3.44,3.44,0,0,1,.06-.4.41.41,0,0,1,.44-.32.37.37,0,0,1,.34.32,2.67,2.67,0,0,1-.1,1.48,4.33,4.33,0,0,0-.31,1.36,2.81,2.81,0,0,1-.24,1,3.46,3.46,0,0,0-.33,1.55,2.25,2.25,0,0,1-.12.68.35.35,0,0,1-.4.22.34.34,0,0,1-.34-.3C103.78,49.11,103.79,48.84,103.79,48.57Z"/><path d="M68.91,237.38a6.25,6.25,0,0,1-3.46-.72c-1-.43-1.92-1-2.86-1.5a2.37,2.37,0,0,1-.49-.35,6.23,6.23,0,0,0-1.35-1,1.55,1.55,0,0,1-.32-.25.44.44,0,0,1-.11-.55.41.41,0,0,1,.51-.21,3.36,3.36,0,0,1,.64.28c1.37.71,2.74,1.44,4.12,2.14a6.07,6.07,0,0,0,4.45.91,9.1,9.1,0,0,0,2.32-.65,6.39,6.39,0,0,0,3.08-2.49c.55-.78.9-1.64,1.38-2.45a3,3,0,0,0,.53-1.71,1.83,1.83,0,0,1,.24-.87,1.09,1.09,0,0,0,0-1,3.09,3.09,0,0,1-.26-1.48,5.84,5.84,0,0,0-.25-1.69,5.07,5.07,0,0,1,0-2.79,5.93,5.93,0,0,0,.23-1.49,2.54,2.54,0,0,1,.09-.9,6.6,6.6,0,0,0,.34-2.58,3.76,3.76,0,0,1,.6-1.9,1.52,1.52,0,0,1,1.7-.82.54.54,0,0,1,.39.84,1.18,1.18,0,0,1-.43.42,2.15,2.15,0,0,0-1,1.88c0,.47,0,.94,0,1.41a2,2,0,0,1-.1.69,6.92,6.92,0,0,0-.33,2.18,22,22,0,0,0,0,4.21c.11,1.27,0,2.56,0,3.83a6.58,6.58,0,0,1-.84,2.77,16.74,16.74,0,0,1-1.16,2.12,6.9,6.9,0,0,1-3.48,2.93c-.69.25-1.41.41-2.1.7a3.93,3.93,0,0,1-1.4.1Z"/><path d="M134.54,185.05a11.63,11.63,0,0,1-.16,2.41,1.35,1.35,0,0,0,0,.4,6.59,6.59,0,0,1-.9,3.56c-.55,1.07-1.14,2.13-1.68,3.21-.3.6-.68,1.16-1,1.73-.75,1.28-1.34,2.63-2.09,3.91a8.38,8.38,0,0,0-1.22,2.63,1.49,1.49,0,0,1-.17.36,20.57,20.57,0,0,1-2.84,4.26,13,13,0,0,1-1.23,1.19.78.78,0,0,1-1,.1.47.47,0,0,1-.19-.61.48.48,0,0,1,.1-.17,12.67,12.67,0,0,0,1.72-2,13.15,13.15,0,0,0,2.4-3.81,19.38,19.38,0,0,1,1.74-3.4,2.57,2.57,0,0,0,.3-.52,13.22,13.22,0,0,1,1.5-2.73,1.23,1.23,0,0,0,.28-.84c-.23-1.58.51-2.86,1.26-4.14.24-.41.52-.79.78-1.18a3.27,3.27,0,0,0,.66-1.66.83.83,0,0,1,.05-.3,6.51,6.51,0,0,0,.32-2.78c0-.4,0-.81,0-1.21a1,1,0,0,1,.43-.77.56.56,0,0,1,.89.3,4.6,4.6,0,0,1,.09,1.3C134.54,184.58,134.54,184.81,134.54,185.05Z"/><path d="M83.25,192.22a1.37,1.37,0,0,1-.06.25c-.36.87-.71,1.74-1.1,2.59a33.56,33.56,0,0,1-2.19,3.62c-.19.31-.41.62-.59.94a24,24,0,0,1-2.11,2.95c-.39.51-.76,1-1.1,1.56-.61,1-1.34,1.85-1.87,2.87-.19.37-.26.69.06,1a9.18,9.18,0,0,1,2,4l.32,1a1.1,1.1,0,0,1,0,.69.66.66,0,0,1-1,.38,1.16,1.16,0,0,1-.48-.51,8.25,8.25,0,0,1-.63-1.37c-.12-.42-.33-.81-.47-1.22a2.47,2.47,0,0,0-.64-1,6.69,6.69,0,0,1-.86-1.12,1.78,1.78,0,0,1-.06-2.08c.22-.38.47-.74.72-1.1.67-1,1.33-1.93,2-2.89.45-.63.88-1.27,1.38-1.86a39.22,39.22,0,0,0,3-4.41c.32-.51.71-1,1-1.51a23.75,23.75,0,0,0,1.31-3,.71.71,0,0,1,.46-.49C82.92,191.3,83.31,191.67,83.25,192.22Z"/><path d="M104.34,201.56a8.76,8.76,0,0,0,1.11,0,5.68,5.68,0,0,1,2.64.53,2.57,2.57,0,0,1,1,.79c.13.15.24.33.37.48a2.52,2.52,0,0,0,1.7,1c.27,0,.53.07.8.12a2.19,2.19,0,0,1,1.08.51c.15.14.29.3.19.53a.42.42,0,0,1-.4.27,21.78,21.78,0,0,1-2.81-.15,2,2,0,0,1-1.08-.71l-1.08-1.2a2,2,0,0,0-.75-.47,5.28,5.28,0,0,0-2.36-.38,10.12,10.12,0,0,0-3,.28,3.2,3.2,0,0,1-.9.08c-.61,0-1.21,0-1.82,0a7.18,7.18,0,0,0-3.12.64,21.69,21.69,0,0,1-3.25,1,8.26,8.26,0,0,0-2.62,1c-.79.5-1.62,1-2.42,1.46a.6.6,0,0,1-.88-.11.66.66,0,0,1,.22-1c1-.63,2.06-1.26,3.11-1.87a6.19,6.19,0,0,1,2.37-.81,8.86,8.86,0,0,0,2-.61c.79-.28,1.56-.6,2.34-.91a2.49,2.49,0,0,1,.89-.13l1.82,0a5.39,5.39,0,0,0,2-.25,3,3,0,0,1,1-.12c.61,0,1.21,0,1.82,0Z"/><path d="M56.57,206.74a1.32,1.32,0,0,1,.28.16,1.4,1.4,0,0,1,.48,1c0,.33,0,.67,0,1a3.53,3.53,0,0,0,.23,1.48.72.72,0,0,1,.08.29,19.92,19.92,0,0,0,.52,2.66,2.06,2.06,0,0,0,.16.58,4.85,4.85,0,0,1,.43,1.86,1.38,1.38,0,0,0,.07.4c.32,1,.53,2,.83,3a14.68,14.68,0,0,0,1.45,3.63,2,2,0,0,1,.39.92.45.45,0,0,1-.18.44.47.47,0,0,1-.57,0,1.26,1.26,0,0,1-.32-.38,17.59,17.59,0,0,1-2.14-5.52,3.31,3.31,0,0,0-.28-1,4,4,0,0,1-.23-.77c-.14-.55-.27-1.11-.43-1.66a4.19,4.19,0,0,1-.21-1,2.24,2.24,0,0,0-.24-1,.24.24,0,0,1,0-.09c-.06-1.14-.64-2.19-.57-3.35a3.28,3.28,0,0,0-.26-1.58,1,1,0,0,1,0-.79A.49.49,0,0,1,56.57,206.74Z"/><path d="M72.69,223.46a3.23,3.23,0,0,1-1.38-.27.76.76,0,0,0-.29-.09,16.25,16.25,0,0,1-3.56-1,7.36,7.36,0,0,1-3.18-2,12.85,12.85,0,0,1-2.8-4.83,1.1,1.1,0,0,1,0-.69.55.55,0,0,1,.89-.27,1.51,1.51,0,0,1,.43.78,9.12,9.12,0,0,0,2.76,4.47,8,8,0,0,0,2.53,1.43c1.15.44,2.35.79,3.53,1.16a2.59,2.59,0,0,0,.8.08,2.32,2.32,0,0,1,1.29.49.36.36,0,0,1,.18.34.38.38,0,0,1-.29.37C73.29,223.4,73,223.42,72.69,223.46Z"/><path d="M111.51,124.91a7.8,7.8,0,0,1-.12,1.68,4,4,0,0,0-.08.8,8.24,8.24,0,0,1-.29,1.77,23.32,23.32,0,0,1-1.1,3.44,11.42,11.42,0,0,1-1.63,3.21,5,5,0,0,0-.3.52,3.88,3.88,0,0,1-1.7,1.37.61.61,0,0,1-.3,0,.36.36,0,0,1-.28-.46,1.17,1.17,0,0,1,.36-.47,8.34,8.34,0,0,0,1.79-2.41,16.84,16.84,0,0,0,.87-1.59c.26-.79.53-1.58.75-2.38a18.56,18.56,0,0,1,.61-2.32,3,3,0,0,0,.16-1.19c0-1.41,0-2.82,0-4.23a5.13,5.13,0,0,1,0-.8.44.44,0,0,1,.4-.4.42.42,0,0,1,.45.32.91.91,0,0,1,.08.29A21.07,21.07,0,0,1,111.51,124.91Z"/><path d="M38.17,196.67a5.88,5.88,0,0,1,.31-2.27,16.32,16.32,0,0,0,.53-1.83,43,43,0,0,1,1.57-4.24.4.4,0,0,1,0-.09c.86-1.19,1.32-2.64,2.4-3.69a8.39,8.39,0,0,0,.69-1,7.77,7.77,0,0,1,.66-.76.52.52,0,0,1,.65-.1.66.66,0,0,1,0,.89A14.12,14.12,0,0,0,44,185a20.24,20.24,0,0,0-2,3.11,17.94,17.94,0,0,0-1.39,3.33c-.26.79-.57,1.58-.82,2.37a9.61,9.61,0,0,0-.6,3.25,3.27,3.27,0,0,1-.07,1.2.41.41,0,0,1-.35.32.45.45,0,0,1-.49-.27,1.38,1.38,0,0,1-.1-.49C38.16,197.41,38.17,197,38.17,196.67Z"/><path d="M60.82,138.34a2.51,2.51,0,0,1,1.37.21.65.65,0,0,0,.67,0q.45-.22.92-.42a1.49,1.49,0,0,1,.79-.12.52.52,0,0,1,.48.44.56.56,0,0,1-.33.66.59.59,0,0,1-.19.06,1.92,1.92,0,0,0-1.48.93c-.14.19-.3.36-.43.56-.62,1-1.23,1.92-1.85,2.87a3.18,3.18,0,0,1-.86,1,.42.42,0,0,1-.47,0,.47.47,0,0,1-.21-.43,1.25,1.25,0,0,1,.25-.65A28.66,28.66,0,0,1,62,139.56a.63.63,0,0,0,.09-.17s0-.08,0-.1-.12-.09-.16-.08a2.83,2.83,0,0,0-.45.21,2.64,2.64,0,0,1-.95.32,7.93,7.93,0,0,0-3.07,1.18,2.19,2.19,0,0,1-.8.4.56.56,0,0,1-.55-.17.59.59,0,0,1,0-.66,1.63,1.63,0,0,1,.46-.39c.37-.18.66-.47,1-.67A5.57,5.57,0,0,1,60.82,138.34Z"/><path d="M79.26,153.68A9.1,9.1,0,0,1,76,153a1.89,1.89,0,0,1-.83-.53.45.45,0,0,1,.29-.76,1.42,1.42,0,0,1,.89.08,8.48,8.48,0,0,0,3.46.47,3.28,3.28,0,0,0,2.69-1.11c.58-.61,1.15-1.22,1.74-1.82a4.28,4.28,0,0,0,.78-1A4.85,4.85,0,0,1,86.19,147a.47.47,0,0,1,.64-.06.56.56,0,0,1,.16.72,3.72,3.72,0,0,1-.28.41,6.39,6.39,0,0,0-.57.83,3.41,3.41,0,0,1-.87,1.09,3.74,3.74,0,0,0-.77.92,6.19,6.19,0,0,1-3.06,2.51A4.8,4.8,0,0,1,79.26,153.68Z"/><path d="M71.08,192.72a2.08,2.08,0,0,1-1.6-.61,1.58,1.58,0,0,1-.55-1.63.49.49,0,0,1,.38-.42.58.58,0,0,1,.62.22.67.67,0,0,1,.14.27c.12.57.55.69,1.05.75a4.34,4.34,0,0,0,3.5-1.22,49.25,49.25,0,0,0,3.79-3.76c.25-.27.52-.53.79-.78a.84.84,0,0,1,.35-.19.47.47,0,0,1,.47.12.41.41,0,0,1,.1.46,3.17,3.17,0,0,1-.37.59,31.06,31.06,0,0,1-3.44,3.67,17.15,17.15,0,0,1-1.52,1.32A6.12,6.12,0,0,1,71.08,192.72Z"/><path d="M95.8,149.9c0,.34-.09.5-.24.59a13.79,13.79,0,0,0-2.88,2.93c-.78.92-1.62,1.79-2.38,2.73a9.89,9.89,0,0,0-.73,1,6.08,6.08,0,0,1-.69.86,13.31,13.31,0,0,0-1.54,1.85,3.49,3.49,0,0,1-1,1,.77.77,0,0,1-.47.16c-.12,0-.3-.15-.26-.25a3.08,3.08,0,0,1,.35-.83,16.26,16.26,0,0,1,1.69-2.25.94.94,0,0,0,.2-.23c1-1.75,2.62-3,3.69-4.62a2.68,2.68,0,0,1,.47-.52,18.35,18.35,0,0,0,1.61-1.66,4.62,4.62,0,0,1,1.27-1.14.53.53,0,0,1,.57,0A.85.85,0,0,1,95.8,149.9Z"/><path d="M101.52,132.32a1.24,1.24,0,0,1-.94-.28.51.51,0,0,1-.2-.53.56.56,0,0,1,.39-.42,1.88,1.88,0,0,1,.6-.05,1.57,1.57,0,0,0,1.2-.42c.47-.38,1-.73,1.42-1.13a4.56,4.56,0,0,0,1.21-1.71c.34-.87.6-1.77.91-2.66.22-.63.43-1.27.68-1.89a4.63,4.63,0,0,1,.5-.87.66.66,0,0,1,.7-.28.51.51,0,0,1,.42.59,2.58,2.58,0,0,1-.14.37,8.81,8.81,0,0,0-.63,1.8,1.39,1.39,0,0,1-.12.38,14.76,14.76,0,0,0-.89,2.56,4.49,4.49,0,0,1-.91,1.67,12.36,12.36,0,0,1-2.87,2.5A2,2,0,0,1,101.52,132.32Z"/><path d="M123.31,185a1,1,0,0,1-.11.29,3.39,3.39,0,0,1-.82.88,8.14,8.14,0,0,1-1.85,1,4.17,4.17,0,0,0-.46.2,48.94,48.94,0,0,1-5,2.08c-.85.31-1.67.71-2.5,1.07-.15.07-.31.14-.46.2a.49.49,0,0,1-.63-.15.7.7,0,0,1,.09-.92,2.41,2.41,0,0,1,.53-.28l5.3-2.17a4.46,4.46,0,0,0,.45-.22c1.5-.83,3.13-1.38,4.6-2.27a1.81,1.81,0,0,1,.37-.16A.42.42,0,0,1,123.31,185Z"/><path d="M98.63,132.82a.73.73,0,0,1,.6.3c.57.57,1.15,1.13,1.72,1.69a23.61,23.61,0,0,0,2.28,2,2.12,2.12,0,0,1,.23.2,19.66,19.66,0,0,0,4.32,3.1,2.53,2.53,0,0,1,.87.67c.11.15.18.29.07.45a.49.49,0,0,1-.51.26,1.73,1.73,0,0,1-.46-.2l-1.94-1.06a11.11,11.11,0,0,1-2.49-1.87,18.51,18.51,0,0,0-1.59-1.39,36.22,36.22,0,0,1-3.11-2.87,1.19,1.19,0,0,1-.41-.67A.51.51,0,0,1,98.63,132.82Z"/><path d="M66.17,182.22s.08,0,.1,0c.57.37,1.1,0,1.64-.09A22.62,22.62,0,0,0,71.75,181a10.1,10.1,0,0,0,2.14-1.31,2.46,2.46,0,0,0,.72-1,.64.64,0,0,1,.68-.33.52.52,0,0,1,.44.85,4.88,4.88,0,0,1-1.54,1.7A17.36,17.36,0,0,1,72,182.22a6.28,6.28,0,0,1-1,.35,25.36,25.36,0,0,1-3.29.88,6.67,6.67,0,0,0-.87.25.87.87,0,0,1-1.12-1.14A.45.45,0,0,1,66.17,182.22Z"/><path d="M107,143.25a1.26,1.26,0,0,1-.28,0,9,9,0,0,1-3.35-1.54c-.67-.6-1.44-1.11-2.17-1.64a6.28,6.28,0,0,0-1.89-1.14.67.67,0,0,1-.56-.63c0-.33.29-.51.57-.65a.6.6,0,0,1,.58,0,6.77,6.77,0,0,1,1.59,1.06,4.76,4.76,0,0,0,1.35,1,1.09,1.09,0,0,1,.32.25,6.53,6.53,0,0,0,2.45,1.54,10.87,10.87,0,0,1,1.35.67,1.94,1.94,0,0,1,.49.35.53.53,0,0,1,.12.36c0,.19-.17.27-.34.32Z"/><path d="M125.45,197.23a1.28,1.28,0,0,1-.24.65c-.91,1.52-2,2.91-3,4.36a3.66,3.66,0,0,1-1,.85.93.93,0,0,1-.67.15.4.4,0,0,1-.34-.58,4.9,4.9,0,0,1,.49-.75c.68-.87,1.38-1.73,2-2.6.26-.34.46-.74.69-1.1a6.67,6.67,0,0,1,1.11-1.42.53.53,0,0,1,.56-.11A.61.61,0,0,1,125.45,197.23Z"/><path d="M103,121a.52.52,0,0,1-.52-.68.75.75,0,0,1,.27-.41,6.89,6.89,0,0,0,1.67-1.44,32.56,32.56,0,0,0,2.31-2.39,11.74,11.74,0,0,1,1-1,1.89,1.89,0,0,1,.32-.25.53.53,0,0,1,.65,0,.57.57,0,0,1,.07.66,1.62,1.62,0,0,1-.29.41c-.36.4-.72.8-1.1,1.18q-1.52,1.54-3.06,3.07a7.64,7.64,0,0,1-.77.65A.86.86,0,0,1,103,121Z"/><path d="M73.13,162.49c.19-.88.39-1.93.64-3,.1-.38.3-.74.37-1.14a1.37,1.37,0,0,1,.55-.82.84.84,0,0,1,.76-.15.57.57,0,0,1,.42.69.74.74,0,0,1-.11.28,4.54,4.54,0,0,0-.79,2.15,20.57,20.57,0,0,0-.61,3A.46.46,0,0,1,74,164a.57.57,0,0,1-.55-.18A1.62,1.62,0,0,1,73.13,162.49Z"/><path d="M75,168c0,.17,0,.1,0,0a.43.43,0,0,1,.75-.27,2.59,2.59,0,0,1,.52.61,8.87,8.87,0,0,0,3.67,3.32,1.28,1.28,0,0,1,.49.34.52.52,0,0,1,.08.56.46.46,0,0,1-.49.27,2.85,2.85,0,0,1-1.65-.66,23.63,23.63,0,0,1-2.94-2.87A1.74,1.74,0,0,1,75,168Z"/><path d="M77.36,162.08a3.59,3.59,0,0,1,.27-1.86,2.86,2.86,0,0,0,.15-.78,3,3,0,0,1,.56-1.27.85.85,0,0,1,.57-.38.61.61,0,0,1,.56.13c.19.18.1.38,0,.55-.36.58-.42,1.26-.72,1.87a2.17,2.17,0,0,0-.12.88,8,8,0,0,1-.39,2.06c-.09.32-.26.45-.48.41a.49.49,0,0,1-.41-.5C77.34,162.82,77.36,162.45,77.36,162.08Z"/><path d="M48.42,194.3a1.17,1.17,0,0,1,.26.07.53.53,0,0,1,.17.84.84.84,0,0,1-.32.24A4.08,4.08,0,0,0,47,196.54a11.41,11.41,0,0,1-1.57,1.08.33.33,0,0,1-.38,0,.4.4,0,0,1-.14-.45.4.4,0,0,1,0-.09,3.92,3.92,0,0,1,1.21-1.58,7.34,7.34,0,0,1,1.49-1A1.71,1.71,0,0,1,48.42,194.3Z"/><path d="M114,131.23a14.59,14.59,0,0,1-.87,2.38.71.71,0,0,1-.69.33.4.4,0,0,1-.4-.55,10,10,0,0,0,.61-2.21,1.58,1.58,0,0,1,.32-.61.54.54,0,0,1,.62-.21.55.55,0,0,1,.38.53C114,131,114,131,114,131.23Z"/><path d="M98.23,126.1l-.26,0a.42.42,0,0,1-.36-.29.4.4,0,0,1,.13-.45c.38-.27.76-.53,1.15-.77a.42.42,0,0,1,.47,0,.5.5,0,0,1,.19.53A1.21,1.21,0,0,1,98.23,126.1Z"/><path d="M164.34,141.76a2.88,2.88,0,0,1-.15.52,2.79,2.79,0,0,1-.47.77c-.91.9-1.51,2.06-2.45,2.94a4.64,4.64,0,0,0-1,1.25,1.48,1.48,0,0,1-.23.33c-1.14,1.23-2.06,2.65-3.25,3.84-.69.69-1.24,1.5-1.9,2.21a40,40,0,0,1-3.35,3.48,1.26,1.26,0,0,0-.22.21,14,14,0,0,1-2.85,2.69c-.56.43-1.14.83-1.71,1.24a1,1,0,0,1-.77.17.39.39,0,0,1-.32-.21.41.41,0,0,1,.09-.47c.09-.1.22-.15.32-.24a1.86,1.86,0,0,0,.47-.52,2.32,2.32,0,0,1,1-1.05,4.79,4.79,0,0,0,.85-.7l4.91-4.93a8.52,8.52,0,0,1,.67-.61,3.91,3.91,0,0,0,1.1-1.3,4,4,0,0,1,.79-1c.38-.38.75-.77,1.13-1.15A11.35,11.35,0,0,0,158.9,147a4.59,4.59,0,0,1,.64-.78,11.06,11.06,0,0,0,1.06-1.34,10.78,10.78,0,0,1,2-2.35.89.89,0,0,0,.36-.69.85.85,0,0,1,.56-.77c.4-.19.63-.09.73.36C164.3,141.5,164.31,141.6,164.34,141.76Z"/><path d="M142.93,213.33a.46.46,0,0,1-.46-.44,1.17,1.17,0,0,1,.15-.58,3.88,3.88,0,0,1,.78-1c1.09-1.1,2.15-2.22,3.28-3.27a12.18,12.18,0,0,0,2.34-3.12,2.25,2.25,0,0,1,.45-.66,11.74,11.74,0,0,0,2.26-2.94,15.24,15.24,0,0,1,1.17-1.51c1-1.32,2.28-2.46,3.4-3.71a17.55,17.55,0,0,0,2-2.61,3.57,3.57,0,0,1,.52-.61c.7-.72,1.4-1.45,2.12-2.16.36-.35.75-.67,1.14-1a.7.7,0,0,1,.66-.13.41.41,0,0,1,.27.56,1,1,0,0,1-.16.26c-.77.8-1.52,1.61-2.32,2.38a15.16,15.16,0,0,0-2.29,2.67,13.73,13.73,0,0,1-2.32,2.52,8.65,8.65,0,0,0-1.54,1.72,6.92,6.92,0,0,1-.7.86,10.51,10.51,0,0,0-1.42,1.94,9.43,9.43,0,0,1-1.19,1.62,12.06,12.06,0,0,0-1.48,2,8.53,8.53,0,0,1-1.56,2c-1.12,1.11-2.21,2.25-3.32,3.38a6.74,6.74,0,0,0-.89,1.09,5.07,5.07,0,0,1-.51.62A.58.58,0,0,1,142.93,213.33Z"/><path d="M139.67,177.61a.35.35,0,0,1-.29-.28.77.77,0,0,1,.34-.88,8.82,8.82,0,0,0,1.05-.93c1.12-1,1.85-2.31,3-3.3.42-.38.84-.77,1.24-1.18,1.51-1.53,3-3.06,4.52-4.61.44-.46.84-1,1.24-1.46.86-1.08,1.87-2,2.83-3a35.38,35.38,0,0,0,2.4-2.73c.08-.11.17-.21.26-.31l2.5-2.64c.27-.28.52-.33.69-.15s.15.35,0,.64a25.5,25.5,0,0,1-1.7,2.25c-.91,1.18-2,2.21-3,3.3-.55.6-1.13,1.16-1.67,1.76-1,1.07-1.91,2.16-2.88,3.24-.36.4-.76.76-1.14,1.14l-4.7,4.71a3.86,3.86,0,0,0-.4.45,27.66,27.66,0,0,1-3.25,3.45,2.12,2.12,0,0,1-.75.5A1.28,1.28,0,0,1,139.67,177.61Z"/><path d="M142,202.48a1.16,1.16,0,0,1,.34-.94,6.85,6.85,0,0,0,.48-.52.69.69,0,0,1,.5-.3c.67,0,1-.44,1.41-.85.65-.72,1.27-1.48,1.94-2.18a33.6,33.6,0,0,0,2.22-2.61,4.87,4.87,0,0,0,.67-1.11,4.3,4.3,0,0,1,1.35-2c.38-.27.63-.7,1-1a10.33,10.33,0,0,0,2.22-3,11.42,11.42,0,0,1,.66-1,.91.91,0,0,1,.31-.25.49.49,0,0,1,.71.44,1,1,0,0,1-.16.58,4.82,4.82,0,0,1-.49.64,5.71,5.71,0,0,0-1.18,1.74,10.27,10.27,0,0,1-2.06,2.72,7.64,7.64,0,0,0-1.38,1.83,7.86,7.86,0,0,1-1.23,1.84c-1.34,1.5-2.67,3-4,4.52-.5.55-1,1-1.59,1.55a5.21,5.21,0,0,1-.56.43.75.75,0,0,1-.85.11C142,203,142,202.72,142,202.48Z"/><path d="M172.14,142.89a1.35,1.35,0,0,1-.18.75,13.82,13.82,0,0,1-.8,1.28c-1.27,1.6-2.54,3.2-3.86,4.76a21.57,21.57,0,0,1-1.86,1.84c-1.4,1.3-2.82,2.58-4.24,3.87a3.29,3.29,0,0,1-.57.41.38.38,0,0,1-.47-.06.41.41,0,0,1-.13-.46,2.89,2.89,0,0,1,.44-.78,24.42,24.42,0,0,1,2-2.12,51.68,51.68,0,0,0,4.13-4,10.62,10.62,0,0,0,1.08-1.33,5.61,5.61,0,0,1,.62-.79,16.9,16.9,0,0,0,2.11-2.93,4,4,0,0,1,.92-1.05.43.43,0,0,1,.75.27A3.18,3.18,0,0,1,172.14,142.89Z"/><path d="M151.7,150.21a1.68,1.68,0,0,1-.54.82l-2,2a10.57,10.57,0,0,0-2,2.49,7.31,7.31,0,0,1-1.29,1.66c-1,1-1.88,2-2.92,2.91a3.18,3.18,0,0,1-.56.42.49.49,0,0,1-.57-.06.5.5,0,0,1-.15-.55,2.58,2.58,0,0,1,.64-1c.61-.63,1.21-1.26,1.82-1.88A17,17,0,0,0,145.9,155a18.22,18.22,0,0,1,1.65-1.9c.86-.9,1.75-1.76,2.62-2.64a3,3,0,0,1,1-.71A.44.44,0,0,1,151.7,150.21Z"/><path d="M165.6,164a1.06,1.06,0,0,1-.3.73c-1.32,1.43-2.4,3.06-3.82,4.42-.67.65-1.29,1.36-2,2a27.54,27.54,0,0,1-3.15,2.65.84.84,0,0,1-.26.14.44.44,0,0,1-.29,0,.29.29,0,0,1-.15-.34,1.12,1.12,0,0,1,.25-.43c1-1,1.91-2,3-2.87.51-.43,1-.93,1.45-1.4.17-.17.29-.37.46-.54,1.38-1.34,2.46-2.93,3.73-4.36a3.88,3.88,0,0,1,.34-.37.5.5,0,0,1,.45-.18C165.45,163.48,165.61,163.77,165.6,164Z"/><path d="M163.9,176.5a.47.47,0,0,1-.43-.64,1.29,1.29,0,0,1,.45-.54c1-.8,1.8-1.9,2.76-2.79a4.86,4.86,0,0,0,.83-1,5.87,5.87,0,0,1,2.25-2,6.29,6.29,0,0,0,1.52-1.15c.09-.1.18-.2.28-.29a.42.42,0,0,1,.62,0,.46.46,0,0,1,.08.64c-.37.38-.76.76-1.17,1.11a5.49,5.49,0,0,1-1,.72,4.29,4.29,0,0,0-1.46,1.36,32.25,32.25,0,0,1-3.35,3.48c-.28.29-.57.57-.87.84A.77.77,0,0,1,163.9,176.5Z"/><path d="M171.7,178.52a.41.41,0,0,1-.39-.62,2.53,2.53,0,0,1,.51-.74c.85-.86,1.48-1.91,2.36-2.75a3,3,0,0,0,.41-.57A9.84,9.84,0,0,1,176,172.1a8.65,8.65,0,0,0,.65-.77,1.73,1.73,0,0,1,.8-.59.55.55,0,0,1,.64.17.49.49,0,0,1,0,.57,4.34,4.34,0,0,1-.56.71,23.47,23.47,0,0,0-1.83,2.14,21.41,21.41,0,0,0-1.51,2,12,12,0,0,1-1.87,2A.76.76,0,0,1,171.7,178.52Z"/><path d="M125.84,169.8a.44.44,0,0,1-.38-.2.72.72,0,0,1,0-.85,28.84,28.84,0,0,1,2.08-2.71,15.88,15.88,0,0,0,2.1-2.43,5.36,5.36,0,0,1,.84-.86,1.2,1.2,0,0,1,.43-.24.55.55,0,0,1,.6.26.44.44,0,0,1-.07.47,29.56,29.56,0,0,1-2.23,2.85c-.72.84-1.42,1.7-2.14,2.54-.3.36-.63.69-1,1A1,1,0,0,1,125.84,169.8Z"/><path d="M155,182.19a1.07,1.07,0,0,1-.27.74,24.65,24.65,0,0,1-3.68,4c-.82.69-1.75,1.23-2.64,1.84a.69.69,0,0,1-.28.1.42.42,0,0,1-.44-.17.32.32,0,0,1,.08-.45,13.64,13.64,0,0,1,1.5-1.17,2.59,2.59,0,0,0,.63-.49l3-2.94a6.32,6.32,0,0,0,1-1.26c.09-.14.17-.29.26-.43a.43.43,0,0,1,.52-.21A.46.46,0,0,1,155,182.19Z"/><path d="M150.64,209a.46.46,0,0,1,.48.46,1.13,1.13,0,0,1-.19.56,8,8,0,0,1-1.51,1.88l-2.73,2.68a9,9,0,0,1-.68.59.4.4,0,0,1-.47,0,.5.5,0,0,1-.25-.51,1.18,1.18,0,0,1,.4-.68c.39-.42.81-.8,1.18-1.23,1-1.11,2-2.19,3-3.28a4.18,4.18,0,0,1,.35-.36A.56.56,0,0,1,150.64,209Z"/><path d="M192.59,165.71a1.11,1.11,0,0,1-.22.76,13.78,13.78,0,0,1-2.29,2.78,9.4,9.4,0,0,0-.66.75.86.86,0,0,1-.71.31.43.43,0,0,1-.38-.57,1.53,1.53,0,0,1,.27-.41c.2-.22.43-.42.64-.64a1.28,1.28,0,0,0,.44-1,1.92,1.92,0,0,1,.78-1.56,5.31,5.31,0,0,1,1.06-.76.92.92,0,0,1,.58-.11A.57.57,0,0,1,192.59,165.71Z"/><path d="M185.67,149.21a.63.63,0,0,1-.29.61,18.85,18.85,0,0,0-3.94,3.4c-.19.18-.38.37-.59.55a1.28,1.28,0,0,1-.34.21.45.45,0,0,1-.54-.14.41.41,0,0,1,0-.47.86.86,0,0,1,.17-.25,32.55,32.55,0,0,1,2.69-2.71,20.5,20.5,0,0,1,1.63-1.33c.17-.1.33-.23.51-.32C185.35,148.54,185.68,148.74,185.67,149.21Z"/><path d="M164.26,157.68a1.12,1.12,0,0,1-.36.82c-.45.45-.84,1-1.34,1.36s-1.19,1.09-1.78,1.63a2.46,2.46,0,0,1-.72.54.54.54,0,0,1-.64-.13.48.48,0,0,1-.06-.64,1.61,1.61,0,0,1,.32-.38,34.74,34.74,0,0,0,3.36-3.31,3.35,3.35,0,0,1,.44-.41.46.46,0,0,1,.75.33C164.25,157.56,164.25,157.63,164.26,157.68Z"/><path d="M144.68,169.49a.53.53,0,0,1-.41-.81,3.23,3.23,0,0,1,.25-.32c.83-1,1.76-1.83,2.66-2.72a1.2,1.2,0,0,1,.59-.36.54.54,0,0,1,.66.63,1,1,0,0,1-.27.53c-.79.82-1.57,1.63-2.37,2.44a4.61,4.61,0,0,1-.63.49A.68.68,0,0,1,144.68,169.49Z"/><path d="M157,203.26h-.05a.39.39,0,0,1-.3-.65,9.61,9.61,0,0,1,1.36-1.48c.47-.43,1-.84,1.44-1.26a1.92,1.92,0,0,1,.79-.44.42.42,0,0,1,.46.1.47.47,0,0,1,0,.56l-.06.08a29.41,29.41,0,0,1-2.77,2.78A1.16,1.16,0,0,1,157,203.26Z"/><path d="M172.22,185.4a.47.47,0,0,1,.43.38.81.81,0,0,1-.24.74,28.75,28.75,0,0,1-2.66,2.58,1,1,0,0,1-.73.27.4.4,0,0,1-.39-.27.48.48,0,0,1,.08-.37,2.88,2.88,0,0,1,.57-.55,6.09,6.09,0,0,0,1.28-1.26,7.6,7.6,0,0,1,1.23-1.32A.72.72,0,0,1,172.22,185.4Z"/><path d="M148.33,162.09a1.1,1.1,0,0,1-.16.28,5.06,5.06,0,0,1-.58.55,10.8,10.8,0,0,0-1.62,1.34,1,1,0,0,1-.33.22.57.57,0,0,1-.65-.07.49.49,0,0,1,0-.65,5.45,5.45,0,0,1,2.49-2.09.79.79,0,0,1,.68,0A.36.36,0,0,1,148.33,162.09Z"/><path d="M186.35,156.65c0,.23,0,.36-.13.44s-.5.32-.77.46a5.73,5.73,0,0,0-1.24.84,1.46,1.46,0,0,1-.42.27.49.49,0,0,1-.56-.08.53.53,0,0,1-.12-.55l0-.1a3.09,3.09,0,0,1,2.81-1.56A.46.46,0,0,1,186.35,156.65Z"/><path d="M63.91,122.33c-.15-.27-.44-.33-.64-.5s-.27-.63,0-.75a1.11,1.11,0,0,0,.76-.71c.09-.25.39-.35.64-.46s.42-.07.57-.18a4.92,4.92,0,0,1,2.39-.66,4.46,4.46,0,0,1,2.54.42,5.81,5.81,0,0,1,1.71,1,10,10,0,0,1,.68.73,2.18,2.18,0,0,1,.55,1.47c0,.5,0,1,.08,1.51a4.44,4.44,0,0,1-.13,1.4.41.41,0,0,1-.44.34.37.37,0,0,1-.36-.41,12.56,12.56,0,0,0-.49-2.65,2.14,2.14,0,0,0-1.27-1.7.24.24,0,0,0-.19,0c-.11.07-.07.17,0,.26a14.08,14.08,0,0,1,1.24,2.74,1.86,1.86,0,0,1-.5,2.29,6.78,6.78,0,0,0-.51.49.89.89,0,0,1-1.1.18,14.67,14.67,0,0,1-2.05-1.05c-.07,0-.22-.09-.27-.05s-.06.24,0,.36a1.11,1.11,0,0,0,.69.68,1.79,1.79,0,0,1,.87.65.45.45,0,0,1,.06.47.46.46,0,0,1-.41.26,1.84,1.84,0,0,1-1.46-.58,4.23,4.23,0,0,1-1.24-2c-.13-.53-.39-1-.55-1.51a.7.7,0,0,0-.86-.52,1.28,1.28,0,0,1-.69-.07.63.63,0,0,1-.19-1.12A3.49,3.49,0,0,1,63.91,122.33Zm4.49-.23-.29.11s-.07.06-.06.07.05.13.09.13a4,4,0,0,0,.49.05s.07,0,.07-.06,0-.15,0-.18A1.17,1.17,0,0,0,68.4,122.1Z"/><path d="M63.63,101.39a4,4,0,0,0-.6,1.34,11.93,11.93,0,0,0-.64,3,16.65,16.65,0,0,1-.2,2.1.87.87,0,0,1-.27.53.55.55,0,0,1-.55.18.45.45,0,0,1-.35-.45,7.63,7.63,0,0,1,.24-3.38,1.13,1.13,0,0,0,.11-.49,5.81,5.81,0,0,1,.76-2.58,3,3,0,0,1,.66-1,1.82,1.82,0,0,0,.34-.49.36.36,0,0,0,0-.28c0-.1-.17-.1-.26-.06a2.41,2.41,0,0,1-.27.13.48.48,0,0,1-.56-.6,2.1,2.1,0,0,1,.35-.6A37.15,37.15,0,0,0,65,95.2c.36-.53.75-1,1.13-1.55a1.08,1.08,0,0,1,.54-.44,1.5,1.5,0,0,0,.91-.88,1.79,1.79,0,0,1,.59-.67.45.45,0,0,1,.48,0,.43.43,0,0,1,.25.41,1.3,1.3,0,0,1-.09.49c-.23.56-.45,1.12-.73,1.66a23,23,0,0,0-1.28,3.16,22.47,22.47,0,0,1-1.31,2.94,2.74,2.74,0,0,0-.36,1.34c0,1.21,0,2.42,0,3.63a2.32,2.32,0,0,0,.26,1.16,3.64,3.64,0,0,1,.33.95,4.94,4.94,0,0,0,1.19,2.19l.2.23c.16.21.39.43.19.71s-.47.22-.74.2a1.11,1.11,0,0,1-.71-.35,22,22,0,0,1-1.8-2.17.61.61,0,0,1,0-.76.94.94,0,0,0,0-1.2,1.76,1.76,0,0,1-.15-1c0-1,0-2.09,0-3.13A1.07,1.07,0,0,0,63.63,101.39Z"/><path d="M58.69,112.35a2.84,2.84,0,0,0,0,1.43,1.13,1.13,0,0,1-.07.78.62.62,0,0,1-1.08.09,2,2,0,0,1-.36-1.24,6.42,6.42,0,0,1,.82-3.28,1.8,1.8,0,0,0,.31-1,1.68,1.68,0,0,1,.14-.89,2.91,2.91,0,0,0,.28-1.57c0-.27,0-.54,0-.81a7.16,7.16,0,0,1,.69-3.31c.12-.31.24-.62.37-.93a3.08,3.08,0,0,1,1-1.25.4.4,0,0,1,.63.43,19.53,19.53,0,0,1-.82,2.8,2.78,2.78,0,0,0-.15.68,2.87,2.87,0,0,1-.16.68,3.33,3.33,0,0,0-.16,2.37,12.71,12.71,0,0,1,.31,2.49,5.22,5.22,0,0,0,.27,2.18.48.48,0,0,1-.05.38,1,1,0,0,1-1.46.37C59.05,112.64,58.93,112.53,58.69,112.35Z"/><path d="M72.44,103.88a1.63,1.63,0,0,1-2.16,1.57,2.34,2.34,0,0,1-1-.66,11.65,11.65,0,0,1-1.7-2.84.72.72,0,0,1,0-.85,12.74,12.74,0,0,0,1.44-3c.32-.66.58-1.36.88-2a.42.42,0,0,1,.48-.29.5.5,0,0,1,.41.39,1.13,1.13,0,0,1-.05.79,11.82,11.82,0,0,0-.58,2.13c-.15.68-.42,1.33-.61,2a1.67,1.67,0,0,0,.21,1.43,7.46,7.46,0,0,0,.92,1.06.29.29,0,0,0,.47-.17,4.05,4.05,0,0,1,.14-.58.41.41,0,0,1,.73-.09A1.85,1.85,0,0,1,72.44,103.88Z"/><path d="M63.85,118.78c-.2,0-.4,0-.61,0a1.22,1.22,0,0,1-.39-.1.48.48,0,0,1-.3-.48.38.38,0,0,1,.29-.37,6.42,6.42,0,0,1,2.15-.48,4.75,4.75,0,0,0,2.16-.43c.46-.2,1-.27,1.43-.48a1.89,1.89,0,0,1,1.1,0,.58.58,0,0,1,.49.56.61.61,0,0,1-.35.57.4.4,0,0,1-.19.07,6.41,6.41,0,0,0-2.31.64,2.32,2.32,0,0,1-.59.13,7.48,7.48,0,0,0-1.78.32,6,6,0,0,1-1.1.15Z"/><path d="M66,103.15c0-.15,0-.45.06-.75a.45.45,0,0,1,.51-.38.42.42,0,0,1,.42.36,5.07,5.07,0,0,1,.07.9,1.71,1.71,0,0,0,.5,1.37,2.56,2.56,0,0,1,.47.65,12.11,12.11,0,0,0,1.45,2.29.8.8,0,0,1,.2.56.48.48,0,0,1-.2.43.41.41,0,0,1-.47,0,3.88,3.88,0,0,1-1-1.09,12.7,12.7,0,0,1-.66-1.13,3.94,3.94,0,0,0-.84-1.24A1.45,1.45,0,0,1,66,104C66,103.78,66,103.54,66,103.15Z"/><path d="M66.06,101a1.3,1.3,0,0,1,.06-.31,14.31,14.31,0,0,1,.6-1.48c.54-1,.88-2.16,1.32-3.24a2.08,2.08,0,0,1,.52-.84.45.45,0,0,1,.47-.09.44.44,0,0,1,.27.39,1.4,1.4,0,0,1-.19.77c-.58,1.35-1.14,2.71-1.72,4.06a5.75,5.75,0,0,0-.34.94c-.1.41-.31.56-.62.51S66,101.46,66.06,101Z"/><path d="M81.87,134.51c-.23,0-.47,0-.7,0a1.38,1.38,0,0,1-.81-.35.67.67,0,0,1-.1-1,1.08,1.08,0,0,1,.55-.42,9,9,0,0,1,1.35-.35,1.06,1.06,0,0,1,1.22,1,.93.93,0,0,1-.91,1.08,5.93,5.93,0,0,1-.6,0Z"/><path d="M76.65,128.39a1.24,1.24,0,0,1,1,.43.51.51,0,0,1,.07.56.44.44,0,0,1-.5.25c-.13,0-.25-.09-.38-.12a.32.32,0,0,0-.4.21,3.78,3.78,0,0,1-.14.37.52.52,0,0,1-.76.22.79.79,0,0,1-.26-1.26A1.83,1.83,0,0,1,76.65,128.39Z"/><path d="M120.7,230.5h-.1a2.3,2.3,0,0,1-2.5-1.32,16.19,16.19,0,0,1-1.59-3.26,1.92,1.92,0,0,1-.1-.39c-.13-.9-.27-1.8-.39-2.7a2.84,2.84,0,0,1,0-.8,1.16,1.16,0,0,1,1.75-.89,4,4,0,0,1,.6.38,18.28,18.28,0,0,1,2.13,1.69,7.42,7.42,0,0,0,1.35,1.05,4,4,0,0,1,1.7,1.94,2,2,0,0,1,.09.29.33.33,0,0,1-.36.38,1.1,1.1,0,0,1-.67-.41,23.57,23.57,0,0,0-3.18-2.79,5.91,5.91,0,0,1-.73-.69,4.23,4.23,0,0,0-1.05-.77.25.25,0,0,0-.38.28,11.17,11.17,0,0,1,.13,2,7,7,0,0,0,.51,1.84,7.48,7.48,0,0,0,1,2.08,1.92,1.92,0,0,0,1.83,1c.2,0,.4,0,.61,0a1,1,0,0,0,.8-.35,1.16,1.16,0,0,1,.65-.45.31.31,0,0,1,.35.14.41.41,0,0,1,.06.28,2,2,0,0,1-1.77,1.41c-.24,0-.47,0-.71,0Z"/><path d="M130.88,224.82c0,.13,0,.27,0,.4,0,.4-.15.73-.6.81a.44.44,0,0,0-.39.49,1.55,1.55,0,0,1-.39,1.11,1.63,1.63,0,0,1-.39.31.37.37,0,0,1-.46-.07.33.33,0,0,1-.09-.37,4.82,4.82,0,0,0,.32-2.55c0-.44,0-.87,0-1.31a2.15,2.15,0,0,0-.21-1.07,2.76,2.76,0,0,1-.21-.67,2,2,0,0,0-.88-1.41.44.44,0,0,1-.21-.6.77.77,0,0,0-.07-.93.48.48,0,0,1-.07-.19.38.38,0,0,1,.42-.43.81.81,0,0,1,.58.36,18.59,18.59,0,0,1,1.32,2.14c.44.91.74,1.87,1.15,2.78A2.62,2.62,0,0,1,130.88,224.82Z"/><path d="M134.14,223.38c0,.2,0,.4,0,.6-.07.53-.37.66-.86.4a.88.88,0,0,1-.53-.8c0-.47,0-.94,0-1.41a3.53,3.53,0,0,0-1.09-2.51,3.87,3.87,0,0,1-.89-1.2,3.38,3.38,0,0,0-.52-.73c-.19-.24-.42-.44-.59-.69a2.24,2.24,0,0,0-1.78-1.16.47.47,0,0,1-.46-.45.64.64,0,0,1,.35-.57,1.41,1.41,0,0,1,1.44.07,4,4,0,0,1,1.37,1.32,6.79,6.79,0,0,0,1.13,1.41,1.06,1.06,0,0,1,.36.48,14.43,14.43,0,0,0,1.27,2.39,3.69,3.69,0,0,1,.47,1.2.87.87,0,0,0,.13.38A2.26,2.26,0,0,1,134.14,223.38Z"/><path d="M127.41,223.91c-.48.66-.21,1.43-.35,2.15a1.11,1.11,0,0,1-1.08.88c-.37,0-.58-.26-.41-.59a2.93,2.93,0,0,0,.26-1.46,3.27,3.27,0,0,0-1.12-2.39,18.32,18.32,0,0,0-2.86-2.53.64.64,0,0,1-.32-.59.53.53,0,0,1,.69-.51,1.92,1.92,0,0,1,.52.3c.62.51,1.23,1,1.84,1.57s1.34,1.22,2.06,1.78C127.11,222.87,127.17,223.4,127.41,223.91Z"/></svg>