<?xml version="1.0" encoding="utf-8"?>
<!-- Generator: Adobe Illustrator 19.2.1, SVG Export Plug-In . SVG Version: 6.00 Build 0)  -->
<svg version="1.1" id="レイヤー_1" xmlns="http://www.w3.org/2000/svg" xmlns:xlink="http://www.w3.org/1999/xlink" x="0px"
	 y="0px" viewBox="0 0 158.7 158.7" style="enable-background:new 0 0 158.7 158.7;" xml:space="preserve">
<style type="text/css">
	.st0{fill:#D50D21;}
</style>
<path class="st0" d="M79.4,0.9C52.5,0.9,26,0.6,0.1,0.1c0,0.4,0,23,0,23h0C8.6,25.8,28.6,33.7,45,53.8c15.8,19.3,20,40.1,21.2,52.2
	c0.5,5.4,0.1,10.9-1.3,16.1v0c-0.3,1-0.7,2.2-1.3,3.5c-1,2.1-2.3,3.7-3.3,4.7c-0.7,0.8-1.4,1.3-1.8,1.6c-1.5,1.2-3.4,2.4-6,3.2
	c-0.5,0.2-0.9,0.3-1.9,0.6c-1.8,0.5-3.3,0.9-4.3,1.1c0,7.3,0,14.6,0,21.9c10.9-0.1,21.9-0.1,33-0.1c11.1,0,22.1,0,33,0.1
	c0-7.3,0-14.6,0-21.9c-1-0.2-2.5-0.6-4.3-1.1c-0.9-0.3-1.4-0.4-1.9-0.6c-2.6-0.8-4.6-2.1-6-3.2c-0.4-0.3-1-0.8-1.8-1.6
	c-1-1-2.2-2.6-3.3-4.7c-0.6-1.3-1-2.5-1.3-3.5v0c-1.4-5.3-1.9-10.7-1.3-16.1c1.2-12.1,5.5-32.8,21.2-52.2
	c16.4-20.1,36.4-27.9,44.9-30.7h0c0,0,0-22.6,0-23C132.7,0.6,106.3,0.9,79.4,0.9z"/>
</svg>
