<svg xmlns="http://www.w3.org/2000/svg" viewBox="0 0 195 194.85"><title>bg_circle_sp</title><path d="M94.56,194.82q-1.57,0-3.12-.14l.43-7q1.45.09,2.91.13Zm8.86-.13-.42-7q1.46-.09,2.9-.22l.64,7Q105,194.59,103.42,194.69Zm-20.8-1q-1.55-.24-3.08-.52l1.28-6.88q1.42.27,2.87.49Zm32.71-.5L114,186.35q1.43-.27,2.85-.58l1.49,6.84Q116.87,192.95,115.32,193.24ZM70.9,191.18q-1.51-.43-3-.9L70,183.61q1.38.44,2.78.84Zm56.07-.86-2.12-6.67q1.39-.44,2.76-.92l2.33,6.6Q128.46,189.85,127,190.33Zm-67.39-3.12q-1.45-.61-2.87-1.27l2.93-6.36q1.32.61,2.66,1.18Zm78.58-1.2-2.92-6.36q1.32-.61,2.61-1.25l3.13,6.26Q139.57,185.35,138.15,186Zm-89.32-4.15q-1.36-.79-2.69-1.61l3.69-5.95q1.24.77,2.5,1.5Zm99.88-1.52-3.68-6q1.23-.76,2.44-1.57l3.88,5.83Q150,179.51,148.71,180.34ZM38.82,175.22q-1.25-.94-2.47-1.93l4.4-5.45q1.13.91,2.29,1.79Zm119.67-1.81L154.11,168q1.13-.91,2.23-1.86l4.56,5.31Q159.72,172.43,158.5,173.41Zm-128.78-6q-1.12-1.09-2.21-2.21l5-4.87q1,1,2.06,2.06Zm137.65-2.08-5-4.88q1-1,2-2.12l5.17,4.72Q168.46,164.22,167.37,165.34ZM21.63,158.56q-1-1.22-1.93-2.47l5.59-4.21q.87,1.16,1.79,2.29Zm153.56-2.31L169.61,152q.88-1.16,1.72-2.35l5.71,4Q176.13,155,175.18,156.25Zm-160.5-7.46q-.83-1.33-1.61-2.68l6.06-3.5q.73,1.26,1.49,2.49Zm167.15-2.53-6.05-3.52q.73-1.26,1.42-2.54l6.17,3.31Q182.62,144.91,181.83,146.26ZM9,138.24q-.65-1.42-1.26-2.86l6.45-2.73q.56,1.33,1.17,2.65Zm178.21-2.71-6.44-2.74q.57-1.34,1.1-2.7l6.53,2.53Q187.82,134.08,187.21,135.52ZM4.65,127.06q-.48-1.49-.9-3l6.73-1.91q.4,1.4.84,2.78Zm186.56-2.86-6.73-1.92q.4-1.39.75-2.81l6.79,1.7Q191.64,122.71,191.21,124.21ZM1.72,115.43q-.29-1.54-.53-3.09l6.92-1.06q.22,1.44.49,2.86Zm192.05-2.94-6.92-1.07q.22-1.43.4-2.88l6.95.85Q194,110.95,193.78,112.49Zm-193.53-9Q.15,102,.11,100.4l7-.21q0,1.46.13,2.9Zm194.64-3-7-.22q0-1.45,0-2.91v-.21h7v.21Q194.94,99,194.89,100.56ZM7.22,92l-7-.42Q.33,90,.47,88.42l7,.64Q7.31,90.51,7.22,92Zm180.33-3q-.13-1.45-.31-2.89l6.95-.87q.19,1.55.34,3.11Zm-179-8.09L1.68,79.64Q2,78.1,2.3,76.57l6.84,1.49Q8.83,79.48,8.57,80.91ZM185.85,78q-.31-1.42-.67-2.83L192,73.46q.38,1.52.72,3ZM11.26,70.11,4.59,68q.47-1.5,1-3l6.6,2.32Q11.7,68.72,11.26,70.11ZM182.8,67.3q-.48-1.37-1-2.72L188.31,62q.57,1.46,1.09,2.94ZM15.27,59.72,8.91,56.8q.66-1.43,1.36-2.83l6.26,3.13Q15.88,58.39,15.27,59.72Zm163.18-2.66q-.65-1.3-1.34-2.58l6.16-3.33q.74,1.37,1.44,2.77ZM20.54,49.9l-6-3.68q.82-1.33,1.69-2.64l5.83,3.87Q21.31,48.66,20.54,49.9Zm152.34-2.47q-.81-1.21-1.65-2.4L176.93,41q.9,1.27,1.77,2.57ZM27,40.81l-5.46-4.39q1-1.22,2-2.41l5.31,4.56Q27.88,39.68,27,40.81Zm139.19-2.25q-.95-1.1-1.93-2.18l5.16-4.73q1.05,1.15,2.07,2.34Zm-131.69-6-4.88-5q1.12-1.09,2.28-2.15l4.72,5.17Q35.51,31.56,34.47,32.57Zm123.93-2q-1.07-1-2.18-1.92l4.54-5.32q1.19,1,2.35,2.07ZM42.91,25.31l-4.23-5.58q1.25-.94,2.52-1.85l4,5.71Q44.07,24.44,42.91,25.31Zm106.81-1.73q-1.19-.84-2.4-1.64l3.86-5.84q1.31.86,2.58,1.77ZM52.18,19.15l-3.51-6.05q1.35-.78,2.73-1.52l3.32,6.16Q53.43,18.42,52.18,19.15Zm88.08-1.43Q139,17,137.67,16.38l3.11-6.27q1.41.7,2.79,1.44ZM62.12,14.17,59.38,7.73q1.43-.61,2.89-1.18l2.53,6.53Q63.45,13.6,62.12,14.17Zm68-1.11q-1.35-.52-2.73-1l2.31-6.61q1.49.52,2.95,1.09Zm-57.53-2.6L70.68,3.73q1.5-.43,3-.81l1.7,6.79Q74,10.06,72.61,10.46Zm46.92-.77q-1.41-.35-2.83-.66l1.48-6.84q1.53.33,3,.71ZM83.48,8.07,82.4,1.15Q83.94.91,85.5.72l.85,6.95Q84.91,7.84,83.48,8.07Zm25.11-.41q-1.44-.18-2.89-.31l.63-7q1.56.14,3.11.33ZM94.56,7l-.22-7Q95.89,0,97.46,0V7Q96,7,94.56,7Z" fill="#e6001e"/></svg>