<svg xmlns="http://www.w3.org/2000/svg" viewBox="0 0 156 156"><title>bg_circle</title><path d="M78,155.75l-.09-7c1,0,1.93,0,2.83-.05l.27,7Q79.51,155.75,78,155.75Zm-8.88-.5q-1.55-.18-3.08-.41l1.07-6.92q1.39.22,2.8.38Zm20.64-.38-1.05-6.92q1.4-.21,2.79-.48l1.32,6.87Q91.31,154.63,89.76,154.87ZM57.43,153q-1.5-.41-3-.88l2.12-6.67q1.34.43,2.71.8Zm43.93-.82-2.1-6.68q1.35-.42,2.68-.9l2.37,6.59Q102.85,151.71,101.36,152.18ZM46.22,149q-1.42-.64-2.82-1.33l3.12-6.27q1.27.63,2.56,1.21Zm66.19-1.24-3.11-6.27q1.27-.63,2.51-1.3l3.35,6.15Q113.8,147.05,112.41,147.74Zm-76.65-4.45q-1.31-.85-2.58-1.74l4-5.72q1.15.82,2.34,1.59Zm86.87-1.62-4-5.73q1.16-.81,2.28-1.67l4.25,5.56Q123.9,140.78,122.63,141.67Zm-96.33-5.6Q25.14,135,24,134l4.86-5q1,1,2.07,1.92Zm105.52-2L127,129.06q1-1,2-2l5,4.86Q132.94,133,131.82,134.11ZM18,127.5q-1-1.2-1.93-2.43l5.57-4.24q.86,1.13,1.76,2.21Zm121.71-2.25L134.2,121q.86-1.12,1.68-2.28l5.72,4Q140.7,124,139.75,125.25ZM11.18,117.78q-.79-1.33-1.54-2.7l6.15-3.34q.67,1.24,1.4,2.45Zm135.06-2.51-6.14-3.36q.68-1.24,1.31-2.51l6.27,3.11Q147,113.91,146.25,115.27ZM5.89,107.13q-.58-1.44-1.11-2.91l6.59-2.36q.48,1.33,1,2.64Zm145.25-2.72L144.56,102q.48-1.33.91-2.68l6.67,2.11Q151.68,102.95,151.15,104.41ZM2.29,95.78q-.35-1.51-.65-3l6.87-1.32q.27,1.39.59,2.76Zm152-2.86-6.87-1.34q.27-1.39.48-2.79l6.92,1.06Q154.61,91.4,154.32,92.92ZM.48,84Q.36,82.48.3,80.92l7-.26q.05,1.42.16,2.82Zm155.21-2.92-7-.28q.06-1.41.06-2.83v-.15h7V78Q155.75,79.56,155.69,81.11ZM7.45,72.65l-7-.52Q.59,70.57.76,69l7,.8Q7.56,71.23,7.45,72.65Zm140.84-2.79q-.16-1.41-.38-2.8L154.83,66q.24,1.53.42,3.08ZM9.08,61.94,2.26,60.36q.35-1.52.76-3L9.77,59.2Q9.4,60.56,9.08,61.94Zm137.16-2.71q-.37-1.37-.8-2.71l6.67-2.12q.47,1.48.88,3ZM12.33,51.62,5.84,49q.58-1.45,1.22-2.86L13.44,49Q12.86,50.3,12.33,51.62ZM142.57,49q-.58-1.29-1.21-2.55l6.27-3.12q.69,1.39,1.33,2.8ZM17.14,41.9l-6-3.58q.8-1.34,1.64-2.64l5.87,3.82Q17.86,40.69,17.14,41.9ZM137.4,39.54q-.77-1.19-1.58-2.34l5.71-4q.9,1.27,1.74,2.57ZM23.37,33,18,28.59q1-1.2,2-2.36l5.22,4.66Q24.27,31.95,23.37,33Zm107.46-2.1q-.94-1.06-1.93-2.08l5-4.86Q135,25.12,136,26.28Zm-100-5.71L26.21,20q1.16-1,2.35-2L33,23.38Q31.93,24.28,30.88,25.23ZM123,23.42q-1.09-.9-2.22-1.76L125,16.09q1.24.94,2.44,1.93ZM39.48,18.65l-3.82-5.87q1.3-.84,2.63-1.64l3.58,6Q40.66,17.88,39.48,18.65Zm74.69-1.47q-1.22-.72-2.46-1.4L115,9.63q1.37.74,2.71,1.54ZM49,13.46,46.1,7.08q1.41-.64,2.85-1.22l2.62,6.49Q50.26,12.88,49,13.46Zm55.49-1.09q-1.31-.53-2.65-1l2.36-6.59q1.47.53,2.91,1.11ZM59.15,9.79,57.29,3q1.49-.41,3-.77l1.59,6.82Q60.51,9.41,59.15,9.79Zm35-.69q-1.37-.32-2.76-.59l1.31-6.88q1.53.29,3,.64ZM69.78,7.72l-.8-7q1.54-.18,3.09-.3l.53,7Q71.18,7.56,69.78,7.72Zm13.65-.27Q82,7.35,80.6,7.3l.25-7q1.56.06,3.1.17Z" fill="#e6001e"/></svg>