<svg xmlns="http://www.w3.org/2000/svg" viewBox="0 0 490 320.85"><title>sct5_img4</title><path d="M363.05,283.9a5.15,5.15,0,0,0-.75,0,3.12,3.12,0,0,0-2.08,1.17,3.22,3.22,0,0,0-.77,2.29,3.12,3.12,0,0,0,1.17,2.08,3.36,3.36,0,0,0,2.29.77h47.36a2.61,2.61,0,0,0,2.16-.94,3,3,0,0,0,0-4.41,3,3,0,0,0-2.14-.94Z" fill="#b5b29d"/><path d="M443.32,95H399.25V3.73A3.32,3.32,0,0,0,396.1.58H46.68c-.29,0-.49,0-.67,0A3.3,3.3,0,0,0,43.53,3.7V211.5a3.32,3.32,0,0,0,3.15,3.15H184.3l-22,88.14H141.12l-.45,0h-.3a3.34,3.34,0,0,0-2.84,3.46,3.11,3.11,0,0,0,1.15,2.07,3.29,3.29,0,0,0,2.31.79H301.66a3,3,0,0,0,2.16-.94,3,3,0,0,0,0-4.41,2.89,2.89,0,0,0-2.14-.94H280.51l-.3-1.19-21.74-87h68.37v91.29a3.32,3.32,0,0,0,3.15,3.15H443.32a3.32,3.32,0,0,0,3.15-3.15V98.17A3.32,3.32,0,0,0,443.32,95ZM274,302.79H168.76l22-88.14H252l.3,1.19ZM326.85,98.17V208.35h-277V6.88H393V95H330A3.34,3.34,0,0,0,326.85,98.17ZM440.18,302.79h-107V271.31h107Zm0-37.78h-107V124.93h107Zm0-146.38h-107V101.32h107Z" fill="#b5b29d"/></svg>