<svg xmlns="http://www.w3.org/2000/svg" viewBox="0 0 490 320.85"><title>sct5_img2</title><path d="M228,16.12a7.31,7.31,0,0,0,1.08,1A7.72,7.72,0,0,1,233,24.17q0,74.1,0,148.19c0,5-3.31,8-8.81,8H90.22q-34.55,0-69.09,0c-3.5,0-6.18-1.28-7.72-4.48a7.36,7.36,0,0,1-.71-3.08q-.05-74.6,0-149.2c0-2.69,1.34-4.54,3.29-6.12l1.72-1.38Zm-1.52,126.94c.08-1.55.16-2.42.16-3.28q0-56.83,0-113.65c0-3.65,0-3.65-3.58-3.65H22.53c-3.48,0-3.51,0-3.51,3.46q0,57,0,113.9c0,.86.1,1.71.2,3.21,1.1-1,1.73-1.44,2.28-2q19.4-19.36,38.75-38.77c1.62-1.64,2.53-1.68,4.16,0,9.37,9.51,18.89,18.87,28.24,28.39,1.81,1.85,2.78,1.71,4.55-.07q27.44-27.61,55-55c3.51-3.5,2.68-3.62,6.24-.06q32.79,32.7,65.53,65.45C224.61,141.52,225.3,142.05,226.45,143.06ZM63.12,173.83c1.74.08,2.7.17,3.66.17H222.92c3.7,0,3.7,0,3.7-3.78,0-5.09.12-10.18-.08-15.26a6.7,6.7,0,0,0-1.73-4.11q-33.45-33.6-67.05-67c-2.37-2.36-2.36-2.36-4.81.08L65.11,171.56C64.6,172.07,64.15,172.65,63.12,173.83ZM36.74,174c4.92,0,9.84.08,14.76-.06a5.3,5.3,0,0,0,3.33-1.23c11.39-11.26,22.68-22.61,34-33.9,1.19-1.18,1.08-2-.05-3.08Q76.37,123.41,64,111c-1.35-1.36-2.16-1.24-3.44,0-13.37,13.41-26.8,26.75-40.14,40.18a5.25,5.25,0,0,0-1.37,3.27c-.14,5.59,0,11.18-.1,16.76,0,2,.67,2.83,2.75,2.79C26.73,173.94,31.74,174,36.74,174Z" fill="#b5b29d"/><path d="M483.33,175.35c-.25.21-.61.37-.75.64-1.77,3.38-4.66,4.4-8.3,4.4q-55.81-.07-111.62,0H272.31c-6.48,0-9.29-2.81-9.29-9.27q0-71.58-.07-143.16c0-4.88.51-9.1,5.08-11.8h210.3l5,5Zm-6.56-32.22c.11-1.51.21-2.23.21-2.94q0-57.33,0-114.65c0-2.47-.87-3.1-3.21-3.1q-100.63.07-201.27,0c-2.32,0-3.23.6-3.22,3.09q.1,57.33.05,114.65c0,.76.14,1.52.27,2.86,1.08-1,1.71-1.48,2.28-2,12.87-12.85,25.79-25.66,38.56-38.61,1.89-1.92,2.84-1.6,4.52.11,9.36,9.51,18.87,18.89,28.25,28.39,1.53,1.54,2.43,1.57,4,0q27.9-28,55.92-55.93c2.54-2.53,2.56-2.56,5.18.06l65.88,65.8C474.87,141.43,475.55,142,476.77,143.13ZM313.63,173.78c1.36.12,2,.22,2.66.22q78.95,0,157.9,0c2.25,0,2.87-.86,2.83-3-.1-5.42.07-10.85-.11-16.26a6.32,6.32,0,0,0-1.66-3.89q-33.64-33.77-67.38-67.43c-1.59-1.59-2.49-1.75-4.18-.06q-44.11,44.17-88.32,88.24C314.87,172.16,314.47,172.75,313.63,173.78ZM287,174c4.75,0,9.51-.08,14.26,0a5.83,5.83,0,0,0,4.63-1.9q16.4-16.51,32.91-32.9c1.44-1.43,1.62-2.31.08-3.82q-12.24-12-24.27-24.2c-1.42-1.44-2.3-1.6-3.81-.08-13.29,13.37-26.67,26.64-40,40a5.25,5.25,0,0,0-1.43,3.24c-.14,5.67,0,11.34-.1,17,0,2,.73,2.65,2.66,2.62C277,174,282,174,287,174Z" fill="#b5b29d"/><path d="M71.78,211.32h51c1,0,2.17-.27,3,.15,1,.51,2.14,1.58,2.2,2.47s-1.13,2-2,2.48a6.36,6.36,0,0,1-2.94.27q-51.28,0-102.56,0a6.71,6.71,0,0,1-2.95-.28c-.88-.46-2.07-1.58-2-2.29a4.13,4.13,0,0,1,2.06-2.62c.85-.46,2.12-.18,3.2-.18Z" fill="#b5b29d"/><path d="M71.52,302.51H19.7c-.75,0-1.69.25-2.21-.1-.86-.58-2-1.54-2-2.39s1-2,1.8-2.45,1.95-.23,2.95-.23H122.88c.92,0,2-.25,2.7.18.91.58,2.06,1.72,2,2.58s-1.35,1.76-2.29,2.34c-.55.34-1.46.08-2.22.08Z" fill="#b5b29d"/><path d="M63.3,269.49h43.52c.75,0,1.69-.26,2.21.09,1,.67,2.25,1.62,2.4,2.61.12.73-1.21,1.87-2.11,2.53-.51.37-1.45.19-2.2.19H19.83a4.77,4.77,0,0,1-2.44-.24c-.85-.58-2-1.68-1.9-2.44a4.6,4.6,0,0,1,2.09-2.61c.58-.4,1.62-.13,2.45-.13Z" fill="#b5b29d"/><path d="M476.4,257.47c0,13.84,0,27.68-.06,41.52,0,1.15-.57,2.81-1.42,3.33-1.88,1.13-3.55,0-3.83-2.25a20.32,20.32,0,0,1-.07-2.5q0-40.15,0-80.29a26,26,0,0,1,.12-2.74c.18-1.66,1.28-2.51,2.76-2a5.37,5.37,0,0,1,2.41,2.24c.35.53.09,1.46.09,2.21Q476.4,237.21,476.4,257.47Z" fill="#b5b29d"/><path d="M362.24,257.44q0,20.76,0,41.52c0,1.48.18,3.14-1.89,3.52-2.32.43-3.21-.25-3.45-2.66-.07-.74,0-1.5,0-2.25q0-40.15,0-80.29a26.3,26.3,0,0,1,.12-2.74c.17-1.65,1.25-2.53,2.74-2.05a5.38,5.38,0,0,1,2.43,2.22c.35.53.1,1.46.1,2.21Q362.24,237.18,362.24,257.44Z" fill="#b5b29d"/><path d="M276.22,257.2q0,20.26,0,40.51c0,.83.24,1.84-.14,2.46-.52.86-1.57,2-2.31,2-.94-.07-2-1.1-2.62-2-.37-.48-.12-1.45-.12-2.2q0-40.76,0-81.53c0-.67-.24-1.54.09-2,.69-.88,1.66-2.08,2.56-2.11s1.82,1.21,2.44,2.11c.35.52.11,1.46.11,2.21Q276.22,236.94,276.22,257.2Z" fill="#b5b29d"/><path d="M385.19,257.27q0-20.38,0-40.76c0-.75-.25-1.74.12-2.2.71-.86,1.75-1.87,2.72-1.94.71-.05,1.66,1.21,2.24,2.06.32.46.11,1.3.11,2q0,40.89,0,81.78a14.11,14.11,0,0,1,0,1.75c-.19,1.52-.93,2.43-2.61,2.39a2.38,2.38,0,0,1-2.5-2.52c-.1-1.33,0-2.67,0-4Q385.19,276.53,385.19,257.27Z" fill="#b5b29d"/><path d="M304.08,250.73c0,11.67,0,23.34,0,35,0,1.89-.41,3.41-2.59,3.5-2.36.1-2.87-1.5-2.87-3.49,0-6.83,0-13.67,0-20.5q0-24.25,0-48.51c0-.83-.25-1.89.17-2.44.65-.87,1.79-2,2.67-1.93s1.83,1.26,2.5,2.15c.32.43.08,1.29.08,2Q304.08,233.6,304.08,250.73Z" fill="#b5b29d"/><path d="M418.24,250.72c0,11.67,0,23.34,0,35,0,1.76-.32,3.19-2.32,3.52s-3.09-.9-3.11-3.23c0-6.08,0-12.17,0-18.25q0-25.5,0-51c0-.83-.25-1.89.16-2.44.65-.88,1.78-2,2.66-1.94s1.84,1.25,2.52,2.13c.33.43.08,1.29.08,2Q418.24,233.59,418.24,250.72Z" fill="#b5b29d"/><path d="M51.53,246.42H20c-.83,0-1.88.24-2.45-.16a4.63,4.63,0,0,1-2.06-2.65c-.07-.77,1.06-1.86,1.91-2.45a4.68,4.68,0,0,1,2.44-.28H83.92c3.08,0,4.63.91,4.63,2.65s-1.77,2.9-4.73,2.9Z" fill="#b5b29d"/><path d="M446.86,241.62c0,8.59.05,17.17-.06,25.76a4.5,4.5,0,0,1-1.45,3.11c-.57.45-2.15.18-2.9-.32a3.47,3.47,0,0,1-1.1-2.55c-.06-17.34,0-34.68-.06-52,0-1.85.66-3.15,2.64-3.23,2.15-.08,2.91,1.32,2.91,3.24Q446.87,228.61,446.86,241.62Z" fill="#b5b29d"/><path d="M327.14,241.65c0-8.5,0-17,0-25.51,0-1.93.29-3.57,2.63-3.76,1.92-.15,2.93,1.13,2.93,3.73q0,25.51,0,51c0,1.9-.25,3.62-2.6,3.8-1.85.14-3-1.31-3-3.77Q327.13,254.4,327.14,241.65Z" fill="#b5b29d"/><path d="M99.66,44a21.68,21.68,0,1,1-21.9,21.63A21.68,21.68,0,0,1,99.66,44Zm15.23,21.7A15.37,15.37,0,1,0,99.67,81.13,15.47,15.47,0,0,0,114.89,65.74Z" fill="#b5b29d"/><path d="M189.46,140.13c.14-2.07,1.2-3.18,3.17-3.16a2.84,2.84,0,0,1,3.14,3.09,3,3,0,0,1-3.17,3.12C190.62,143.21,189.65,142,189.46,140.13Z" fill="#b5b29d"/><path d="M121.32,140.16c-.26,1.87-1.26,3.11-3.24,3A3,3,0,0,1,115,140c0-2,1.29-3,3.24-3S121.19,138.2,121.32,140.16Z" fill="#b5b29d"/><path d="M211.11,161.71c-1.77-.14-3.07-1-3.07-3a3,3,0,0,1,3.1-3.19,2.83,2.83,0,0,1,3.15,3.07C214.34,160.54,213.23,161.59,211.11,161.71Z" fill="#b5b29d"/><path d="M102.76,158.59c-.18,2-1.3,3.1-3.23,3.09a2.78,2.78,0,0,1-3.06-3.13,2.86,2.86,0,0,1,3.15-3.08A3,3,0,0,1,102.76,158.59Z" fill="#b5b29d"/><path d="M158.6,140c-.23,1.81-1.17,3.1-3.13,3.16a2.92,2.92,0,0,1-3.21-3.06,2.83,2.83,0,0,1,3.06-3.16C157.3,136.92,158.34,138,158.6,140Z" fill="#b5b29d"/><path d="M173.87,155.4c1.9.21,3.13,1.07,3.19,3.11a2.78,2.78,0,0,1-3,3.17,2.81,2.81,0,0,1-3.19-3C170.82,156.63,172.06,155.75,173.87,155.4Z" fill="#b5b29d"/><path d="M155.4,99.76a3.1,3.1,0,0,1,3.16,3.23,3,3,0,0,1-3.28,3,2.94,2.94,0,0,1-3-3.25C152.3,100.8,153.57,99.85,155.4,99.76Z" fill="#b5b29d"/><path d="M139.91,158.64a2.87,2.87,0,0,1-3.26,3,2.77,2.77,0,0,1-2.95-3.21,2.83,2.83,0,0,1,3.22-3A2.89,2.89,0,0,1,139.91,158.64Z" fill="#b5b29d"/><path d="M177.06,121.06c0,2.27-1,3.41-3,3.44s-3.17-.89-3.21-3a2.86,2.86,0,0,1,3-3.22A2.77,2.77,0,0,1,177.06,121.06Z" fill="#b5b29d"/><path d="M136.84,118.27c1.85.24,3,1.15,3,3.18a3.09,3.09,0,0,1-6.18,0C133.71,119.39,134.88,118.47,136.84,118.27Z" fill="#b5b29d"/><path d="M65.6,140c-.29,1.92-1.25,3.2-3.2,3.23a2.9,2.9,0,0,1-3.16-3.1A2.81,2.81,0,0,1,62.32,137C64.31,136.95,65.29,138.12,65.6,140Z" fill="#b5b29d"/><path d="M43.81,155.4c1.89.33,3.05,1.25,3,3.3a2.78,2.78,0,0,1-3.19,3,2.79,2.79,0,0,1-3-3.18C40.7,156.42,42,155.65,43.81,155.4Z" fill="#b5b29d"/><path d="M350.1,44a21.68,21.68,0,1,1-22,21.55A21.68,21.68,0,0,1,350.1,44Zm15.15,21.68A15.37,15.37,0,1,0,350,81.13,15.47,15.47,0,0,0,365.25,65.73Z" fill="#b5b29d"/><path d="M446.2,140c-.25,1.85-1.23,3.1-3.18,3.15a2.87,2.87,0,0,1-3.16-3.08,2.8,2.8,0,0,1,3.07-3.13C444.9,137,446,138.07,446.2,140Z" fill="#b5b29d"/><path d="M368.67,137a2.93,2.93,0,0,1,3,3.25c-.19,1.92-1.31,3.1-3.28,3a3.12,3.12,0,1,1,.3-6.22Z" fill="#b5b29d"/><path d="M462.11,155.46a3,3,0,0,1,2.53,3.53c-.21,2-1.57,2.82-3.48,2.68a3,3,0,0,1-2.77-3.45A3.37,3.37,0,0,1,462.11,155.46Z" fill="#b5b29d"/><path d="M353.12,158.48c-.13,2.06-1.21,3.17-3.15,3.2a2.78,2.78,0,0,1-3.14-3,2.86,2.86,0,0,1,3.06-3.17A3.05,3.05,0,0,1,353.12,158.48Z" fill="#b5b29d"/><path d="M409,140c-.22,1.82-1.16,3.11-3.12,3.17a2.92,2.92,0,0,1-3.23-3,2.82,2.82,0,0,1,3-3.17C407.65,136.91,408.69,138,409,140Z" fill="#b5b29d"/><path d="M427.43,158.51c-.07,2.22-1.26,3.21-3.18,3.16a2.8,2.8,0,0,1-3-3.16,2.87,2.87,0,0,1,3.19-3A2.81,2.81,0,0,1,427.43,158.51Z" fill="#b5b29d"/><path d="M409,102.7c-.2,2-1.19,3.26-3.12,3.33a2.93,2.93,0,0,1-3.24-3,2.86,2.86,0,0,1,3-3.2C407.62,99.72,408.65,100.89,409,102.7Z" fill="#b5b29d"/><path d="M387.26,155.4c1.83.34,3,1.26,3,3.29s-1.31,3-3.2,3a2.77,2.77,0,0,1-3-3.17C384.11,156.44,385.38,155.62,387.26,155.4Z" fill="#b5b29d"/><path d="M424.46,118.27c1.95.26,3,1.3,3,3.3s-1.26,3-3.22,2.93a2.76,2.76,0,0,1-3-3.19C421.32,119.28,422.59,118.44,424.46,118.27Z" fill="#b5b29d"/><path d="M387.23,118.27c1.86.26,3,1.19,3,3.22s-1.2,3-3.15,3a2.75,2.75,0,0,1-3-3.12C384.09,119.35,385.28,118.45,387.23,118.27Z" fill="#b5b29d"/><path d="M315.94,140.15c-.35,1.82-1.33,3.08-3.3,3a2.9,2.9,0,0,1-3.05-3.21,2.82,2.82,0,0,1,3.2-3C314.78,137,315.75,138.2,315.94,140.15Z" fill="#b5b29d"/><path d="M297.16,158c.07,2.54-1,3.64-3,3.68a2.79,2.79,0,0,1-3.2-3,2.86,2.86,0,0,1,3-3.22C295.9,155.4,297.06,156.48,297.16,158Z" fill="#b5b29d"/></svg>