<?xml version="1.0" encoding="utf-8"?>
<!-- Generator: Adobe Illustrator 21.0.0, SVG Export Plug-In . SVG Version: 6.00 Build 0)  -->
<svg version="1.1" id="レイヤー_1" xmlns="http://www.w3.org/2000/svg" xmlns:xlink="http://www.w3.org/1999/xlink" x="0px"
	 y="0px" viewBox="0 0 490 320.9" style="enable-background:new 0 0 490 320.9;" xml:space="preserve">
<style type="text/css">
	.st0{fill:#B5B29D;}
</style>
<title>sct5_img1</title>
<path class="st0" d="M467.4,167.1l-0.7,0.7L467.4,167.1C370.1,65.3,272,29.9,175.8,62c-2.2,0.9-2.9,2.9-2.1,5.6c0.9,2.2,3,3,5.5,2.1
	c93-31,183.3,0.1,275.9,95.1l5.1,5.2l-5.1,5.2C386,245.4,316,281,247.2,281S108.4,245.4,39.3,175.2l-5.1-5.2l5-5.2
	c21.9-22.9,46.2-43.3,72.6-60.9c1-0.4,1.7-1.3,2-2.3c0.3-1.3,0-2.7-0.8-3.8c-0.4-0.8-1.2-1.4-2.1-1.7c-1.3-0.2-2.7,0-3.8,0.8
	c-24.9,16.6-51.5,39.2-81.4,69c-1.5,1.3-1.7,3.6-0.4,5.1c0.1,0.1,0.2,0.3,0.4,0.4c73.8,77.2,148.3,116.4,221.5,116.4
	s147.6-39.1,221.3-116.2l0.2-0.3C469.1,169.8,468.6,168.2,467.4,167.1z"/>
<path class="st0" d="M319.1,169.9c0-41-32.1-73.1-73.1-73.1s-73.1,32.1-73.1,73.1S205,243,246,243S319.1,210.9,319.1,169.9z
	 M243.2,167.1c-1.5,1.3-1.7,3.6-0.4,5.1c0.1,0.1,0.3,0.3,0.4,0.4c0.8,0.7,1.7,1.1,2.7,1.2h0.1c1-0.2,1.9-0.6,2.7-1.3l46.9-46.9l5,8
	c6.9,10.8,10.4,23.4,10.3,36.2c0,36.4-28.6,65-65,65s-65-28.6-65-65s28.6-65,65-65c12.8,0,25.3,3.6,36.2,10.3l8,5L243.2,167.1z"/>
</svg>
